<svg width="424" height="47" viewBox="0 0 424 47" fill="none" xmlns="http://www.w3.org/2000/svg">
<mask id="path-1-outside-1_46_2" maskUnits="userSpaceOnUse" x="-5" y="-5" width="434" height="57" fill="black">
<rect fill="white" x="-5" y="-5" width="434" height="57"/>
<path d="M0.773242 43.25V29.45H3.42324C3.88991 28.75 4.25658 27.9167 4.52324 26.95C4.78991 25.9833 4.98991 24.8667 5.12324 23.6C5.25658 22.3333 5.32324 20.9667 5.32324 19.5V10.5H28.0732V29.45H30.8232V43.25H23.0732V37H8.57324V43.25H0.773242ZM12.3232 29.45H18.7232V18.05H13.6232V20.5C13.6232 22.7 13.5066 24.5333 13.2732 26C13.0399 27.4333 12.7232 28.5833 12.3232 29.45ZM33.8139 37V10.5H43.1139V24L52.3639 10.5H60.3639V37H51.0639V23.5L41.8139 37H33.8139ZM77.1256 37.7C73.9589 37.7 71.3756 37.2833 69.3756 36.45C67.4089 35.5833 65.9423 34.35 64.9756 32.75C64.0423 31.15 63.5423 29.2333 63.4756 27H72.3756C72.4423 27.6333 72.5923 28.2167 72.8256 28.75C73.0589 29.25 73.4589 29.65 74.0256 29.95C74.6256 30.2167 75.4756 30.35 76.5756 30.35C77.8756 30.35 78.7923 30.15 79.3256 29.75C79.8589 29.35 80.1256 28.9 80.1256 28.4C80.1256 27.7667 79.8923 27.3 79.4256 27C78.9589 26.6667 78.1756 26.5 77.0756 26.5H74.2756V20.8H76.6256C77.6256 20.8 78.3423 20.65 78.7756 20.35C79.2423 20.05 79.4756 19.5833 79.4756 18.95C79.4756 18.4167 79.2423 17.9833 78.7756 17.65C78.3423 17.2833 77.6089 17.1 76.5756 17.1C75.2423 17.1 74.2589 17.4 73.6256 18C73.0256 18.5667 72.6923 19.3667 72.6256 20.4H63.7256C63.8589 17.9667 64.4589 15.9833 65.5256 14.45C66.6256 12.8833 68.1589 11.7167 70.1256 10.95C72.1256 10.1833 74.4423 9.8 77.0756 9.8C81.0089 9.8 83.9756 10.4833 85.9756 11.85C87.9756 13.1833 88.9756 15.1167 88.9756 17.65C88.9756 18.9167 88.6256 20.0667 87.9256 21.1C87.2589 22.1333 86.2256 22.85 84.8256 23.25C86.7256 23.65 88.0256 24.3833 88.7256 25.45C89.4256 26.4833 89.7756 27.6833 89.7756 29.05C89.7756 30.7833 89.2923 32.3167 88.3256 33.65C87.3589 34.95 85.9423 35.95 84.0756 36.65C82.2423 37.35 79.9256 37.7 77.1256 37.7ZM100.994 37.7C99.0936 37.7 97.4769 37.3333 96.1436 36.6C94.8102 35.8667 93.7936 34.85 93.0936 33.55C92.3936 32.25 92.0436 30.8167 92.0436 29.25C92.0436 26.6167 92.8436 24.5667 94.4436 23.1C96.0769 21.6333 98.5936 20.9 101.994 20.9H108.644V20C108.644 18.7667 108.36 17.9167 107.794 17.45C107.227 16.95 106.46 16.7 105.494 16.7C104.56 16.7 103.86 16.85 103.394 17.15C102.96 17.45 102.71 17.9 102.644 18.5H93.5436C93.6436 16.8333 94.1436 15.35 95.0436 14.05C95.9769 12.7167 97.3269 11.6833 99.0936 10.95C100.894 10.1833 103.11 9.8 105.744 9.8C108.177 9.8 110.31 10.1667 112.144 10.9C114.01 11.6 115.46 12.75 116.494 14.35C117.527 15.9167 118.044 18.05 118.044 20.75V30.25C118.044 31.65 118.077 32.8833 118.144 33.95C118.21 34.9833 118.327 36 118.494 37H109.544C109.444 36.5333 109.36 36.0833 109.294 35.65C109.227 35.2167 109.194 34.65 109.194 33.95C108.494 34.9833 107.527 35.8667 106.294 36.6C105.06 37.3333 103.294 37.7 100.994 37.7ZM104.394 31.05C105.26 31.05 106.01 30.9 106.644 30.6C107.277 30.2667 107.76 29.8 108.094 29.2C108.46 28.5667 108.644 27.8333 108.644 27V26.2H104.244C103.377 26.2 102.71 26.4167 102.244 26.85C101.81 27.2833 101.594 27.8333 101.594 28.5C101.594 29.3 101.81 29.9333 102.244 30.4C102.71 30.8333 103.427 31.05 104.394 31.05ZM121.997 37V10.5H131.297V24L140.547 10.5H148.547V37H139.247V23.5L129.997 37H121.997ZM135.247 7.75C131.714 7.75 129.197 7.1 127.697 5.8C126.231 4.5 125.497 2.65 125.497 0.249999H133.147C133.147 1.31667 133.314 2.05 133.647 2.45C134.014 2.85 134.547 3.05 135.247 3.05C135.947 3.05 136.464 2.85 136.797 2.45C137.164 2.05 137.347 1.31667 137.347 0.249999H144.997C144.997 2.65 144.247 4.5 142.747 5.8C141.281 7.1 138.781 7.75 135.247 7.75ZM152.759 37V10.5H162.159V19.75H169.909V10.5H179.309V37H169.909V27.25H162.159V37H152.759ZM182.571 27.5V18.5H199.271V27.5H182.571ZM202.515 47V10.5H211.215V13.8C211.848 12.6667 212.798 11.7167 214.065 10.95C215.365 10.1833 217.132 9.8 219.365 9.8C222.798 9.8 225.465 10.9167 227.365 13.15C229.298 15.3833 230.265 18.7167 230.265 23.15V24.15C230.265 27.1833 229.798 29.7167 228.865 31.75C227.932 33.75 226.632 35.25 224.965 36.25C223.332 37.2167 221.465 37.7 219.365 37.7C217.832 37.7 216.415 37.3833 215.115 36.75C213.815 36.1167 212.748 35.1833 211.915 33.95V47H202.515ZM216.465 30.05C217.598 30.05 218.582 29.5833 219.415 28.65C220.248 27.6833 220.665 26.1833 220.665 24.15V23.15C220.665 21.15 220.265 19.7 219.465 18.8C218.665 17.9 217.665 17.45 216.465 17.45C215.632 17.45 214.865 17.6333 214.165 18C213.465 18.3667 212.915 18.9333 212.515 19.7C212.115 20.4667 211.915 21.4333 211.915 22.6V24.65C211.915 25.85 212.115 26.8667 212.515 27.7C212.948 28.5 213.515 29.1 214.215 29.5C214.915 29.8667 215.665 30.05 216.465 30.05ZM246.821 37.7C244.054 37.7 241.588 37.2 239.421 36.2C237.288 35.2 235.604 33.7 234.371 31.7C233.171 29.7 232.571 27.1833 232.571 24.15V23.15C232.571 20.1833 233.154 17.7167 234.321 15.75C235.488 13.7833 237.104 12.3 239.171 11.3C241.271 10.3 243.654 9.8 246.321 9.8C250.921 9.8 254.354 10.95 256.621 13.25C258.888 15.5167 260.021 18.85 260.021 23.25V26.15H242.071C242.138 27.1833 242.371 28.05 242.771 28.75C243.171 29.4167 243.704 29.9167 244.371 30.25C245.071 30.55 245.888 30.7 246.821 30.7C247.988 30.7 248.888 30.5167 249.521 30.15C250.188 29.75 250.638 29.25 250.871 28.65H259.671C259.138 31.7167 257.771 34 255.571 35.5C253.404 36.9667 250.488 37.7 246.821 37.7ZM246.571 16.8C245.704 16.8 244.938 16.95 244.271 17.25C243.638 17.55 243.138 17.9833 242.771 18.55C242.404 19.1167 242.188 19.8333 242.121 20.7H250.821C250.788 19.8 250.588 19.0667 250.221 18.5C249.854 17.9 249.354 17.4667 248.721 17.2C248.121 16.9333 247.404 16.8 246.571 16.8ZM263.257 37V10.5H272.657V29.45H277.957V10.5H287.107V29.45H292.407V10.5H301.757V37H263.257ZM319.331 37.7C316.564 37.7 314.097 37.2 311.931 36.2C309.797 35.2 308.114 33.7 306.881 31.7C305.681 29.7 305.081 27.1833 305.081 24.15V23.15C305.081 20.1833 305.664 17.7167 306.831 15.75C307.997 13.7833 309.614 12.3 311.681 11.3C313.781 10.3 316.164 9.8 318.831 9.8C323.431 9.8 326.864 10.95 329.131 13.25C331.397 15.5167 332.531 18.85 332.531 23.25V26.15H314.581C314.647 27.1833 314.881 28.05 315.281 28.75C315.681 29.4167 316.214 29.9167 316.881 30.25C317.581 30.55 318.397 30.7 319.331 30.7C320.497 30.7 321.397 30.5167 322.031 30.15C322.697 29.75 323.147 29.25 323.381 28.65H332.181C331.647 31.7167 330.281 34 328.081 35.5C325.914 36.9667 322.997 37.7 319.331 37.7ZM319.081 16.8C318.214 16.8 317.447 16.95 316.781 17.25C316.147 17.55 315.647 17.9833 315.281 18.55C314.914 19.1167 314.697 19.8333 314.631 20.7H323.331C323.297 19.8 323.097 19.0667 322.731 18.5C322.364 17.9 321.864 17.4667 321.231 17.2C320.631 16.9333 319.914 16.8 319.081 16.8ZM335.767 37V10.5H345.167V19.75H352.917V10.5H362.317V37H352.917V27.25H345.167V37H335.767ZM366.529 37V10.5H375.829V24L385.079 10.5H393.079V37H383.779V23.5L374.529 37H366.529ZM410.59 37.7C407.824 37.7 405.357 37.2 403.19 36.2C401.057 35.2 399.374 33.7 398.14 31.7C396.94 29.7 396.34 27.1833 396.34 24.15V23.15C396.34 20.1833 396.924 17.7167 398.09 15.75C399.257 13.7833 400.874 12.3 402.94 11.3C405.04 10.3 407.424 9.8 410.09 9.8C414.69 9.8 418.124 10.95 420.39 13.25C422.657 15.5167 423.79 18.85 423.79 23.25V26.15H405.84C405.907 27.1833 406.14 28.05 406.54 28.75C406.94 29.4167 407.474 29.9167 408.14 30.25C408.84 30.55 409.657 30.7 410.59 30.7C411.757 30.7 412.657 30.5167 413.29 30.15C413.957 29.75 414.407 29.25 414.64 28.65H423.44C422.907 31.7167 421.54 34 419.34 35.5C417.174 36.9667 414.257 37.7 410.59 37.7ZM410.34 16.8C409.474 16.8 408.707 16.95 408.04 17.25C407.407 17.55 406.907 17.9833 406.54 18.55C406.174 19.1167 405.957 19.8333 405.89 20.7H414.59C414.557 19.8 414.357 19.0667 413.99 18.5C413.624 17.9 413.124 17.4667 412.49 17.2C411.89 16.9333 411.174 16.8 410.34 16.8Z"/>
</mask>
<path d="M0.773242 43.25V29.45H3.42324C3.88991 28.75 4.25658 27.9167 4.52324 26.95C4.78991 25.9833 4.98991 24.8667 5.12324 23.6C5.25658 22.3333 5.32324 20.9667 5.32324 19.5V10.5H28.0732V29.45H30.8232V43.25H23.0732V37H8.57324V43.25H0.773242ZM12.3232 29.45H18.7232V18.05H13.6232V20.5C13.6232 22.7 13.5066 24.5333 13.2732 26C13.0399 27.4333 12.7232 28.5833 12.3232 29.45ZM33.8139 37V10.5H43.1139V24L52.3639 10.5H60.3639V37H51.0639V23.5L41.8139 37H33.8139ZM77.1256 37.7C73.9589 37.7 71.3756 37.2833 69.3756 36.45C67.4089 35.5833 65.9423 34.35 64.9756 32.75C64.0423 31.15 63.5423 29.2333 63.4756 27H72.3756C72.4423 27.6333 72.5923 28.2167 72.8256 28.75C73.0589 29.25 73.4589 29.65 74.0256 29.95C74.6256 30.2167 75.4756 30.35 76.5756 30.35C77.8756 30.35 78.7923 30.15 79.3256 29.75C79.8589 29.35 80.1256 28.9 80.1256 28.4C80.1256 27.7667 79.8923 27.3 79.4256 27C78.9589 26.6667 78.1756 26.5 77.0756 26.5H74.2756V20.8H76.6256C77.6256 20.8 78.3423 20.65 78.7756 20.35C79.2423 20.05 79.4756 19.5833 79.4756 18.95C79.4756 18.4167 79.2423 17.9833 78.7756 17.65C78.3423 17.2833 77.6089 17.1 76.5756 17.1C75.2423 17.1 74.2589 17.4 73.6256 18C73.0256 18.5667 72.6923 19.3667 72.6256 20.4H63.7256C63.8589 17.9667 64.4589 15.9833 65.5256 14.45C66.6256 12.8833 68.1589 11.7167 70.1256 10.95C72.1256 10.1833 74.4423 9.8 77.0756 9.8C81.0089 9.8 83.9756 10.4833 85.9756 11.85C87.9756 13.1833 88.9756 15.1167 88.9756 17.65C88.9756 18.9167 88.6256 20.0667 87.9256 21.1C87.2589 22.1333 86.2256 22.85 84.8256 23.25C86.7256 23.65 88.0256 24.3833 88.7256 25.45C89.4256 26.4833 89.7756 27.6833 89.7756 29.05C89.7756 30.7833 89.2923 32.3167 88.3256 33.65C87.3589 34.95 85.9423 35.95 84.0756 36.65C82.2423 37.35 79.9256 37.7 77.1256 37.7ZM100.994 37.7C99.0936 37.7 97.4769 37.3333 96.1436 36.6C94.8102 35.8667 93.7936 34.85 93.0936 33.55C92.3936 32.25 92.0436 30.8167 92.0436 29.25C92.0436 26.6167 92.8436 24.5667 94.4436 23.1C96.0769 21.6333 98.5936 20.9 101.994 20.9H108.644V20C108.644 18.7667 108.36 17.9167 107.794 17.45C107.227 16.95 106.46 16.7 105.494 16.7C104.56 16.7 103.86 16.85 103.394 17.15C102.96 17.45 102.71 17.9 102.644 18.5H93.5436C93.6436 16.8333 94.1436 15.35 95.0436 14.05C95.9769 12.7167 97.3269 11.6833 99.0936 10.95C100.894 10.1833 103.11 9.8 105.744 9.8C108.177 9.8 110.31 10.1667 112.144 10.9C114.01 11.6 115.46 12.75 116.494 14.35C117.527 15.9167 118.044 18.05 118.044 20.75V30.25C118.044 31.65 118.077 32.8833 118.144 33.95C118.21 34.9833 118.327 36 118.494 37H109.544C109.444 36.5333 109.36 36.0833 109.294 35.65C109.227 35.2167 109.194 34.65 109.194 33.95C108.494 34.9833 107.527 35.8667 106.294 36.6C105.06 37.3333 103.294 37.7 100.994 37.7ZM104.394 31.05C105.26 31.05 106.01 30.9 106.644 30.6C107.277 30.2667 107.76 29.8 108.094 29.2C108.46 28.5667 108.644 27.8333 108.644 27V26.2H104.244C103.377 26.2 102.71 26.4167 102.244 26.85C101.81 27.2833 101.594 27.8333 101.594 28.5C101.594 29.3 101.81 29.9333 102.244 30.4C102.71 30.8333 103.427 31.05 104.394 31.05ZM121.997 37V10.5H131.297V24L140.547 10.5H148.547V37H139.247V23.5L129.997 37H121.997ZM135.247 7.75C131.714 7.75 129.197 7.1 127.697 5.8C126.231 4.5 125.497 2.65 125.497 0.249999H133.147C133.147 1.31667 133.314 2.05 133.647 2.45C134.014 2.85 134.547 3.05 135.247 3.05C135.947 3.05 136.464 2.85 136.797 2.45C137.164 2.05 137.347 1.31667 137.347 0.249999H144.997C144.997 2.65 144.247 4.5 142.747 5.8C141.281 7.1 138.781 7.75 135.247 7.75ZM152.759 37V10.5H162.159V19.75H169.909V10.5H179.309V37H169.909V27.25H162.159V37H152.759ZM182.571 27.5V18.5H199.271V27.5H182.571ZM202.515 47V10.5H211.215V13.8C211.848 12.6667 212.798 11.7167 214.065 10.95C215.365 10.1833 217.132 9.8 219.365 9.8C222.798 9.8 225.465 10.9167 227.365 13.15C229.298 15.3833 230.265 18.7167 230.265 23.15V24.15C230.265 27.1833 229.798 29.7167 228.865 31.75C227.932 33.75 226.632 35.25 224.965 36.25C223.332 37.2167 221.465 37.7 219.365 37.7C217.832 37.7 216.415 37.3833 215.115 36.75C213.815 36.1167 212.748 35.1833 211.915 33.95V47H202.515ZM216.465 30.05C217.598 30.05 218.582 29.5833 219.415 28.65C220.248 27.6833 220.665 26.1833 220.665 24.15V23.15C220.665 21.15 220.265 19.7 219.465 18.8C218.665 17.9 217.665 17.45 216.465 17.45C215.632 17.45 214.865 17.6333 214.165 18C213.465 18.3667 212.915 18.9333 212.515 19.7C212.115 20.4667 211.915 21.4333 211.915 22.6V24.65C211.915 25.85 212.115 26.8667 212.515 27.7C212.948 28.5 213.515 29.1 214.215 29.5C214.915 29.8667 215.665 30.05 216.465 30.05ZM246.821 37.7C244.054 37.7 241.588 37.2 239.421 36.2C237.288 35.2 235.604 33.7 234.371 31.7C233.171 29.7 232.571 27.1833 232.571 24.15V23.15C232.571 20.1833 233.154 17.7167 234.321 15.75C235.488 13.7833 237.104 12.3 239.171 11.3C241.271 10.3 243.654 9.8 246.321 9.8C250.921 9.8 254.354 10.95 256.621 13.25C258.888 15.5167 260.021 18.85 260.021 23.25V26.15H242.071C242.138 27.1833 242.371 28.05 242.771 28.75C243.171 29.4167 243.704 29.9167 244.371 30.25C245.071 30.55 245.888 30.7 246.821 30.7C247.988 30.7 248.888 30.5167 249.521 30.15C250.188 29.75 250.638 29.25 250.871 28.65H259.671C259.138 31.7167 257.771 34 255.571 35.5C253.404 36.9667 250.488 37.7 246.821 37.7ZM246.571 16.8C245.704 16.8 244.938 16.95 244.271 17.25C243.638 17.55 243.138 17.9833 242.771 18.55C242.404 19.1167 242.188 19.8333 242.121 20.7H250.821C250.788 19.8 250.588 19.0667 250.221 18.5C249.854 17.9 249.354 17.4667 248.721 17.2C248.121 16.9333 247.404 16.8 246.571 16.8ZM263.257 37V10.5H272.657V29.45H277.957V10.5H287.107V29.45H292.407V10.5H301.757V37H263.257ZM319.331 37.7C316.564 37.7 314.097 37.2 311.931 36.2C309.797 35.2 308.114 33.7 306.881 31.7C305.681 29.7 305.081 27.1833 305.081 24.15V23.15C305.081 20.1833 305.664 17.7167 306.831 15.75C307.997 13.7833 309.614 12.3 311.681 11.3C313.781 10.3 316.164 9.8 318.831 9.8C323.431 9.8 326.864 10.95 329.131 13.25C331.397 15.5167 332.531 18.85 332.531 23.25V26.15H314.581C314.647 27.1833 314.881 28.05 315.281 28.75C315.681 29.4167 316.214 29.9167 316.881 30.25C317.581 30.55 318.397 30.7 319.331 30.7C320.497 30.7 321.397 30.5167 322.031 30.15C322.697 29.75 323.147 29.25 323.381 28.65H332.181C331.647 31.7167 330.281 34 328.081 35.5C325.914 36.9667 322.997 37.7 319.331 37.7ZM319.081 16.8C318.214 16.8 317.447 16.95 316.781 17.25C316.147 17.55 315.647 17.9833 315.281 18.55C314.914 19.1167 314.697 19.8333 314.631 20.7H323.331C323.297 19.8 323.097 19.0667 322.731 18.5C322.364 17.9 321.864 17.4667 321.231 17.2C320.631 16.9333 319.914 16.8 319.081 16.8ZM335.767 37V10.5H345.167V19.75H352.917V10.5H362.317V37H352.917V27.25H345.167V37H335.767ZM366.529 37V10.5H375.829V24L385.079 10.5H393.079V37H383.779V23.5L374.529 37H366.529ZM410.59 37.7C407.824 37.7 405.357 37.2 403.19 36.2C401.057 35.2 399.374 33.7 398.14 31.7C396.94 29.7 396.34 27.1833 396.34 24.15V23.15C396.34 20.1833 396.924 17.7167 398.09 15.75C399.257 13.7833 400.874 12.3 402.94 11.3C405.04 10.3 407.424 9.8 410.09 9.8C414.69 9.8 418.124 10.95 420.39 13.25C422.657 15.5167 423.79 18.85 423.79 23.25V26.15H405.84C405.907 27.1833 406.14 28.05 406.54 28.75C406.94 29.4167 407.474 29.9167 408.14 30.25C408.84 30.55 409.657 30.7 410.59 30.7C411.757 30.7 412.657 30.5167 413.29 30.15C413.957 29.75 414.407 29.25 414.64 28.65H423.44C422.907 31.7167 421.54 34 419.34 35.5C417.174 36.9667 414.257 37.7 410.59 37.7ZM410.34 16.8C409.474 16.8 408.707 16.95 408.04 17.25C407.407 17.55 406.907 17.9833 406.54 18.55C406.174 19.1167 405.957 19.8333 405.89 20.7H414.59C414.557 19.8 414.357 19.0667 413.99 18.5C413.624 17.9 413.124 17.4667 412.49 17.2C411.89 16.9333 411.174 16.8 410.34 16.8Z" fill="black"/>
<path d="M0.773242 43.25H-4.22676C-4.22676 46.0114 -1.98818 48.25 0.773242 48.25L0.773242 43.25ZM0.773242 29.45V24.45C-1.98818 24.45 -4.22676 26.6886 -4.22676 29.45H0.773242ZM3.42324 29.45V34.45C5.09501 34.45 6.65616 33.6145 7.58349 32.2235L3.42324 29.45ZM5.12324 23.6L10.0958 24.1234L10.0958 24.1234L5.12324 23.6ZM5.32324 10.5V5.5C2.56182 5.5 0.323242 7.73857 0.323242 10.5H5.32324ZM28.0732 10.5H33.0732C33.0732 7.73857 30.8347 5.5 28.0732 5.5V10.5ZM28.0732 29.45H23.0732C23.0732 32.2114 25.3118 34.45 28.0732 34.45V29.45ZM30.8232 29.45H35.8232C35.8232 26.6886 33.5847 24.45 30.8232 24.45V29.45ZM30.8232 43.25V48.25C33.5847 48.25 35.8232 46.0114 35.8232 43.25H30.8232ZM23.0732 43.25H18.0732C18.0732 46.0114 20.3118 48.25 23.0732 48.25V43.25ZM23.0732 37H28.0732C28.0732 34.2386 25.8347 32 23.0732 32V37ZM8.57324 37V32C5.81182 32 3.57324 34.2386 3.57324 37H8.57324ZM8.57324 43.25V48.25C11.3347 48.25 13.5732 46.0114 13.5732 43.25H8.57324ZM12.3232 29.45L7.78345 27.3547C7.0689 28.9029 7.19258 30.7085 8.11157 32.1448C9.03055 33.5811 10.6181 34.45 12.3232 34.45L12.3232 29.45ZM18.7232 29.45V34.45C21.4847 34.45 23.7232 32.2114 23.7232 29.45H18.7232ZM18.7232 18.05H23.7232C23.7232 15.2886 21.4847 13.05 18.7232 13.05V18.05ZM13.6232 18.05V13.05C10.8618 13.05 8.62324 15.2886 8.62324 18.05H13.6232ZM13.2732 26L18.2083 26.8034C18.2092 26.7974 18.2102 26.7915 18.2111 26.7856L13.2732 26ZM5.77324 43.25V29.45H-4.22676V43.25H5.77324ZM0.773242 34.45H3.42324V24.45H0.773242V34.45ZM7.58349 32.2235C8.39597 31.0048 8.96131 29.664 9.34321 28.2796L-0.296721 25.6204C-0.44816 26.1693 -0.616151 26.4952 -0.737009 26.6765L7.58349 32.2235ZM9.34321 28.2796C9.69912 26.9895 9.94102 25.5935 10.0958 24.1234L0.150715 23.0766C0.038794 24.1398 -0.119301 24.9772 -0.296721 25.6204L9.34321 28.2796ZM10.0958 24.1234C10.2499 22.6592 10.3232 21.116 10.3232 19.5H0.323242C0.323242 20.8174 0.263253 22.0075 0.150715 23.0766L10.0958 24.1234ZM10.3232 19.5V10.5H0.323242V19.5H10.3232ZM5.32324 15.5H28.0732V5.5H5.32324V15.5ZM23.0732 10.5V29.45H33.0732V10.5H23.0732ZM28.0732 34.45H30.8232V24.45H28.0732V34.45ZM25.8232 29.45V43.25H35.8232V29.45H25.8232ZM30.8232 38.25H23.0732V48.25H30.8232V38.25ZM28.0732 43.25V37H18.0732V43.25H28.0732ZM23.0732 32H8.57324V42H23.0732V32ZM3.57324 37V43.25H13.5732V37H3.57324ZM8.57324 38.25H0.773242V48.25H8.57324V38.25ZM12.3232 34.45H18.7232V24.45H12.3232V34.45ZM23.7232 29.45V18.05H13.7232V29.45H23.7232ZM18.7232 13.05H13.6232V23.05H18.7232V13.05ZM8.62324 18.05V20.5H18.6232V18.05H8.62324ZM8.62324 20.5C8.62324 22.5494 8.51279 24.099 8.33534 25.2144L18.2111 26.7856C18.5004 24.9676 18.6232 22.8506 18.6232 20.5H8.62324ZM8.33821 25.1966C8.14394 26.3899 7.9226 27.0532 7.78345 27.3547L16.863 31.5453C17.5239 30.1135 17.9359 28.4767 18.2083 26.8034L8.33821 25.1966ZM33.8139 37H28.8139C28.8139 39.7614 31.0524 42 33.8139 42V37ZM33.8139 10.5V5.5C31.0524 5.5 28.8139 7.73857 28.8139 10.5H33.8139ZM43.1139 10.5H48.1139C48.1139 7.73857 45.8753 5.5 43.1139 5.5V10.5ZM43.1139 24H38.1139C38.1139 26.1916 39.5411 28.1277 41.6346 28.7762C43.728 29.4246 45.9998 28.6341 47.2385 26.8262L43.1139 24ZM52.3639 10.5V5.5C50.7146 5.5 49.1714 6.31331 48.2392 7.67384L52.3639 10.5ZM60.3639 10.5H65.3639C65.3639 7.73857 63.1253 5.5 60.3639 5.5V10.5ZM60.3639 37V42C63.1253 42 65.3639 39.7614 65.3639 37H60.3639ZM51.0639 37H46.0639C46.0639 39.7614 48.3024 42 51.0639 42V37ZM51.0639 23.5H56.0639C56.0639 21.3084 54.6367 19.3723 52.5432 18.7238C50.4497 18.0754 48.178 18.8659 46.9392 20.6738L51.0639 23.5ZM41.8139 37V42C43.4631 42 45.0063 41.1867 45.9385 39.8262L41.8139 37ZM38.8139 37V10.5H28.8139V37H38.8139ZM33.8139 15.5H43.1139V5.5H33.8139V15.5ZM38.1139 10.5V24H48.1139V10.5H38.1139ZM47.2385 26.8262L56.4885 13.3262L48.2392 7.67384L38.9892 21.1738L47.2385 26.8262ZM52.3639 15.5H60.3639V5.5H52.3639V15.5ZM55.3639 10.5V37H65.3639V10.5H55.3639ZM60.3639 32H51.0639V42H60.3639V32ZM56.0639 37V23.5H46.0639V37H56.0639ZM46.9392 20.6738L37.6892 34.1738L45.9385 39.8262L55.1885 26.3262L46.9392 20.6738ZM41.8139 32H33.8139V42H41.8139V32ZM69.3756 36.45L67.3593 41.0254C67.3902 41.0391 67.4213 41.0524 67.4525 41.0654L69.3756 36.45ZM64.9756 32.75L60.6567 35.2694C60.6696 35.2915 60.6827 35.3136 60.696 35.3356L64.9756 32.75ZM63.4756 27V22C62.1236 22 60.8293 22.5475 59.8877 23.5176C58.9461 24.4877 58.4375 25.7978 58.4778 27.1492L63.4756 27ZM72.3756 27L77.3481 26.4766C77.0802 23.9318 74.9344 22 72.3756 22V27ZM72.8256 28.75L68.2448 30.7541C68.261 30.7911 68.2776 30.8279 68.2947 30.8644L72.8256 28.75ZM74.0256 29.95L71.6861 34.3689C71.7873 34.4225 71.8903 34.4726 71.9949 34.5191L74.0256 29.95ZM79.3256 29.75L76.3256 25.75L76.3256 25.75L79.3256 29.75ZM79.4256 27L76.5194 31.0687C76.5857 31.1161 76.6532 31.1618 76.7218 31.2059L79.4256 27ZM74.2756 26.5H69.2756C69.2756 29.2614 71.5142 31.5 74.2756 31.5V26.5ZM74.2756 20.8V15.8C71.5142 15.8 69.2756 18.0386 69.2756 20.8H74.2756ZM78.7756 20.35L76.0718 16.1441C76.0238 16.1749 75.9764 16.2066 75.9295 16.239L78.7756 20.35ZM78.7756 17.65L75.5459 21.4669C75.6502 21.5552 75.7582 21.6392 75.8694 21.7187L78.7756 17.65ZM73.6256 18L77.0587 21.6351L77.0643 21.6298L73.6256 18ZM72.6256 20.4V25.4C75.262 25.4 77.4455 23.3529 77.6152 20.7219L72.6256 20.4ZM63.7256 20.4L58.7331 20.1264C58.6579 21.4979 59.1503 22.84 60.0946 23.8375C61.0389 24.8349 62.352 25.4 63.7256 25.4V20.4ZM65.5256 14.45L61.4335 11.5768C61.4294 11.5828 61.4252 11.5887 61.4211 11.5947L65.5256 14.45ZM70.1256 10.95L68.3359 6.28127C68.3271 6.28464 68.3183 6.28804 68.3095 6.29146L70.1256 10.95ZM85.9756 11.85L83.1546 15.9782C83.1704 15.989 83.1862 15.9997 83.2021 16.0103L85.9756 11.85ZM87.9256 21.1L83.786 18.2958C83.765 18.3267 83.7444 18.3579 83.7241 18.3894L87.9256 21.1ZM84.8256 23.25L83.452 18.4424C81.2422 19.0737 79.7474 21.1302 79.8287 23.427C79.9101 25.7237 81.5466 27.6693 83.7955 28.1427L84.8256 23.25ZM88.7256 25.45L84.5453 28.1933C84.5587 28.2137 84.5723 28.234 84.586 28.2542L88.7256 25.45ZM88.3256 33.65L92.3379 36.6335C92.3499 36.6174 92.3618 36.6011 92.3736 36.5848L88.3256 33.65ZM84.0756 36.65L82.32 31.9684C82.3107 31.9718 82.3014 31.9754 82.2921 31.9789L84.0756 36.65ZM77.1256 32.7C74.3404 32.7 72.4762 32.3252 71.2987 31.8346L67.4525 41.0654C70.275 42.2414 73.5774 42.7 77.1256 42.7V32.7ZM71.3919 31.8746C70.2207 31.3584 69.6132 30.7571 69.2552 30.1644L60.696 35.3356C62.2713 37.9429 64.5972 39.8082 67.3593 41.0254L71.3919 31.8746ZM69.2945 30.2306C68.8603 29.4863 68.5202 28.4209 68.4734 26.8508L58.4778 27.1492C58.5643 30.0458 59.2242 32.8137 60.6567 35.2694L69.2945 30.2306ZM63.4756 32H72.3756V22H63.4756V32ZM67.4031 27.5234C67.5185 28.6198 67.7872 29.7082 68.2448 30.7541L77.4064 26.7459C77.3973 26.7251 77.366 26.6469 77.3481 26.4766L67.4031 27.5234ZM68.2947 30.8644C69.0602 32.5048 70.3197 33.6455 71.6861 34.3689L76.365 25.5311C76.4644 25.5837 76.6402 25.6936 76.8361 25.8895C77.0376 26.091 77.2205 26.3441 77.3565 26.6356L68.2947 30.8644ZM71.9949 34.5191C73.5253 35.1992 75.1865 35.35 76.5756 35.35V25.35C76.2174 25.35 75.9975 25.3276 75.8879 25.3104C75.7702 25.2919 75.854 25.291 76.0563 25.3809L71.9949 34.5191ZM76.5756 35.35C78.087 35.35 80.4231 35.1769 82.3256 33.75L76.3256 25.75C76.5805 25.5588 76.8022 25.4502 76.942 25.3924C77.0812 25.3348 77.1664 25.3162 77.1723 25.3149C77.1797 25.3133 77.1361 25.3231 77.0294 25.3327C76.924 25.3422 76.7748 25.35 76.5756 25.35V35.35ZM82.3256 33.75C83.6628 32.7471 85.1256 30.9669 85.1256 28.4H75.1256C75.1256 27.7108 75.3222 27.0729 75.6241 26.5635C75.9033 26.0924 76.2057 25.8399 76.3256 25.75L82.3256 33.75ZM85.1256 28.4C85.1256 26.3484 84.25 24.1574 82.1294 22.7941L76.7218 31.2059C76.2491 30.902 75.7892 30.4326 75.4785 29.8111C75.1815 29.2172 75.1256 28.6958 75.1256 28.4H85.1256ZM82.3318 22.9313C80.5353 21.6481 78.4052 21.5 77.0756 21.5V31.5C77.3956 31.5 77.4979 31.5263 77.4475 31.5155C77.4153 31.5087 77.3117 31.4846 77.1593 31.4236C77.0065 31.3625 76.7788 31.2539 76.5194 31.0687L82.3318 22.9313ZM77.0756 21.5H74.2756V31.5H77.0756V21.5ZM79.2756 26.5V20.8H69.2756V26.5H79.2756ZM74.2756 25.8H76.6256V15.8H74.2756V25.8ZM76.6256 25.8C77.8661 25.8 79.8846 25.6636 81.6216 24.461L75.9295 16.239C76.1891 16.0593 76.4178 15.9524 76.5755 15.8907C76.7329 15.8291 76.8444 15.8028 76.8888 15.7935C76.9642 15.7778 76.897 15.8 76.6256 15.8V25.8ZM81.4794 24.5559C83.6 23.1926 84.4756 21.0016 84.4756 18.95H74.4756C74.4756 18.6542 74.5315 18.1328 74.8284 17.5389C75.1392 16.9174 75.5991 16.448 76.0718 16.1441L81.4794 24.5559ZM84.4756 18.95C84.4756 16.6645 83.3465 14.7704 81.6818 13.5813L75.8694 21.7187C75.5833 21.5143 75.1993 21.1546 74.8982 20.5955C74.5903 20.0236 74.4756 19.4398 74.4756 18.95H84.4756ZM82.0053 13.8331C80.1782 12.2871 77.9302 12.1 76.5756 12.1V22.1C76.8216 22.1 76.8326 22.1244 76.6879 22.0882C76.5473 22.053 76.0741 21.9139 75.5459 21.4669L82.0053 13.8331ZM76.5756 12.1C74.6205 12.1 72.1361 12.5236 70.1869 14.3702L77.0643 21.6298C76.7273 21.9491 76.4142 22.0717 76.2971 22.1074C76.1996 22.1371 76.265 22.1 76.5756 22.1V12.1ZM70.1925 14.3649C68.4553 16.0055 67.7624 18.1186 67.636 20.0781L77.6152 20.7219C77.6197 20.6518 77.6233 20.7505 77.541 20.9481C77.4518 21.1622 77.2939 21.4129 77.0587 21.6351L70.1925 14.3649ZM72.6256 15.4H63.7256V25.4H72.6256V15.4ZM68.7181 20.6736C68.8158 18.8899 69.2318 17.8779 69.6301 17.3053L61.4211 11.5947C59.686 14.0888 58.902 17.0434 58.7331 20.1264L68.7181 20.6736ZM69.6177 17.3232C70.0939 16.6449 70.7949 16.0556 71.9416 15.6085L68.3095 6.29146C65.5229 7.37776 63.1573 9.12175 61.4335 11.5768L69.6177 17.3232ZM71.9153 15.6187C73.2296 15.1149 74.9183 14.8 77.0756 14.8V4.8C73.9662 4.8 71.0215 5.25177 68.3359 6.28127L71.9153 15.6187ZM77.0756 14.8C80.5743 14.8 82.3578 15.4337 83.1546 15.9782L88.7965 7.72178C85.5934 5.53296 81.4436 4.8 77.0756 4.8V14.8ZM83.2021 16.0103C83.7239 16.3581 83.9756 16.6808 83.9756 17.65H93.9756C93.9756 13.5525 92.2273 10.0086 88.7491 7.68975L83.2021 16.0103ZM83.9756 17.65C83.9756 17.9328 83.9165 18.1032 83.786 18.2958L92.0652 23.9042C93.3347 22.0302 93.9756 19.9006 93.9756 17.65H83.9756ZM83.7241 18.3894C83.735 18.3725 83.751 18.3517 83.7704 18.3317C83.7897 18.3119 83.8024 18.303 83.8011 18.3039C83.7995 18.305 83.7066 18.3696 83.452 18.4424L86.1992 28.0576C88.5388 27.3892 90.686 26.0443 92.1271 23.8106L83.7241 18.3894ZM83.7955 28.1427C84.3871 28.2673 84.675 28.4019 84.769 28.4549C84.8421 28.4961 84.7018 28.4317 84.5453 28.1933L92.9058 22.7067C91.1792 20.0756 88.3862 18.89 85.8556 18.3573L83.7955 28.1427ZM84.586 28.2542C84.6721 28.3814 84.7756 28.5839 84.7756 29.05H94.7756C94.7756 26.7828 94.1791 24.5853 92.8652 22.6458L84.586 28.2542ZM84.7756 29.05C84.7756 29.788 84.5917 30.2818 84.2775 30.7152L92.3736 36.5848C93.9928 34.3516 94.7756 31.7786 94.7756 29.05H84.7756ZM84.3133 30.6665C84.0397 31.0344 83.495 31.5277 82.32 31.9684L85.8312 41.3316C88.3895 40.3723 90.6782 38.8656 92.3379 36.6335L84.3133 30.6665ZM82.2921 31.9789C81.2155 32.39 79.5551 32.7 77.1256 32.7V42.7C80.2961 42.7 83.269 42.31 85.8591 41.3211L82.2921 31.9789ZM96.1436 36.6L93.734 40.9811L93.734 40.9811L96.1436 36.6ZM93.0936 33.55L97.4959 31.1795L97.4959 31.1795L93.0936 33.55ZM94.4436 23.1L91.1029 19.3798C91.0902 19.3912 91.0775 19.4027 91.0649 19.4142L94.4436 23.1ZM108.644 20.9V25.9C111.405 25.9 113.644 23.6614 113.644 20.9H108.644ZM107.794 17.45L104.485 21.1992C104.528 21.2367 104.571 21.2736 104.615 21.3096L107.794 17.45ZM103.394 17.15L100.69 12.9441C100.642 12.9749 100.594 13.0066 100.548 13.039L103.394 17.15ZM102.644 18.5V23.5C105.191 23.5 107.332 21.5843 107.613 19.0522L102.644 18.5ZM93.5436 18.5L88.5525 18.2005C88.47 19.5761 88.9589 20.9248 89.9037 21.928C90.8485 22.9312 92.1655 23.5 93.5436 23.5V18.5ZM95.0436 14.05L90.9474 11.1827C90.9424 11.1898 90.9375 11.1968 90.9326 11.2039L95.0436 14.05ZM99.0936 10.95L101.01 15.568C101.025 15.5621 101.039 15.5561 101.053 15.5501L99.0936 10.95ZM112.144 10.9L110.287 15.5424C110.32 15.5558 110.354 15.5689 110.388 15.5816L112.144 10.9ZM116.494 14.35L112.293 17.0626C112.302 17.0761 112.311 17.0896 112.32 17.103L116.494 14.35ZM118.144 33.95L113.153 34.2619L113.154 34.2719L118.144 33.95ZM118.494 37V42C119.963 42 121.359 41.3533 122.309 40.2319C123.259 39.1104 123.667 37.6278 123.426 36.178L118.494 37ZM109.544 37L104.655 38.0477C105.149 40.353 107.186 42 109.544 42V37ZM109.294 35.65L114.235 34.8897L114.235 34.8897L109.294 35.65ZM109.194 33.95H114.194C114.194 31.7535 112.76 29.8142 110.66 29.1699C108.56 28.5256 106.286 29.3272 105.054 31.1458L109.194 33.95ZM106.644 30.6L108.784 35.1187C108.847 35.0886 108.91 35.0573 108.972 35.0246L106.644 30.6ZM108.094 29.2L103.766 26.6948C103.752 26.7203 103.737 26.746 103.723 26.7718L108.094 29.2ZM108.644 26.2H113.644C113.644 23.4386 111.405 21.2 108.644 21.2V26.2ZM102.244 26.85L98.8413 23.186C98.7961 23.228 98.7517 23.2708 98.708 23.3145L102.244 26.85ZM102.244 30.4L98.5796 33.8023C98.6636 33.8927 98.7509 33.98 98.8413 34.064L102.244 30.4ZM100.994 32.7C99.7299 32.7 98.9865 32.4573 98.5531 32.2189L93.734 40.9811C95.9673 42.2094 98.4572 42.7 100.994 42.7V32.7ZM98.5531 32.2189C98.0366 31.9348 97.7246 31.6043 97.4959 31.1795L88.6912 35.9205C89.8625 38.0957 91.5839 39.7985 93.734 40.9811L98.5531 32.2189ZM97.4959 31.1795C97.2122 30.6526 97.0436 30.0413 97.0436 29.25H87.0436C87.0436 31.592 87.5749 33.8474 88.6912 35.9205L97.4959 31.1795ZM97.0436 29.25C97.0436 27.6949 97.4717 27.107 97.8222 26.7858L91.0649 19.4142C88.2154 22.0263 87.0436 25.5384 87.0436 29.25H97.0436ZM97.7842 26.8202C98.1102 26.5275 99.1768 25.9 101.994 25.9V15.9C98.0103 15.9 94.0436 16.7391 91.1029 19.3798L97.7842 26.8202ZM101.994 25.9H108.644V15.9H101.994V25.9ZM113.644 20.9V20H103.644V20.9H113.644ZM113.644 20C113.644 18.2599 113.283 15.4936 110.972 13.5904L104.615 21.3096C104.028 20.826 103.777 20.2879 103.688 20.0186C103.609 19.7822 103.644 19.7334 103.644 20H113.644ZM111.102 13.7008C109.389 12.19 107.329 11.7 105.494 11.7V21.7C105.552 21.7 105.449 21.7081 105.243 21.6411C105.023 21.5691 104.747 21.4301 104.485 21.1992L111.102 13.7008ZM105.494 11.7C104.185 11.7 102.343 11.8813 100.69 12.9441L106.097 21.3559C105.701 21.6107 105.392 21.6852 105.316 21.7015C105.236 21.7186 105.279 21.7 105.494 21.7V11.7ZM100.548 13.039C98.7454 14.2866 97.8747 16.1425 97.6741 17.9478L107.613 19.0522C107.586 19.2988 107.499 19.6951 107.252 20.1407C106.995 20.6025 106.638 20.9852 106.24 21.261L100.548 13.039ZM102.644 13.5H93.5436V23.5H102.644V13.5ZM98.5346 18.7995C98.583 17.9928 98.805 17.4009 99.1545 16.896L90.9326 11.2039C89.4821 13.2991 88.7041 15.6738 88.5525 18.2005L98.5346 18.7995ZM99.1397 16.9173C99.4382 16.4909 99.9654 16.0017 101.01 15.568L97.1767 6.33204C94.6884 7.36492 92.5156 8.94245 90.9474 11.1827L99.1397 16.9173ZM101.053 15.5501C102.059 15.1216 103.564 14.8 105.744 14.8V4.8C102.657 4.8 99.7282 5.24505 97.1342 6.34988L101.053 15.5501ZM105.744 14.8C107.684 14.8 109.164 15.0932 110.287 15.5424L114.001 6.25762C111.457 5.24014 108.67 4.8 105.744 4.8V14.8ZM110.388 15.5816C111.3 15.9235 111.871 16.4083 112.293 17.0626L120.694 11.6374C119.05 9.09166 116.721 7.27646 113.899 6.21835L110.388 15.5816ZM112.32 17.103C112.626 17.5676 113.044 18.6199 113.044 20.75H123.044C123.044 17.4801 122.428 14.2657 120.667 11.597L112.32 17.103ZM113.044 20.75V30.25H123.044V20.75H113.044ZM113.044 30.25C113.044 31.7242 113.079 33.0654 113.153 34.2619L123.134 33.6381C123.075 32.7013 123.044 31.5758 123.044 30.25H113.044ZM113.154 34.2719C113.231 35.4692 113.367 36.6529 113.562 37.822L123.426 36.178C123.287 35.3471 123.189 34.4974 123.133 33.6281L113.154 34.2719ZM118.494 32H109.544V42H118.494V32ZM114.433 35.9523C114.351 35.5727 114.286 35.2188 114.235 34.8897L104.352 36.4103C104.434 36.9479 104.536 37.494 104.655 38.0477L114.433 35.9523ZM114.235 34.8897C114.223 34.8107 114.194 34.5264 114.194 33.95H104.194C104.194 34.7736 104.231 35.6226 104.352 36.4103L114.235 34.8897ZM105.054 31.1458C104.823 31.4862 104.434 31.8883 103.738 32.3023L108.849 40.8977C110.619 39.845 112.164 38.4805 113.333 36.7542L105.054 31.1458ZM103.738 32.3023C103.612 32.3774 102.884 32.7 100.994 32.7V42.7C103.703 42.7 106.509 42.2892 108.849 40.8977L103.738 32.3023ZM104.394 36.05C105.829 36.05 107.342 35.8015 108.784 35.1187L104.503 26.0813C104.588 26.0412 104.636 26.0325 104.625 26.0346C104.613 26.0372 104.54 26.05 104.394 26.05V36.05ZM108.972 35.0246C110.427 34.2589 111.638 33.1155 112.464 31.6282L103.723 26.7718C103.791 26.6494 103.887 26.5202 104.008 26.403C104.128 26.287 104.24 26.2147 104.315 26.1754L108.972 35.0246ZM112.421 31.7052C113.286 30.2098 113.644 28.5889 113.644 27H103.644C103.644 27.0491 103.638 27.0304 103.655 26.9623C103.673 26.8908 103.708 26.7956 103.766 26.6948L112.421 31.7052ZM113.644 27V26.2H103.644V27H113.644ZM108.644 21.2H104.244V31.2H108.644V21.2ZM104.244 21.2C102.577 21.2 100.523 21.6242 98.8413 23.186L105.646 30.514C104.897 31.2091 104.177 31.2 104.244 31.2V21.2ZM98.708 23.3145C97.25 24.7725 96.5936 26.6357 96.5936 28.5H106.594C106.594 28.7143 106.557 29.0417 106.408 29.4201C106.256 29.8069 106.029 30.1354 105.779 30.3855L98.708 23.3145ZM96.5936 28.5C96.5936 30.2249 97.0827 32.1902 98.5796 33.8023L105.908 26.9977C106.192 27.3038 106.38 27.645 106.487 27.9566C106.588 28.2512 106.594 28.4537 106.594 28.5H96.5936ZM98.8413 34.064C100.612 35.7082 102.801 36.05 104.394 36.05V26.05C104.266 26.05 104.354 26.0336 104.578 26.1014C104.821 26.1749 105.231 26.3512 105.646 26.736L98.8413 34.064ZM121.997 37H116.997C116.997 39.7614 119.236 42 121.997 42V37ZM121.997 10.5V5.5C119.236 5.5 116.997 7.73857 116.997 10.5H121.997ZM131.297 10.5H136.297C136.297 7.73857 134.059 5.5 131.297 5.5V10.5ZM131.297 24H126.297C126.297 26.1916 127.725 28.1277 129.818 28.7762C131.912 29.4246 134.183 28.6341 135.422 26.8262L131.297 24ZM140.547 10.5V5.5C138.898 5.5 137.355 6.31331 136.423 7.67384L140.547 10.5ZM148.547 10.5H153.547C153.547 7.73857 151.309 5.5 148.547 5.5V10.5ZM148.547 37V42C151.309 42 153.547 39.7614 153.547 37H148.547ZM139.247 37H134.247C134.247 39.7614 136.486 42 139.247 42V37ZM139.247 23.5H144.247C144.247 21.3084 142.82 19.3723 140.727 18.7238C138.633 18.0754 136.362 18.8659 135.123 20.6738L139.247 23.5ZM129.997 37V42C131.647 42 133.19 41.1867 134.122 39.8262L129.997 37ZM127.697 5.8L124.381 9.54173C124.395 9.55405 124.409 9.56629 124.423 9.57845L127.697 5.8ZM125.497 0.249999V-4.75C122.736 -4.75 120.497 -2.51142 120.497 0.249999H125.497ZM133.147 0.249999H138.147C138.147 -2.51142 135.909 -4.75 133.147 -4.75V0.249999ZM133.647 2.45L129.806 5.65092C129.857 5.71137 129.909 5.77062 129.962 5.82862L133.647 2.45ZM136.797 2.45L133.112 -0.928627C133.059 -0.870623 133.007 -0.811373 132.956 -0.750924L136.797 2.45ZM137.347 0.249999V-4.75C134.586 -4.75 132.347 -2.51142 132.347 0.249999H137.347ZM144.997 0.249999H149.997C149.997 -2.51142 147.759 -4.75 144.997 -4.75V0.249999ZM142.747 5.8L139.473 2.02155C139.459 2.03371 139.445 2.04595 139.431 2.05826L142.747 5.8ZM126.997 37V10.5H116.997V37H126.997ZM121.997 15.5H131.297V5.5H121.997V15.5ZM126.297 10.5V24H136.297V10.5H126.297ZM135.422 26.8262L144.672 13.3262L136.423 7.67384L127.173 21.1738L135.422 26.8262ZM140.547 15.5H148.547V5.5H140.547V15.5ZM143.547 10.5V37H153.547V10.5H143.547ZM148.547 32H139.247V42H148.547V32ZM144.247 37V23.5H134.247V37H144.247ZM135.123 20.6738L125.873 34.1738L134.122 39.8262L143.372 26.3262L135.123 20.6738ZM129.997 32H121.997V42H129.997V32ZM135.247 2.75C132.073 2.75 131.082 2.11645 130.972 2.02155L124.423 9.57845C127.313 12.0835 131.356 12.75 135.247 12.75V2.75ZM131.014 2.05827C130.854 1.91613 130.497 1.56776 130.497 0.249999H120.497C120.497 3.73224 121.608 7.08386 124.381 9.54173L131.014 2.05827ZM125.497 5.25H133.147V-4.75H125.497V5.25ZM128.147 0.249999C128.147 1.46007 128.259 3.79457 129.806 5.65092L137.489 -0.750928C137.754 -0.432621 137.912 -0.137379 138.003 0.0692966C138.094 0.274978 138.133 0.426706 138.148 0.491894C138.174 0.604783 138.147 0.551942 138.147 0.249999H128.147ZM129.962 5.82862C131.532 7.54151 133.577 8.05 135.247 8.05V-1.95C135.364 -1.95 135.671 -1.93419 136.078 -1.78165C136.511 -1.61943 136.958 -1.33782 137.333 -0.928623L129.962 5.82862ZM135.247 8.05C136.889 8.05 139.056 7.5506 140.639 5.65092L132.956 -0.750924C133.368 -1.24505 133.874 -1.5766 134.355 -1.76284C134.802 -1.93581 135.136 -1.95 135.247 -1.95V8.05ZM140.483 5.82862C142.204 3.95131 142.347 1.52295 142.347 0.249999H132.347C132.347 0.527503 132.32 0.542355 132.359 0.387322C132.394 0.24691 132.555 -0.321118 133.112 -0.928627L140.483 5.82862ZM137.347 5.25H144.997V-4.75H137.347V5.25ZM139.997 0.249999C139.997 1.53136 139.649 1.86872 139.473 2.02155L146.022 9.57844C148.846 7.13128 149.997 3.76864 149.997 0.249999H139.997ZM139.431 2.05826C139.445 2.04599 139.234 2.23615 138.514 2.42339C137.794 2.61058 136.733 2.75 135.247 2.75V12.75C139.123 12.75 143.189 12.0904 146.064 9.54174L139.431 2.05826ZM152.759 37H147.759C147.759 39.7614 149.998 42 152.759 42V37ZM152.759 10.5V5.5C149.998 5.5 147.759 7.73857 147.759 10.5H152.759ZM162.159 10.5H167.159C167.159 7.73857 164.921 5.5 162.159 5.5V10.5ZM162.159 19.75H157.159C157.159 22.5114 159.398 24.75 162.159 24.75V19.75ZM169.909 19.75V24.75C172.671 24.75 174.909 22.5114 174.909 19.75H169.909ZM169.909 10.5V5.5C167.148 5.5 164.909 7.73857 164.909 10.5H169.909ZM179.309 10.5H184.309C184.309 7.73857 182.071 5.5 179.309 5.5V10.5ZM179.309 37V42C182.071 42 184.309 39.7614 184.309 37H179.309ZM169.909 37H164.909C164.909 39.7614 167.148 42 169.909 42V37ZM169.909 27.25H174.909C174.909 24.4886 172.671 22.25 169.909 22.25V27.25ZM162.159 27.25V22.25C159.398 22.25 157.159 24.4886 157.159 27.25H162.159ZM162.159 37V42C164.921 42 167.159 39.7614 167.159 37H162.159ZM157.759 37V10.5H147.759V37H157.759ZM152.759 15.5H162.159V5.5H152.759V15.5ZM157.159 10.5V19.75H167.159V10.5H157.159ZM162.159 24.75H169.909V14.75H162.159V24.75ZM174.909 19.75V10.5H164.909V19.75H174.909ZM169.909 15.5H179.309V5.5H169.909V15.5ZM174.309 10.5V37H184.309V10.5H174.309ZM179.309 32H169.909V42H179.309V32ZM174.909 37V27.25H164.909V37H174.909ZM169.909 22.25H162.159V32.25H169.909V22.25ZM157.159 27.25V37H167.159V27.25H157.159ZM162.159 32H152.759V42H162.159V32ZM182.571 27.5H177.571C177.571 30.2614 179.809 32.5 182.571 32.5V27.5ZM182.571 18.5V13.5C179.809 13.5 177.571 15.7386 177.571 18.5H182.571ZM199.271 18.5H204.271C204.271 15.7386 202.032 13.5 199.271 13.5V18.5ZM199.271 27.5V32.5C202.032 32.5 204.271 30.2614 204.271 27.5H199.271ZM187.571 27.5V18.5H177.571V27.5H187.571ZM182.571 23.5H199.271V13.5H182.571V23.5ZM194.271 18.5V27.5H204.271V18.5H194.271ZM199.271 22.5H182.571V32.5H199.271V22.5ZM202.515 47H197.515C197.515 49.7614 199.754 52 202.515 52V47ZM202.515 10.5V5.5C199.754 5.5 197.515 7.73857 197.515 10.5H202.515ZM211.215 10.5H216.215C216.215 7.73857 213.976 5.5 211.215 5.5V10.5ZM211.215 13.8H206.215C206.215 16.0761 207.752 18.0649 209.955 18.6386C212.157 19.2122 214.469 18.226 215.58 16.2391L211.215 13.8ZM214.065 10.95L211.525 6.64317C211.509 6.65285 211.492 6.66263 211.476 6.6725L214.065 10.95ZM227.365 13.15L223.557 16.3899C223.566 16.4008 223.575 16.4117 223.585 16.4225L227.365 13.15ZM228.865 31.75L233.396 33.8644C233.4 33.8549 233.405 33.8454 233.409 33.8358L228.865 31.75ZM224.965 36.25L227.512 40.5529C227.52 40.5478 227.529 40.5426 227.538 40.5375L224.965 36.25ZM215.115 36.75L212.925 41.2449L212.925 41.2449L215.115 36.75ZM211.915 33.95L216.058 31.1507C214.828 29.3298 212.553 28.5257 210.451 29.1691C208.35 29.8124 206.915 31.7524 206.915 33.95H211.915ZM211.915 47V52C214.676 52 216.915 49.7614 216.915 47H211.915ZM219.415 28.65L223.145 31.9801C223.164 31.9585 223.183 31.9367 223.202 31.9147L219.415 28.65ZM219.465 18.8L215.728 22.1218L215.728 22.1218L219.465 18.8ZM212.515 19.7L216.948 22.0128L216.948 22.0128L212.515 19.7ZM212.515 27.7L208.007 29.8637C208.043 29.9371 208.08 30.0097 208.119 30.0814L212.515 27.7ZM214.215 29.5L211.734 33.8412C211.787 33.8715 211.841 33.9008 211.895 33.9292L214.215 29.5ZM207.515 47V10.5H197.515V47H207.515ZM202.515 15.5H211.215V5.5H202.515V15.5ZM206.215 10.5V13.8H216.215V10.5H206.215ZM215.58 16.2391C215.734 15.963 216.023 15.6095 216.654 15.2275L211.476 6.6725C209.574 7.82382 207.963 9.3703 206.85 11.3609L215.58 16.2391ZM216.605 15.2568C216.852 15.1112 217.625 14.8 219.365 14.8V4.8C216.638 4.8 213.878 5.25548 211.525 6.64317L216.605 15.2568ZM219.365 14.8C221.61 14.8 222.773 15.4686 223.557 16.3899L231.173 9.91011C228.157 6.36472 223.987 4.8 219.365 4.8V14.8ZM223.585 16.4225C224.419 17.3867 225.265 19.3361 225.265 23.15H235.265C235.265 18.0972 234.177 13.38 231.145 9.8775L223.585 16.4225ZM225.265 23.15V24.15H235.265V23.15H225.265ZM225.265 24.15C225.265 26.7055 224.867 28.4743 224.321 29.6642L233.409 33.8358C234.73 30.959 235.265 27.6612 235.265 24.15H225.265ZM224.334 29.6356C223.763 30.8587 223.092 31.5429 222.393 31.9625L227.538 40.5375C230.171 38.9571 232.1 36.6413 233.396 33.8644L224.334 29.6356ZM222.418 31.9471C221.636 32.41 220.667 32.7 219.365 32.7V42.7C222.263 42.7 225.027 42.0234 227.512 40.5529L222.418 31.9471ZM219.365 32.7C218.544 32.7 217.882 32.5361 217.305 32.2551L212.925 41.2449C214.948 42.2306 217.12 42.7 219.365 42.7V32.7ZM217.305 32.2551C216.817 32.0175 216.415 31.6796 216.058 31.1507L207.772 36.7493C209.081 38.6871 210.813 40.2159 212.925 41.2449L217.305 32.2551ZM206.915 33.95V47H216.915V33.95H206.915ZM211.915 42H202.515V52H211.915V42ZM216.465 35.05C219.18 35.05 221.473 33.8523 223.145 31.9801L215.685 25.3199C215.647 25.3629 215.715 25.2751 215.909 25.1829C216.115 25.0851 216.322 25.05 216.465 25.05V35.05ZM223.202 31.9147C225.166 29.6363 225.665 26.7108 225.665 24.15H215.665C215.665 24.8442 215.592 25.257 215.535 25.4618C215.481 25.6546 215.469 25.5693 215.628 25.3853L223.202 31.9147ZM225.665 24.15V23.15H215.665V24.15H225.665ZM225.665 23.15C225.665 20.6791 225.206 17.7325 223.202 15.4782L215.728 22.1218C215.508 21.8749 215.499 21.7258 215.545 21.8921C215.594 22.0686 215.665 22.4613 215.665 23.15H225.665ZM223.202 15.4782C221.457 13.515 219.099 12.45 216.465 12.45V22.45C216.425 22.45 216.267 22.4388 216.063 22.3471C215.86 22.2556 215.75 22.1464 215.728 22.1218L223.202 15.4782ZM216.465 12.45C214.869 12.45 213.3 12.8087 211.845 13.5708L216.485 22.4292C216.479 22.4324 216.47 22.4367 216.458 22.441C216.447 22.4454 216.436 22.4484 216.428 22.4504C216.42 22.4523 216.417 22.4524 216.422 22.4519C216.426 22.4513 216.44 22.45 216.465 22.45V12.45ZM211.845 13.5708C210.156 14.4556 208.907 15.8054 208.082 17.3872L216.948 22.0128C216.945 22.0177 216.908 22.0875 216.815 22.1824C216.721 22.2802 216.605 22.3664 216.485 22.4292L211.845 13.5708ZM208.082 17.3872C207.203 19.073 206.915 20.8965 206.915 22.6H216.915C216.915 21.9702 217.028 21.8603 216.948 22.0128L208.082 17.3872ZM206.915 22.6V24.65H216.915V22.6H206.915ZM206.915 24.65C206.915 26.3841 207.202 28.185 208.007 29.8637L217.023 25.5363C217.028 25.5484 216.915 25.3159 216.915 24.65H206.915ZM208.119 30.0814C208.937 31.5924 210.125 32.9218 211.734 33.8412L216.696 25.1588C216.783 25.2088 216.854 25.2676 216.9 25.3169C216.944 25.3633 216.942 25.375 216.911 25.3186L208.119 30.0814ZM211.895 33.9292C213.32 34.6756 214.867 35.05 216.465 35.05V25.05C216.456 25.05 216.456 25.0495 216.462 25.0502C216.468 25.051 216.478 25.0525 216.49 25.0555C216.502 25.0585 216.513 25.0621 216.523 25.0656C216.532 25.0692 216.536 25.0715 216.535 25.0708L211.895 33.9292ZM239.421 36.2L237.299 40.7273C237.308 40.7315 237.317 40.7357 237.326 40.7398L239.421 36.2ZM234.371 31.7L230.083 34.2725C230.094 34.2899 230.104 34.3072 230.115 34.3244L234.371 31.7ZM234.321 15.75L238.621 18.301L238.621 18.301L234.321 15.75ZM239.171 11.3L237.021 6.7857C237.012 6.79017 237.002 6.79467 236.993 6.7992L239.171 11.3ZM256.621 13.25L253.06 16.7596C253.068 16.7683 253.077 16.7769 253.085 16.7855L256.621 13.25ZM260.021 26.15V31.15C262.782 31.15 265.021 28.9114 265.021 26.15H260.021ZM242.071 26.15V21.15C240.689 21.15 239.369 21.722 238.423 22.7302C237.478 23.7383 236.992 25.0928 237.081 26.4719L242.071 26.15ZM242.771 28.75L238.43 31.2307C238.447 31.2615 238.465 31.2921 238.483 31.3225L242.771 28.75ZM244.371 30.25L242.135 34.7221C242.222 34.7659 242.311 34.8071 242.401 34.8457L244.371 30.25ZM249.521 30.15L252.026 34.4771C252.049 34.4641 252.071 34.4509 252.093 34.4375L249.521 30.15ZM250.871 28.65V23.65C248.809 23.65 246.958 24.9159 246.211 26.8378L250.871 28.65ZM259.671 28.65L264.597 29.5067C264.85 28.0526 264.447 26.5611 263.497 25.4316C262.547 24.3021 261.147 23.65 259.671 23.65V28.65ZM255.571 35.5L258.374 39.6405C258.378 39.6374 258.383 39.6343 258.388 39.6311L255.571 35.5ZM244.271 17.25L242.219 12.6904C242.189 12.7037 242.16 12.7174 242.13 12.7313L244.271 17.25ZM242.771 18.55L246.969 21.2663L246.969 21.2663L242.771 18.55ZM242.121 20.7L237.136 20.3165C237.029 21.7051 237.506 23.0754 238.452 24.0972C239.399 25.1191 240.728 25.7 242.121 25.7V20.7ZM250.821 20.7V25.7C252.179 25.7 253.479 25.1475 254.421 24.1695C255.364 23.1915 255.868 21.8722 255.817 20.5149L250.821 20.7ZM250.221 18.5L245.954 21.1073C245.977 21.1439 246 21.1802 246.023 21.2163L250.221 18.5ZM248.721 17.2L246.69 21.7691C246.72 21.7824 246.75 21.7954 246.781 21.8082L248.721 17.2ZM246.821 32.7C244.663 32.7 242.929 32.3124 241.516 31.6602L237.326 40.7398C240.246 42.0876 243.445 42.7 246.821 42.7V32.7ZM241.543 31.6727C240.288 31.0846 239.348 30.2447 238.627 29.0756L230.115 34.3244C231.861 37.1553 234.287 39.3154 237.299 40.7273L241.543 31.6727ZM238.658 29.1275C238.045 28.1051 237.571 26.5436 237.571 24.15H227.571C227.571 27.8231 228.297 31.2949 230.083 34.2725L238.658 29.1275ZM237.571 24.15V23.15H227.571V24.15H237.571ZM237.571 23.15C237.571 20.8199 238.03 19.2983 238.621 18.301L230.021 13.199C228.279 16.1351 227.571 19.5468 227.571 23.15H237.571ZM238.621 18.301C239.285 17.1821 240.162 16.3751 241.349 15.8008L236.993 6.7992C234.047 8.22488 231.69 10.3845 230.021 13.199L238.621 18.301ZM241.321 15.8143C242.657 15.1778 244.289 14.8 246.321 14.8V4.8C243.019 4.8 239.885 5.42217 237.021 6.7857L241.321 15.8143ZM246.321 14.8C250.156 14.8 252.071 15.7564 253.06 16.7596L260.182 9.74037C256.637 6.14358 251.685 4.8 246.321 4.8V14.8ZM253.085 16.7855C254.109 17.8093 255.021 19.6709 255.021 23.25H265.021C265.021 18.0291 263.666 13.2241 260.156 9.71446L253.085 16.7855ZM255.021 23.25V26.15H265.021V23.25H255.021ZM260.021 21.15H242.071V31.15H260.021V21.15ZM237.081 26.4719C237.183 28.056 237.56 29.7094 238.43 31.2307L247.112 26.2693C247.181 26.3906 247.092 26.3107 247.061 25.8281L237.081 26.4719ZM238.483 31.3225C239.351 32.7676 240.58 33.9447 242.135 34.7221L246.607 25.7779C246.697 25.8231 246.798 25.8903 246.891 25.9773C246.982 26.0633 247.035 26.1392 247.058 26.1775L238.483 31.3225ZM242.401 34.8457C243.847 35.4654 245.359 35.7 246.821 35.7V25.7C246.416 25.7 246.295 25.6346 246.34 25.6543L242.401 34.8457ZM246.821 35.7C248.395 35.7 250.307 35.4726 252.026 34.4771L247.016 25.8229C247.145 25.748 247.247 25.7058 247.308 25.6842C247.368 25.6628 247.393 25.6591 247.373 25.6631C247.353 25.6671 247.299 25.6768 247.204 25.6852C247.109 25.6936 246.983 25.7 246.821 25.7V35.7ZM252.093 34.4375C253.508 33.5889 254.817 32.2974 255.531 30.4622L246.211 26.8378C246.323 26.5489 246.481 26.3093 246.642 26.1302C246.796 25.9586 246.921 25.8792 246.948 25.8625L252.093 34.4375ZM250.871 33.65H259.671V23.65H250.871V33.65ZM254.745 27.7933C254.401 29.7722 253.648 30.7594 252.754 31.3689L258.388 39.6311C261.894 37.2406 263.874 33.6611 264.597 29.5067L254.745 27.7933ZM252.768 31.3595C251.7 32.0826 249.875 32.7 246.821 32.7V42.7C251.1 42.7 255.109 41.8507 258.374 39.6405L252.768 31.3595ZM246.571 11.8C245.126 11.8 243.639 12.0513 242.219 12.6904L246.323 21.8096C246.236 21.8487 246.282 21.8 246.571 21.8V11.8ZM242.13 12.7313C240.691 13.4132 239.465 14.4559 238.573 15.8337L246.969 21.2663C246.901 21.3707 246.809 21.4801 246.696 21.5784C246.583 21.6759 246.48 21.736 246.411 21.7687L242.13 12.7313ZM238.573 15.8337C237.642 17.2731 237.248 18.8516 237.136 20.3165L247.106 21.0835C247.127 20.815 247.167 20.9602 246.969 21.2663L238.573 15.8337ZM242.121 25.7H250.821V15.7H242.121V25.7ZM255.817 20.5149C255.762 19.0064 255.412 17.3191 254.419 15.7837L246.023 21.2163C245.894 21.017 245.841 20.8585 245.822 20.7906C245.805 20.7279 245.819 20.7492 245.824 20.8851L255.817 20.5149ZM254.487 15.8927C253.588 14.4207 252.284 13.2752 250.661 12.5918L246.781 21.8082C246.63 21.745 246.46 21.6451 246.296 21.5034C246.134 21.3625 246.023 21.2187 245.954 21.1073L254.487 15.8927ZM250.752 12.6309C249.365 12.0146 247.922 11.8 246.571 11.8V21.8C246.723 21.8 246.801 21.8124 246.819 21.8156C246.834 21.8186 246.784 21.8108 246.69 21.7691L250.752 12.6309ZM263.257 37H258.257C258.257 39.7614 260.496 42 263.257 42V37ZM263.257 10.5V5.5C260.496 5.5 258.257 7.73857 258.257 10.5H263.257ZM272.657 10.5H277.657C277.657 7.73857 275.419 5.5 272.657 5.5V10.5ZM272.657 29.45H267.657C267.657 32.2114 269.896 34.45 272.657 34.45V29.45ZM277.957 29.45V34.45C280.719 34.45 282.957 32.2114 282.957 29.45H277.957ZM277.957 10.5V5.5C275.196 5.5 272.957 7.73857 272.957 10.5H277.957ZM287.107 10.5H292.107C292.107 7.73857 289.869 5.5 287.107 5.5V10.5ZM287.107 29.45H282.107C282.107 32.2114 284.346 34.45 287.107 34.45V29.45ZM292.407 29.45V34.45C295.169 34.45 297.407 32.2114 297.407 29.45H292.407ZM292.407 10.5V5.5C289.646 5.5 287.407 7.73857 287.407 10.5H292.407ZM301.757 10.5H306.757C306.757 7.73857 304.519 5.5 301.757 5.5V10.5ZM301.757 37V42C304.519 42 306.757 39.7614 306.757 37H301.757ZM268.257 37V10.5H258.257V37H268.257ZM263.257 15.5H272.657V5.5H263.257V15.5ZM267.657 10.5V29.45H277.657V10.5H267.657ZM272.657 34.45H277.957V24.45H272.657V34.45ZM282.957 29.45V10.5H272.957V29.45H282.957ZM277.957 15.5H287.107V5.5H277.957V15.5ZM282.107 10.5V29.45H292.107V10.5H282.107ZM287.107 34.45H292.407V24.45H287.107V34.45ZM297.407 29.45V10.5H287.407V29.45H297.407ZM292.407 15.5H301.757V5.5H292.407V15.5ZM296.757 10.5V37H306.757V10.5H296.757ZM301.757 32H263.257V42H301.757V32ZM311.931 36.2L309.808 40.7273C309.817 40.7315 309.826 40.7357 309.835 40.7398L311.931 36.2ZM306.881 31.7L302.593 34.2725C302.604 34.2899 302.614 34.3072 302.625 34.3244L306.881 31.7ZM306.831 15.75L311.131 18.301L311.131 18.301L306.831 15.75ZM311.681 11.3L309.531 6.7857C309.522 6.79017 309.512 6.79467 309.503 6.7992L311.681 11.3ZM329.131 13.25L325.569 16.7596C325.578 16.7683 325.587 16.7769 325.595 16.7855L329.131 13.25ZM332.531 26.15V31.15C335.292 31.15 337.531 28.9114 337.531 26.15H332.531ZM314.581 26.15V21.15C313.199 21.15 311.878 21.722 310.933 22.7302C309.988 23.7383 309.502 25.0928 309.591 26.4719L314.581 26.15ZM315.281 28.75L310.939 31.2307C310.957 31.2615 310.975 31.2921 310.993 31.3225L315.281 28.75ZM316.881 30.25L314.645 34.7221C314.732 34.7659 314.821 34.8071 314.911 34.8457L316.881 30.25ZM322.031 30.15L324.536 34.4771C324.558 34.4641 324.581 34.4509 324.603 34.4375L322.031 30.15ZM323.381 28.65V23.65C321.319 23.65 319.468 24.9159 318.721 26.8378L323.381 28.65ZM332.181 28.65L337.107 29.5067C337.36 28.0526 336.957 26.5611 336.007 25.4316C335.057 24.3021 333.657 23.65 332.181 23.65V28.65ZM328.081 35.5L330.883 39.6405C330.888 39.6374 330.893 39.6343 330.897 39.6311L328.081 35.5ZM316.781 17.25L314.729 12.6904C314.699 12.7037 314.67 12.7174 314.64 12.7313L316.781 17.25ZM315.281 18.55L319.479 21.2663L319.479 21.2663L315.281 18.55ZM314.631 20.7L309.645 20.3165C309.539 21.7051 310.016 23.0754 310.962 24.0972C311.908 25.1191 313.238 25.7 314.631 25.7V20.7ZM323.331 20.7V25.7C324.689 25.7 325.989 25.1475 326.931 24.1695C327.873 23.1915 328.378 21.8722 328.327 20.5149L323.331 20.7ZM322.731 18.5L318.464 21.1073C318.487 21.1439 318.509 21.1802 318.533 21.2163L322.731 18.5ZM321.231 17.2L319.2 21.7691C319.23 21.7824 319.26 21.7954 319.29 21.8082L321.231 17.2ZM319.331 32.7C317.173 32.7 315.439 32.3124 314.026 31.6602L309.835 40.7398C312.756 42.0876 315.955 42.7 319.331 42.7V32.7ZM314.053 31.6727C312.798 31.0846 311.858 30.2447 311.137 29.0756L302.625 34.3244C304.37 37.1553 306.796 39.3154 309.808 40.7273L314.053 31.6727ZM311.168 29.1275C310.555 28.1051 310.081 26.5436 310.081 24.15H300.081C300.081 27.8231 300.807 31.2949 302.593 34.2725L311.168 29.1275ZM310.081 24.15V23.15H300.081V24.15H310.081ZM310.081 23.15C310.081 20.8199 310.539 19.2983 311.131 18.301L302.53 13.199C300.789 16.1351 300.081 19.5468 300.081 23.15H310.081ZM311.131 18.301C311.795 17.1821 312.672 16.3751 313.858 15.8008L309.503 6.7992C306.556 8.22488 304.2 10.3845 302.53 13.199L311.131 18.301ZM313.83 15.8143C315.167 15.1778 316.799 14.8 318.831 14.8V4.8C315.529 4.8 312.394 5.42217 309.531 6.7857L313.83 15.8143ZM318.831 14.8C322.666 14.8 324.581 15.7564 325.569 16.7596L332.692 9.74037C329.147 6.14358 324.195 4.8 318.831 4.8V14.8ZM325.595 16.7855C326.619 17.8093 327.531 19.6709 327.531 23.25H337.531C337.531 18.0291 336.176 13.2241 332.666 9.71446L325.595 16.7855ZM327.531 23.25V26.15H337.531V23.25H327.531ZM332.531 21.15H314.581V31.15H332.531V21.15ZM309.591 26.4719C309.693 28.056 310.07 29.7094 310.939 31.2307L319.622 26.2693C319.691 26.3906 319.601 26.3107 319.57 25.8281L309.591 26.4719ZM310.993 31.3225C311.86 32.7676 313.09 33.9447 314.645 34.7221L319.117 25.7779C319.207 25.8231 319.308 25.8903 319.4 25.9773C319.492 26.0633 319.545 26.1392 319.568 26.1775L310.993 31.3225ZM314.911 34.8457C316.357 35.4654 317.869 35.7 319.331 35.7V25.7C318.926 25.7 318.804 25.6346 318.85 25.6543L314.911 34.8457ZM319.331 35.7C320.905 35.7 322.816 35.4726 324.536 34.4771L319.525 25.8229C319.655 25.748 319.757 25.7058 319.818 25.6842C319.877 25.6628 319.902 25.6591 319.883 25.6631C319.863 25.6671 319.809 25.6768 319.714 25.6852C319.619 25.6936 319.493 25.7 319.331 25.7V35.7ZM324.603 34.4375C326.017 33.5889 327.327 32.2974 328.041 30.4622L318.721 26.8378C318.833 26.5489 318.99 26.3093 319.152 26.1302C319.306 25.9586 319.43 25.8792 319.458 25.8625L324.603 34.4375ZM323.381 33.65H332.181V23.65H323.381V33.65ZM327.255 27.7933C326.91 29.7722 326.158 30.7594 325.264 31.3689L330.897 39.6311C334.403 37.2406 336.384 33.6611 337.107 29.5067L327.255 27.7933ZM325.278 31.3595C324.209 32.0826 322.385 32.7 319.331 32.7V42.7C323.61 42.7 327.619 41.8507 330.883 39.6405L325.278 31.3595ZM319.081 11.8C317.636 11.8 316.149 12.0513 314.729 12.6904L318.832 21.8096C318.746 21.8487 318.792 21.8 319.081 21.8V11.8ZM314.64 12.7313C313.201 13.4132 311.974 14.4559 311.083 15.8337L319.479 21.2663C319.411 21.3707 319.319 21.4801 319.205 21.5784C319.093 21.6759 318.99 21.736 318.921 21.7687L314.64 12.7313ZM311.083 15.8337C310.151 17.2731 309.758 18.8516 309.645 20.3165L319.616 21.0835C319.637 20.815 319.677 20.9602 319.479 21.2663L311.083 15.8337ZM314.631 25.7H323.331V15.7H314.631V25.7ZM328.327 20.5149C328.271 19.0064 327.922 17.3191 326.929 15.7837L318.533 21.2163C318.404 21.017 318.35 20.8585 318.332 20.7906C318.315 20.7279 318.329 20.7492 318.334 20.8851L328.327 20.5149ZM326.997 15.8927C326.098 14.4207 324.794 13.2752 323.171 12.5918L319.29 21.8082C319.14 21.745 318.97 21.6451 318.806 21.5034C318.643 21.3625 318.532 21.2187 318.464 21.1073L326.997 15.8927ZM323.261 12.6309C321.875 12.0146 320.432 11.8 319.081 11.8V21.8C319.233 21.8 319.311 21.8124 319.329 21.8156C319.344 21.8186 319.294 21.8108 319.2 21.7691L323.261 12.6309ZM335.767 37H330.767C330.767 39.7614 333.006 42 335.767 42V37ZM335.767 10.5V5.5C333.006 5.5 330.767 7.73857 330.767 10.5H335.767ZM345.167 10.5H350.167C350.167 7.73857 347.928 5.5 345.167 5.5V10.5ZM345.167 19.75H340.167C340.167 22.5114 342.406 24.75 345.167 24.75V19.75ZM352.917 19.75V24.75C355.678 24.75 357.917 22.5114 357.917 19.75H352.917ZM352.917 10.5V5.5C350.156 5.5 347.917 7.73857 347.917 10.5H352.917ZM362.317 10.5H367.317C367.317 7.73857 365.078 5.5 362.317 5.5V10.5ZM362.317 37V42C365.078 42 367.317 39.7614 367.317 37H362.317ZM352.917 37H347.917C347.917 39.7614 350.156 42 352.917 42V37ZM352.917 27.25H357.917C357.917 24.4886 355.678 22.25 352.917 22.25V27.25ZM345.167 27.25V22.25C342.406 22.25 340.167 24.4886 340.167 27.25H345.167ZM345.167 37V42C347.928 42 350.167 39.7614 350.167 37H345.167ZM340.767 37V10.5H330.767V37H340.767ZM335.767 15.5H345.167V5.5H335.767V15.5ZM340.167 10.5V19.75H350.167V10.5H340.167ZM345.167 24.75H352.917V14.75H345.167V24.75ZM357.917 19.75V10.5H347.917V19.75H357.917ZM352.917 15.5H362.317V5.5H352.917V15.5ZM357.317 10.5V37H367.317V10.5H357.317ZM362.317 32H352.917V42H362.317V32ZM357.917 37V27.25H347.917V37H357.917ZM352.917 22.25H345.167V32.25H352.917V22.25ZM340.167 27.25V37H350.167V27.25H340.167ZM345.167 32H335.767V42H345.167V32ZM366.529 37H361.529C361.529 39.7614 363.767 42 366.529 42V37ZM366.529 10.5V5.5C363.767 5.5 361.529 7.73857 361.529 10.5H366.529ZM375.829 10.5H380.829C380.829 7.73857 378.59 5.5 375.829 5.5V10.5ZM375.829 24H370.829C370.829 26.1916 372.256 28.1277 374.349 28.7762C376.443 29.4246 378.715 28.6341 379.953 26.8262L375.829 24ZM385.079 10.5V5.5C383.429 5.5 381.886 6.31331 380.954 7.67384L385.079 10.5ZM393.079 10.5H398.079C398.079 7.73857 395.84 5.5 393.079 5.5V10.5ZM393.079 37V42C395.84 42 398.079 39.7614 398.079 37H393.079ZM383.779 37H378.779C378.779 39.7614 381.017 42 383.779 42V37ZM383.779 23.5H388.779C388.779 21.3084 387.351 19.3723 385.258 18.7238C383.165 18.0754 380.893 18.8659 379.654 20.6738L383.779 23.5ZM374.529 37V42C376.178 42 377.721 41.1867 378.653 39.8262L374.529 37ZM371.529 37V10.5H361.529V37H371.529ZM366.529 15.5H375.829V5.5H366.529V15.5ZM370.829 10.5V24H380.829V10.5H370.829ZM379.953 26.8262L389.203 13.3262L380.954 7.67384L371.704 21.1738L379.953 26.8262ZM385.079 15.5H393.079V5.5H385.079V15.5ZM388.079 10.5V37H398.079V10.5H388.079ZM393.079 32H383.779V42H393.079V32ZM388.779 37V23.5H378.779V37H388.779ZM379.654 20.6738L370.404 34.1738L378.653 39.8262L387.903 26.3262L379.654 20.6738ZM374.529 32H366.529V42H374.529V32ZM403.19 36.2L401.068 40.7273C401.077 40.7315 401.086 40.7357 401.095 40.7398L403.19 36.2ZM398.14 31.7L393.853 34.2725C393.863 34.2899 393.874 34.3072 393.885 34.3244L398.14 31.7ZM398.09 15.75L402.391 18.301L402.391 18.301L398.09 15.75ZM402.94 11.3L400.791 6.7857C400.781 6.79017 400.772 6.79467 400.763 6.7992L402.94 11.3ZM420.39 13.25L416.829 16.7596C416.838 16.7683 416.846 16.7769 416.855 16.7855L420.39 13.25ZM423.79 26.15V31.15C426.552 31.15 428.79 28.9114 428.79 26.15H423.79ZM405.84 26.15V21.15C404.458 21.15 403.138 21.722 402.193 22.7302C401.248 23.7383 400.762 25.0928 400.851 26.4719L405.84 26.15ZM406.54 28.75L402.199 31.2307C402.217 31.2615 402.235 31.2921 402.253 31.3225L406.54 28.75ZM408.14 30.25L405.904 34.7221C405.992 34.7659 406.081 34.8071 406.171 34.8457L408.14 30.25ZM413.29 30.15L415.796 34.4771C415.818 34.4641 415.841 34.4509 415.863 34.4375L413.29 30.15ZM414.64 28.65V23.65C412.578 23.65 410.728 24.9159 409.98 26.8378L414.64 28.65ZM423.44 28.65L428.366 29.5067C428.619 28.0526 428.217 26.5611 427.267 25.4316C426.317 24.3021 424.916 23.65 423.44 23.65V28.65ZM419.34 35.5L422.143 39.6405C422.148 39.6374 422.153 39.6343 422.157 39.6311L419.34 35.5ZM408.04 17.25L405.989 12.6904C405.959 12.7037 405.929 12.7174 405.9 12.7313L408.04 17.25ZM406.54 18.55L410.738 21.2663L410.738 21.2663L406.54 18.55ZM405.89 20.7L400.905 20.3165C400.798 21.7051 401.276 23.0754 402.222 24.0972C403.168 25.1191 404.498 25.7 405.89 25.7V20.7ZM414.59 20.7V25.7C415.949 25.7 417.248 25.1475 418.191 24.1695C419.133 23.1915 419.637 21.8722 419.587 20.5149L414.59 20.7ZM413.99 18.5L409.724 21.1073C409.746 21.1439 409.769 21.1802 409.793 21.2163L413.99 18.5ZM412.49 17.2L410.46 21.7691C410.49 21.7824 410.52 21.7954 410.55 21.8082L412.49 17.2ZM410.59 32.7C408.433 32.7 406.699 32.3124 405.286 31.6602L401.095 40.7398C404.015 42.0876 407.215 42.7 410.59 42.7V32.7ZM405.313 31.6727C404.058 31.0846 403.117 30.2447 402.396 29.0756L393.885 34.3244C395.63 37.1553 398.056 39.3154 401.068 40.7273L405.313 31.6727ZM402.428 29.1275C401.814 28.1051 401.34 26.5436 401.34 24.15H391.34C391.34 27.8231 392.066 31.2949 393.853 34.2725L402.428 29.1275ZM401.34 24.15V23.15H391.34V24.15H401.34ZM401.34 23.15C401.34 20.8199 401.799 19.2983 402.391 18.301L393.79 13.199C392.048 16.1351 391.34 19.5468 391.34 23.15H401.34ZM402.391 18.301C403.054 17.1821 403.931 16.3751 405.118 15.8008L400.763 6.7992C397.816 8.22488 395.46 10.3845 393.79 13.199L402.391 18.301ZM405.09 15.8143C406.427 15.1778 408.059 14.8 410.09 14.8V4.8C406.789 4.8 403.654 5.42217 400.791 6.7857L405.09 15.8143ZM410.09 14.8C413.926 14.8 415.841 15.7564 416.829 16.7596L423.952 9.74037C420.407 6.14358 415.455 4.8 410.09 4.8V14.8ZM416.855 16.7855C417.879 17.8093 418.79 19.6709 418.79 23.25H428.79C428.79 18.0291 427.436 13.2241 423.926 9.71446L416.855 16.7855ZM418.79 23.25V26.15H428.79V23.25H418.79ZM423.79 21.15H405.84V31.15H423.79V21.15ZM400.851 26.4719C400.953 28.056 401.33 29.7094 402.199 31.2307L410.882 26.2693C410.951 26.3906 410.861 26.3107 410.83 25.8281L400.851 26.4719ZM402.253 31.3225C403.12 32.7676 404.349 33.9447 405.904 34.7221L410.376 25.7779C410.467 25.8231 410.567 25.8903 410.66 25.9773C410.752 26.0633 410.805 26.1392 410.828 26.1775L402.253 31.3225ZM406.171 34.8457C407.617 35.4654 409.129 35.7 410.59 35.7V25.7C410.186 25.7 410.064 25.6346 410.11 25.6543L406.171 34.8457ZM410.59 35.7C412.164 35.7 414.076 35.4726 415.796 34.4771L410.785 25.8229C410.915 25.748 411.017 25.7058 411.077 25.6842C411.137 25.6628 411.162 25.6591 411.142 25.6631C411.123 25.6671 411.069 25.6768 410.974 25.6852C410.879 25.6936 410.752 25.7 410.59 25.7V35.7ZM415.863 34.4375C417.277 33.5889 418.587 32.2974 419.3 30.4622L409.98 26.8378C410.093 26.5489 410.25 26.3093 410.411 26.1302C410.566 25.9586 410.69 25.8792 410.718 25.8625L415.863 34.4375ZM414.64 33.65H423.44V23.65H414.64V33.65ZM418.514 27.7933C418.17 29.7722 417.418 30.7594 416.524 31.3689L422.157 39.6311C425.663 37.2406 427.644 33.6611 428.366 29.5067L418.514 27.7933ZM416.538 31.3595C415.469 32.0826 413.645 32.7 410.59 32.7V42.7C414.87 42.7 418.878 41.8507 422.143 39.6405L416.538 31.3595ZM410.34 11.8C408.896 11.8 407.409 12.0513 405.989 12.6904L410.092 21.8096C410.005 21.8487 410.052 21.8 410.34 21.8V11.8ZM405.9 12.7313C404.46 13.4132 403.234 14.4559 402.343 15.8337L410.738 21.2663C410.671 21.3707 410.579 21.4801 410.465 21.5784C410.353 21.6759 410.25 21.736 410.181 21.7687L405.9 12.7313ZM402.343 15.8337C401.411 17.2731 401.018 18.8516 400.905 20.3165L410.876 21.0835C410.896 20.815 410.936 20.9602 410.738 21.2663L402.343 15.8337ZM405.89 25.7H414.59V15.7H405.89V25.7ZM419.587 20.5149C419.531 19.0064 419.182 17.3191 418.188 15.7837L409.793 21.2163C409.664 21.017 409.61 20.8585 409.592 20.7906C409.575 20.7279 409.589 20.7492 409.594 20.8851L419.587 20.5149ZM418.257 15.8927C417.357 14.4207 416.054 13.2752 414.431 12.5918L410.55 21.8082C410.4 21.745 410.229 21.6451 410.066 21.5034C409.903 21.3625 409.792 21.2187 409.724 21.1073L418.257 15.8927ZM414.521 12.6309C413.134 12.0146 411.692 11.8 410.34 11.8V21.8C410.493 21.8 410.571 21.8124 410.588 21.8156C410.604 21.8186 410.554 21.8108 410.46 21.7691L414.521 12.6309Z" fill="white" mask="url(#path-1-outside-1_46_2)"/>
</svg>
