<?xml version="1.0" encoding="UTF-8"?> <svg xmlns="http://www.w3.org/2000/svg" width="351" height="270" viewBox="0 0 351 270" fill="none"> <path d="M0 20C0 8.95431 8.95431 0 20 0H283C294.046 0 303 8.95431 303 20V93C303 104.046 294.046 113 283 113H0V20Z" fill="#F3F4F7"></path> <path d="M0 174C0 185.046 8.9543 194 20 194H223C234.046 194 243 185.046 243 174V149C243 137.954 234.046 129 223 129H0V174Z" fill="#F3F4F7"></path> <path d="M351 225C351 213.954 342.046 205 331 205H128C116.954 205 108 213.954 108 225V250C108 261.046 116.954 270 128 270H351V225Z" fill="#F3F4F7"></path> <path d="M22.85 31.18C22.214 31.18 21.614 31.108 21.05 30.964C20.498 30.808 20 30.568 19.556 30.244C19.124 29.92 18.764 29.512 18.476 29.02C18.188 28.516 17.996 27.916 17.9 27.22H19.7C19.808 27.94 20.126 28.528 20.654 28.984C21.182 29.44 21.914 29.668 22.85 29.668C23.222 29.668 23.606 29.602 24.002 29.47C24.398 29.338 24.764 29.104 25.1 28.768C25.436 28.432 25.718 27.988 25.946 27.436C26.174 26.884 26.306 26.182 26.342 25.33H21.32V23.89H26.342C26.306 23.098 26.18 22.438 25.964 21.91C25.76 21.37 25.496 20.938 25.172 20.614C24.848 20.29 24.482 20.062 24.074 19.93C23.678 19.798 23.27 19.732 22.85 19.732C21.998 19.732 21.302 19.936 20.762 20.344C20.222 20.752 19.868 21.364 19.7 22.18H17.9C17.972 21.556 18.14 20.998 18.404 20.506C18.68 20.014 19.034 19.6 19.466 19.264C19.898 18.928 20.396 18.67 20.96 18.49C21.536 18.31 22.166 18.22 22.85 18.22C23.546 18.22 24.212 18.334 24.848 18.562C25.496 18.79 26.066 19.15 26.558 19.642C27.05 20.134 27.44 20.776 27.728 21.568C28.016 22.36 28.16 23.314 28.16 24.43V24.79C28.16 25.954 28.016 26.944 27.728 27.76C27.44 28.564 27.05 29.224 26.558 29.74C26.066 30.244 25.496 30.61 24.848 30.838C24.212 31.066 23.546 31.18 22.85 31.18ZM32.8524 22.864H29.5944V21.46H37.6944V22.864H34.4364V31H32.8524V22.864ZM43.2828 31.18C42.6708 31.18 42.0888 31.084 41.5368 30.892C40.9848 30.688 40.4988 30.388 40.0788 29.992C39.6588 29.584 39.3228 29.074 39.0708 28.462C38.8188 27.85 38.6928 27.136 38.6928 26.32V25.96C38.6928 25.192 38.8188 24.514 39.0708 23.926C39.3228 23.338 39.6588 22.852 40.0788 22.468C40.4988 22.072 40.9848 21.778 41.5368 21.586C42.0888 21.382 42.6708 21.28 43.2828 21.28C43.8948 21.28 44.4768 21.382 45.0288 21.586C45.5808 21.778 46.0668 22.072 46.4868 22.468C46.9068 22.852 47.2428 23.338 47.4948 23.926C47.7468 24.514 47.8728 25.192 47.8728 25.96V26.32C47.8728 27.136 47.7468 27.85 47.4948 28.462C47.2428 29.074 46.9068 29.584 46.4868 29.992C46.0668 30.388 45.5808 30.688 45.0288 30.892C44.4768 31.084 43.8948 31.18 43.2828 31.18ZM43.2828 29.74C43.6428 29.74 44.0028 29.68 44.3628 29.56C44.7228 29.428 45.0408 29.23 45.3168 28.966C45.5928 28.69 45.8148 28.336 45.9828 27.904C46.1628 27.472 46.2528 26.944 46.2528 26.32V25.96C46.2528 25.384 46.1628 24.892 45.9828 24.484C45.8148 24.076 45.5928 23.74 45.3168 23.476C45.0408 23.212 44.7228 23.02 44.3628 22.9C44.0028 22.78 43.6428 22.72 43.2828 22.72C42.9228 22.72 42.5628 22.78 42.2028 22.9C41.8428 23.02 41.5248 23.212 41.2488 23.476C40.9728 23.74 40.7448 24.076 40.5648 24.484C40.3968 24.892 40.3128 25.384 40.3128 25.96V26.32C40.3128 26.944 40.3968 27.472 40.5648 27.904C40.7448 28.336 40.9728 28.69 41.2488 28.966C41.5248 29.23 41.8428 29.428 42.2028 29.56C42.5628 29.68 42.9228 29.74 43.2828 29.74ZM58.5758 31.18C57.9398 31.18 57.3458 31.06 56.7938 30.82C56.2538 30.58 55.7798 30.232 55.3718 29.776C54.9758 29.308 54.6578 28.738 54.4178 28.066C54.1898 27.394 54.0758 26.632 54.0758 25.78V25.42C54.0758 24.34 54.1538 23.38 54.3098 22.54C54.4658 21.688 54.7298 20.968 55.1018 20.38C55.4858 19.78 55.9838 19.312 56.5958 18.976C57.2198 18.64 57.9998 18.448 58.9358 18.4C59.6918 18.364 60.3518 18.334 60.9158 18.31C61.4798 18.274 61.9598 18.154 62.3558 17.95V19.48C62.1638 19.588 61.8098 19.672 61.2938 19.732C60.7898 19.792 60.0938 19.834 59.2058 19.858C58.6298 19.87 58.1198 19.942 57.6758 20.074C57.2438 20.206 56.8718 20.416 56.5598 20.704C56.2598 20.992 56.0198 21.37 55.8398 21.838C55.6718 22.294 55.5638 22.858 55.5158 23.53C55.8038 22.894 56.2478 22.39 56.8478 22.018C57.4478 21.646 58.1438 21.46 58.9358 21.46C59.5478 21.46 60.1058 21.568 60.6098 21.784C61.1138 21.988 61.5458 22.282 61.9058 22.666C62.2778 23.05 62.5658 23.524 62.7698 24.088C62.9738 24.64 63.0758 25.264 63.0758 25.96V26.32C63.0758 27.064 62.9618 27.736 62.7338 28.336C62.5058 28.924 62.1938 29.434 61.7978 29.866C61.4018 30.286 60.9278 30.61 60.3758 30.838C59.8238 31.066 59.2238 31.18 58.5758 31.18ZM58.5758 29.74C59.4158 29.74 60.1058 29.452 60.6458 28.876C61.1858 28.288 61.4558 27.436 61.4558 26.32V25.96C61.4558 25.492 61.3838 25.072 61.2398 24.7C61.0958 24.328 60.8978 24.01 60.6458 23.746C60.3938 23.47 60.0878 23.26 59.7278 23.116C59.3798 22.972 58.9958 22.9 58.5758 22.9C58.1558 22.9 57.7658 22.972 57.4058 23.116C57.0578 23.26 56.7578 23.47 56.5058 23.746C56.2538 24.01 56.0558 24.328 55.9118 24.7C55.7678 25.072 55.6958 25.492 55.6958 25.96V26.32C55.6958 26.848 55.7678 27.328 55.9118 27.76C56.0678 28.18 56.2778 28.54 56.5418 28.84C56.8058 29.128 57.1118 29.35 57.4598 29.506C57.8078 29.662 58.1798 29.74 58.5758 29.74ZM65.3209 21.46H66.9049V25.06H68.8309C70.0309 25.06 70.9129 25.324 71.4769 25.852C72.0529 26.38 72.3409 27.112 72.3409 28.048C72.3409 28.96 72.0529 29.68 71.4769 30.208C70.9129 30.736 70.0309 31 68.8309 31H65.3209V21.46ZM68.7409 29.596C69.4849 29.596 70.0069 29.464 70.3069 29.2C70.6069 28.936 70.7569 28.546 70.7569 28.03C70.7569 27.514 70.6069 27.124 70.3069 26.86C70.0069 26.596 69.4849 26.464 68.7409 26.464H66.9049V29.596H68.7409ZM73.8169 21.46H75.4009V31H73.8169V21.46ZM77.8259 31.18C77.6459 31.18 77.4659 31.162 77.2859 31.126V29.542C77.3459 29.554 77.4359 29.56 77.5559 29.56C77.8199 29.56 78.0479 29.476 78.2399 29.308C78.4439 29.14 78.6059 28.846 78.7259 28.426C78.8459 28.006 78.9359 27.436 78.9959 26.716C79.0559 25.996 79.0859 25.084 79.0859 23.98V21.46H85.9259V31H84.3419V22.864H80.6699V24.34C80.6699 25.672 80.6099 26.776 80.4899 27.652C80.3699 28.528 80.1899 29.23 79.9499 29.758C79.7219 30.274 79.4279 30.64 79.0679 30.856C78.7079 31.072 78.2939 31.18 77.8259 31.18ZM92.7652 31.18C92.1532 31.18 91.5712 31.084 91.0192 30.892C90.4672 30.688 89.9812 30.388 89.5612 29.992C89.1412 29.584 88.8052 29.074 88.5532 28.462C88.3012 27.85 88.1752 27.136 88.1752 26.32V25.96C88.1752 25.192 88.3012 24.514 88.5532 23.926C88.8052 23.338 89.1412 22.852 89.5612 22.468C89.9812 22.072 90.4672 21.778 91.0192 21.586C91.5712 21.382 92.1532 21.28 92.7652 21.28C93.3772 21.28 93.9592 21.382 94.5112 21.586C95.0632 21.778 95.5492 22.072 95.9692 22.468C96.3892 22.852 96.7252 23.338 96.9772 23.926C97.2292 24.514 97.3552 25.192 97.3552 25.96V26.32C97.3552 27.136 97.2292 27.85 96.9772 28.462C96.7252 29.074 96.3892 29.584 95.9692 29.992C95.5492 30.388 95.0632 30.688 94.5112 30.892C93.9592 31.084 93.3772 31.18 92.7652 31.18ZM92.7652 29.74C93.1252 29.74 93.4852 29.68 93.8452 29.56C94.2052 29.428 94.5232 29.23 94.7992 28.966C95.0752 28.69 95.2972 28.336 95.4652 27.904C95.6452 27.472 95.7352 26.944 95.7352 26.32V25.96C95.7352 25.384 95.6452 24.892 95.4652 24.484C95.2972 24.076 95.0752 23.74 94.7992 23.476C94.5232 23.212 94.2052 23.02 93.8452 22.9C93.4852 22.78 93.1252 22.72 92.7652 22.72C92.4052 22.72 92.0452 22.78 91.6852 22.9C91.3252 23.02 91.0072 23.212 90.7312 23.476C90.4552 23.74 90.2272 24.076 90.0472 24.484C89.8792 24.892 89.7952 25.384 89.7952 25.96V26.32C89.7952 26.944 89.8792 27.472 90.0472 27.904C90.2272 28.336 90.4552 28.69 90.7312 28.966C91.0072 29.23 91.3252 29.428 91.6852 29.56C92.0452 29.68 92.4052 29.74 92.7652 29.74ZM108.058 31.18C107.446 31.18 106.864 31.084 106.312 30.892C105.76 30.688 105.274 30.388 104.854 29.992C104.434 29.584 104.098 29.074 103.846 28.462C103.594 27.85 103.468 27.136 103.468 26.32V25.96C103.468 25.192 103.594 24.514 103.846 23.926C104.098 23.338 104.434 22.852 104.854 22.468C105.274 22.072 105.76 21.778 106.312 21.586C106.864 21.382 107.446 21.28 108.058 21.28C108.67 21.28 109.252 21.382 109.804 21.586C110.356 21.778 110.842 22.072 111.262 22.468C111.682 22.852 112.018 23.338 112.27 23.926C112.522 24.514 112.648 25.192 112.648 25.96V26.32C112.648 27.136 112.522 27.85 112.27 28.462C112.018 29.074 111.682 29.584 111.262 29.992C110.842 30.388 110.356 30.688 109.804 30.892C109.252 31.084 108.67 31.18 108.058 31.18ZM108.058 29.74C108.418 29.74 108.778 29.68 109.138 29.56C109.498 29.428 109.816 29.23 110.092 28.966C110.368 28.69 110.59 28.336 110.758 27.904C110.938 27.472 111.028 26.944 111.028 26.32V25.96C111.028 25.384 110.938 24.892 110.758 24.484C110.59 24.076 110.368 23.74 110.092 23.476C109.816 23.212 109.498 23.02 109.138 22.9C108.778 22.78 108.418 22.72 108.058 22.72C107.698 22.72 107.338 22.78 106.978 22.9C106.618 23.02 106.3 23.212 106.024 23.476C105.748 23.74 105.52 24.076 105.34 24.484C105.172 24.892 105.088 25.384 105.088 25.96V26.32C105.088 26.944 105.172 27.472 105.34 27.904C105.52 28.336 105.748 28.69 106.024 28.966C106.3 29.23 106.618 29.428 106.978 29.56C107.338 29.68 107.698 29.74 108.058 29.74ZM116.893 22.864H113.635V21.46H121.735V22.864H118.477V31H116.893V22.864ZM122.369 31.18C122.189 31.18 122.009 31.162 121.829 31.126V29.542C121.889 29.554 121.979 29.56 122.099 29.56C122.363 29.56 122.591 29.476 122.783 29.308C122.987 29.14 123.149 28.846 123.269 28.426C123.389 28.006 123.479 27.436 123.539 26.716C123.599 25.996 123.629 25.084 123.629 23.98V21.46H130.469V31H128.885V22.864H125.213V24.34C125.213 25.672 125.153 26.776 125.033 27.652C124.913 28.528 124.733 29.23 124.493 29.758C124.265 30.274 123.971 30.64 123.611 30.856C123.251 31.072 122.837 31.18 122.369 31.18ZM133.348 21.46H134.932V28.66L139.864 21.46H141.448V31H139.864V23.8L134.932 31H133.348V21.46ZM149.861 27.202C149.585 27.37 149.249 27.52 148.853 27.652C148.469 27.784 147.983 27.85 147.395 27.85C146.843 27.85 146.345 27.79 145.901 27.67C145.469 27.55 145.103 27.358 144.803 27.094C144.503 26.83 144.275 26.488 144.119 26.068C143.963 25.648 143.885 25.132 143.885 24.52V21.46H145.469V24.25C145.469 24.658 145.505 25 145.577 25.276C145.661 25.552 145.793 25.774 145.973 25.942C146.153 26.11 146.381 26.23 146.657 26.302C146.933 26.374 147.269 26.41 147.665 26.41C148.205 26.41 148.667 26.356 149.051 26.248C149.435 26.14 149.705 26.026 149.861 25.906V21.46H151.445V31H149.861V27.202ZM154.319 21.46H155.903V25.438H160.835V21.46H162.419V31H160.835V26.842H155.903V31H154.319V21.46ZM169.265 31.18C168.653 31.18 168.071 31.084 167.519 30.892C166.967 30.688 166.481 30.388 166.061 29.992C165.641 29.584 165.305 29.074 165.053 28.462C164.801 27.85 164.675 27.136 164.675 26.32V25.96C164.675 25.192 164.801 24.514 165.053 23.926C165.305 23.338 165.641 22.852 166.061 22.468C166.481 22.072 166.967 21.778 167.519 21.586C168.071 21.382 168.653 21.28 169.265 21.28C169.877 21.28 170.459 21.382 171.011 21.586C171.563 21.778 172.049 22.072 172.469 22.468C172.889 22.852 173.225 23.338 173.477 23.926C173.729 24.514 173.855 25.192 173.855 25.96V26.32C173.855 27.136 173.729 27.85 173.477 28.462C173.225 29.074 172.889 29.584 172.469 29.992C172.049 30.388 171.563 30.688 171.011 30.892C170.459 31.084 169.877 31.18 169.265 31.18ZM169.265 29.74C169.625 29.74 169.985 29.68 170.345 29.56C170.705 29.428 171.023 29.23 171.299 28.966C171.575 28.69 171.797 28.336 171.965 27.904C172.145 27.472 172.235 26.944 172.235 26.32V25.96C172.235 25.384 172.145 24.892 171.965 24.484C171.797 24.076 171.575 23.74 171.299 23.476C171.023 23.212 170.705 23.02 170.345 22.9C169.985 22.78 169.625 22.72 169.265 22.72C168.905 22.72 168.545 22.78 168.185 22.9C167.825 23.02 167.507 23.212 167.231 23.476C166.955 23.74 166.727 24.076 166.547 24.484C166.379 24.892 166.295 25.384 166.295 25.96V26.32C166.295 26.944 166.379 27.472 166.547 27.904C166.727 28.336 166.955 28.69 167.231 28.966C167.507 29.23 167.825 29.428 168.185 29.56C168.545 29.68 168.905 29.74 169.265 29.74ZM180.058 31.18C179.446 31.18 178.864 31.084 178.312 30.892C177.76 30.7 177.274 30.406 176.854 30.01C176.434 29.602 176.098 29.092 175.846 28.48C175.594 27.868 175.468 27.148 175.468 26.32V25.96C175.468 25.168 175.588 24.484 175.828 23.908C176.068 23.32 176.386 22.834 176.782 22.45C177.19 22.054 177.658 21.76 178.186 21.568C178.726 21.376 179.29 21.28 179.878 21.28C181.282 21.28 182.368 21.664 183.136 22.432C183.904 23.2 184.288 24.286 184.288 25.69V26.698H177.052C177.052 27.262 177.142 27.736 177.322 28.12C177.502 28.504 177.736 28.816 178.024 29.056C178.312 29.296 178.63 29.47 178.978 29.578C179.338 29.686 179.698 29.74 180.058 29.74C180.778 29.74 181.33 29.62 181.714 29.38C182.11 29.14 182.392 28.81 182.56 28.39H184.108C184.012 28.846 183.838 29.248 183.586 29.596C183.346 29.944 183.046 30.238 182.686 30.478C182.338 30.706 181.936 30.88 181.48 31C181.036 31.12 180.562 31.18 180.058 31.18ZM179.968 22.72C179.596 22.72 179.236 22.774 178.888 22.882C178.54 22.978 178.228 23.14 177.952 23.368C177.688 23.584 177.472 23.86 177.304 24.196C177.136 24.532 177.052 24.934 177.052 25.402H182.794C182.782 24.91 182.698 24.496 182.542 24.16C182.398 23.812 182.2 23.536 181.948 23.332C181.696 23.116 181.396 22.96 181.048 22.864C180.712 22.768 180.352 22.72 179.968 22.72ZM22.13 52.18C21.518 52.18 20.948 52.084 20.42 51.892C19.892 51.688 19.436 51.388 19.052 50.992C18.668 50.584 18.362 50.074 18.134 49.462C17.918 48.85 17.81 48.136 17.81 47.32V46.96C17.81 46.192 17.93 45.514 18.17 44.926C18.41 44.338 18.728 43.852 19.124 43.468C19.52 43.072 19.976 42.778 20.492 42.586C21.02 42.382 21.566 42.28 22.13 42.28C22.694 42.28 23.198 42.358 23.642 42.514C24.098 42.67 24.488 42.886 24.812 43.162C25.148 43.438 25.418 43.762 25.622 44.134C25.838 44.506 25.994 44.908 26.09 45.34H24.47C24.374 45.112 24.26 44.902 24.128 44.71C24.008 44.506 23.852 44.332 23.66 44.188C23.48 44.044 23.264 43.93 23.012 43.846C22.76 43.762 22.466 43.72 22.13 43.72C21.782 43.72 21.446 43.786 21.122 43.918C20.798 44.038 20.51 44.23 20.258 44.494C20.006 44.746 19.802 45.076 19.646 45.484C19.502 45.892 19.43 46.384 19.43 46.96V47.32C19.43 47.932 19.502 48.46 19.646 48.904C19.802 49.336 20.006 49.69 20.258 49.966C20.51 50.23 20.798 50.428 21.122 50.56C21.446 50.68 21.782 50.74 22.13 50.74C22.718 50.74 23.21 50.596 23.606 50.308C24.014 50.02 24.302 49.624 24.47 49.12H26.09C25.862 50.068 25.394 50.818 24.686 51.37C23.978 51.91 23.126 52.18 22.13 52.18ZM32.2086 52.18C31.5966 52.18 31.0146 52.084 30.4626 51.892C29.9106 51.688 29.4246 51.388 29.0046 50.992C28.5846 50.584 28.2486 50.074 27.9966 49.462C27.7446 48.85 27.6186 48.136 27.6186 47.32V46.96C27.6186 46.192 27.7446 45.514 27.9966 44.926C28.2486 44.338 28.5846 43.852 29.0046 43.468C29.4246 43.072 29.9106 42.778 30.4626 42.586C31.0146 42.382 31.5966 42.28 32.2086 42.28C32.8206 42.28 33.4026 42.382 33.9546 42.586C34.5066 42.778 34.9926 43.072 35.4126 43.468C35.8326 43.852 36.1686 44.338 36.4206 44.926C36.6726 45.514 36.7986 46.192 36.7986 46.96V47.32C36.7986 48.136 36.6726 48.85 36.4206 49.462C36.1686 50.074 35.8326 50.584 35.4126 50.992C34.9926 51.388 34.5066 51.688 33.9546 51.892C33.4026 52.084 32.8206 52.18 32.2086 52.18ZM32.2086 50.74C32.5686 50.74 32.9286 50.68 33.2886 50.56C33.6486 50.428 33.9666 50.23 34.2426 49.966C34.5186 49.69 34.7406 49.336 34.9086 48.904C35.0886 48.472 35.1786 47.944 35.1786 47.32V46.96C35.1786 46.384 35.0886 45.892 34.9086 45.484C34.7406 45.076 34.5186 44.74 34.2426 44.476C33.9666 44.212 33.6486 44.02 33.2886 43.9C32.9286 43.78 32.5686 43.72 32.2086 43.72C31.8486 43.72 31.4886 43.78 31.1286 43.9C30.7686 44.02 30.4506 44.212 30.1746 44.476C29.8986 44.74 29.6706 45.076 29.4906 45.484C29.3226 45.892 29.2386 46.384 29.2386 46.96V47.32C29.2386 47.944 29.3226 48.472 29.4906 48.904C29.6706 49.336 29.8986 49.69 30.1746 49.966C30.4506 50.23 30.7686 50.428 31.1286 50.56C31.4886 50.68 31.8486 50.74 32.2086 50.74ZM41.0438 43.864H37.7858V42.46H45.8858V43.864H42.6278V52H41.0438V43.864ZM47.69 42.46H49.166V44.26C49.49 43.624 49.94 43.138 50.516 42.802C51.104 42.454 51.782 42.28 52.55 42.28C53.75 42.28 54.71 42.676 55.43 43.468C56.15 44.248 56.51 45.412 56.51 46.96V47.32C56.51 48.136 56.414 48.85 56.222 49.462C56.03 50.062 55.76 50.566 55.412 50.974C55.064 51.37 54.644 51.67 54.152 51.874C53.672 52.078 53.138 52.18 52.55 52.18C51.734 52.18 51.05 52 50.498 51.64C49.958 51.28 49.55 50.83 49.274 50.29V55.6H47.69V42.46ZM52.19 50.776C52.574 50.776 52.934 50.704 53.27 50.56C53.606 50.404 53.894 50.182 54.134 49.894C54.386 49.606 54.578 49.246 54.71 48.814C54.854 48.382 54.926 47.884 54.926 47.32V46.96C54.926 46.444 54.854 45.982 54.71 45.574C54.578 45.166 54.386 44.824 54.134 44.548C53.894 44.26 53.606 44.044 53.27 43.9C52.934 43.756 52.574 43.684 52.19 43.684C51.758 43.684 51.362 43.756 51.002 43.9C50.642 44.032 50.336 44.224 50.084 44.476C49.832 44.716 49.634 45.004 49.49 45.34C49.346 45.676 49.274 46.036 49.274 46.42V47.86C49.274 48.292 49.346 48.688 49.49 49.048C49.634 49.408 49.832 49.714 50.084 49.966C50.336 50.218 50.642 50.416 51.002 50.56C51.362 50.704 51.758 50.776 52.19 50.776ZM59.6727 55.78C59.4927 55.78 59.3127 55.762 59.1327 55.726V54.286C59.3127 54.322 59.4927 54.34 59.6727 54.34C59.8527 54.34 60.0087 54.31 60.1407 54.25C60.2727 54.19 60.3987 54.076 60.5187 53.908C60.6387 53.74 60.7647 53.5 60.8967 53.188C61.0407 52.888 61.2027 52.492 61.3827 52L57.3327 42.46H59.0967L62.1927 50.2L65.0007 42.46H66.6927L63.0927 52C62.8407 52.672 62.6007 53.248 62.3727 53.728C62.1447 54.208 61.8987 54.598 61.6347 54.898C61.3827 55.21 61.1007 55.432 60.7887 55.564C60.4767 55.708 60.1047 55.78 59.6727 55.78ZM66.86 50.596H68.03C68.162 50.416 68.282 50.14 68.39 49.768C68.498 49.396 68.594 48.958 68.678 48.454C68.762 47.95 68.822 47.404 68.858 46.816C68.906 46.216 68.93 45.604 68.93 44.98V42.46H75.59V50.596H76.94V54.25H75.428V52H68.372V54.25H66.86V50.596ZM74.006 50.596V43.864H70.478V45.34C70.478 45.844 70.46 46.348 70.424 46.852C70.388 47.344 70.334 47.818 70.262 48.274C70.19 48.718 70.1 49.144 69.992 49.552C69.896 49.948 69.782 50.296 69.65 50.596H74.006ZM78.8384 42.46H80.4224V46.438H85.3544V42.46H86.9384V52H85.3544V47.842H80.4224V52H78.8384V42.46ZM89.8248 42.46H91.4088V49.66L96.3408 42.46H97.9248V52H96.3408V44.8L91.4088 52H89.8248V42.46ZM106.337 48.202C106.061 48.37 105.725 48.52 105.329 48.652C104.945 48.784 104.459 48.85 103.871 48.85C103.319 48.85 102.821 48.79 102.377 48.67C101.945 48.55 101.579 48.358 101.279 48.094C100.979 47.83 100.751 47.488 100.595 47.068C100.439 46.648 100.361 46.132 100.361 45.52V42.46H101.945V45.25C101.945 45.658 101.981 46 102.053 46.276C102.137 46.552 102.269 46.774 102.449 46.942C102.629 47.11 102.857 47.23 103.133 47.302C103.409 47.374 103.745 47.41 104.141 47.41C104.681 47.41 105.143 47.356 105.527 47.248C105.911 47.14 106.181 47.026 106.337 46.906V42.46H107.921V52H106.337V48.202ZM114.755 52.18C114.143 52.18 113.561 52.084 113.009 51.892C112.457 51.7 111.971 51.406 111.551 51.01C111.131 50.602 110.795 50.092 110.543 49.48C110.291 48.868 110.165 48.148 110.165 47.32V46.96C110.165 46.168 110.285 45.484 110.525 44.908C110.765 44.32 111.083 43.834 111.479 43.45C111.887 43.054 112.355 42.76 112.883 42.568C113.423 42.376 113.987 42.28 114.575 42.28C115.979 42.28 117.065 42.664 117.833 43.432C118.601 44.2 118.985 45.286 118.985 46.69V47.698H111.749C111.749 48.262 111.839 48.736 112.019 49.12C112.199 49.504 112.433 49.816 112.721 50.056C113.009 50.296 113.327 50.47 113.675 50.578C114.035 50.686 114.395 50.74 114.755 50.74C115.475 50.74 116.027 50.62 116.411 50.38C116.807 50.14 117.089 49.81 117.257 49.39H118.805C118.709 49.846 118.535 50.248 118.283 50.596C118.043 50.944 117.743 51.238 117.383 51.478C117.035 51.706 116.633 51.88 116.177 52C115.733 52.12 115.259 52.18 114.755 52.18ZM114.665 43.72C114.293 43.72 113.933 43.774 113.585 43.882C113.237 43.978 112.925 44.14 112.649 44.368C112.385 44.584 112.169 44.86 112.001 45.196C111.833 45.532 111.749 45.934 111.749 46.402H117.491C117.479 45.91 117.395 45.496 117.239 45.16C117.095 44.812 116.897 44.536 116.645 44.332C116.393 44.116 116.093 43.96 115.745 43.864C115.409 43.768 115.049 43.72 114.665 43.72ZM124.927 52.18C124.315 52.18 123.745 52.084 123.217 51.892C122.689 51.688 122.233 51.388 121.849 50.992C121.465 50.584 121.159 50.074 120.931 49.462C120.715 48.85 120.607 48.136 120.607 47.32V46.96C120.607 46.192 120.727 45.514 120.967 44.926C121.207 44.338 121.525 43.852 121.921 43.468C122.317 43.072 122.773 42.778 123.289 42.586C123.817 42.382 124.363 42.28 124.927 42.28C125.491 42.28 125.995 42.358 126.439 42.514C126.895 42.67 127.285 42.886 127.609 43.162C127.945 43.438 128.215 43.762 128.419 44.134C128.635 44.506 128.791 44.908 128.887 45.34H127.267C127.171 45.112 127.057 44.902 126.925 44.71C126.805 44.506 126.649 44.332 126.457 44.188C126.277 44.044 126.061 43.93 125.809 43.846C125.557 43.762 125.263 43.72 124.927 43.72C124.579 43.72 124.243 43.786 123.919 43.918C123.595 44.038 123.307 44.23 123.055 44.494C122.803 44.746 122.599 45.076 122.443 45.484C122.299 45.892 122.227 46.384 122.227 46.96V47.32C122.227 47.932 122.299 48.46 122.443 48.904C122.599 49.336 122.803 49.69 123.055 49.966C123.307 50.23 123.595 50.428 123.919 50.56C124.243 50.68 124.579 50.74 124.927 50.74C125.515 50.74 126.007 50.596 126.403 50.308C126.811 50.02 127.099 49.624 127.267 49.12H128.887C128.659 50.068 128.191 50.818 127.483 51.37C126.775 51.91 125.923 52.18 124.927 52.18ZM133.223 43.864H129.965V42.46H138.065V43.864H134.807V52H133.223V43.864ZM139.87 42.46H144.01C145.186 42.46 146.05 42.706 146.602 43.198C147.154 43.678 147.43 44.302 147.43 45.07C147.43 45.274 147.394 45.484 147.322 45.7C147.25 45.904 147.148 46.096 147.016 46.276C146.896 46.456 146.746 46.612 146.566 46.744C146.398 46.876 146.206 46.978 145.99 47.05C146.578 47.194 147.022 47.47 147.322 47.878C147.634 48.274 147.79 48.742 147.79 49.282C147.79 50.11 147.514 50.77 146.962 51.262C146.41 51.754 145.546 52 144.37 52H139.87V42.46ZM144.37 50.596C145.042 50.596 145.516 50.476 145.792 50.236C146.068 49.996 146.206 49.654 146.206 49.21C146.206 48.754 146.068 48.406 145.792 48.166C145.516 47.914 145.042 47.788 144.37 47.788H141.454V50.596H144.37ZM144.01 46.492C144.694 46.492 145.168 46.372 145.432 46.132C145.708 45.892 145.846 45.562 145.846 45.142C145.846 44.746 145.708 44.434 145.432 44.206C145.168 43.978 144.694 43.864 144.01 43.864H141.454V46.492H144.01ZM154.007 52.18C153.395 52.18 152.813 52.084 152.261 51.892C151.709 51.688 151.223 51.388 150.803 50.992C150.383 50.584 150.047 50.074 149.795 49.462C149.543 48.85 149.417 48.136 149.417 47.32V46.96C149.417 46.192 149.543 45.514 149.795 44.926C150.047 44.338 150.383 43.852 150.803 43.468C151.223 43.072 151.709 42.778 152.261 42.586C152.813 42.382 153.395 42.28 154.007 42.28C154.619 42.28 155.201 42.382 155.753 42.586C156.305 42.778 156.791 43.072 157.211 43.468C157.631 43.852 157.967 44.338 158.219 44.926C158.471 45.514 158.597 46.192 158.597 46.96V47.32C158.597 48.136 158.471 48.85 158.219 49.462C157.967 50.074 157.631 50.584 157.211 50.992C156.791 51.388 156.305 51.688 155.753 51.892C155.201 52.084 154.619 52.18 154.007 52.18ZM154.007 50.74C154.367 50.74 154.727 50.68 155.087 50.56C155.447 50.428 155.765 50.23 156.041 49.966C156.317 49.69 156.539 49.336 156.707 48.904C156.887 48.472 156.977 47.944 156.977 47.32V46.96C156.977 46.384 156.887 45.892 156.707 45.484C156.539 45.076 156.317 44.74 156.041 44.476C155.765 44.212 155.447 44.02 155.087 43.9C154.727 43.78 154.367 43.72 154.007 43.72C153.647 43.72 153.287 43.78 152.927 43.9C152.567 44.02 152.249 44.212 151.973 44.476C151.697 44.74 151.469 45.076 151.289 45.484C151.121 45.892 151.037 46.384 151.037 46.96V47.32C151.037 47.944 151.121 48.472 151.289 48.904C151.469 49.336 151.697 49.69 151.973 49.966C152.249 50.23 152.567 50.428 152.927 50.56C153.287 50.68 153.647 50.74 154.007 50.74ZM160.759 52V50.02H162.739V52L160.939 54.7H160.039L160.759 52ZM170.385 42.46H171.969V46.438H176.901V42.46H178.485V52H176.901V47.842H171.969V52H170.385V42.46ZM184.09 52.18C183.562 52.18 183.094 52.108 182.686 51.964C182.29 51.808 181.954 51.598 181.678 51.334C181.402 51.07 181.192 50.758 181.048 50.398C180.904 50.038 180.832 49.642 180.832 49.21C180.832 48.262 181.108 47.578 181.66 47.158C182.224 46.738 183.028 46.528 184.072 46.528H187.168V45.88C187.168 45.064 186.982 44.5 186.61 44.188C186.25 43.876 185.704 43.72 184.972 43.72C184.288 43.72 183.79 43.852 183.478 44.116C183.166 44.368 182.992 44.656 182.956 44.98H181.372C181.396 44.596 181.498 44.242 181.678 43.918C181.87 43.582 182.122 43.294 182.434 43.054C182.758 42.814 183.142 42.628 183.586 42.496C184.03 42.352 184.522 42.28 185.062 42.28C186.19 42.28 187.084 42.55 187.744 43.09C188.416 43.618 188.752 44.488 188.752 45.7V49.57C188.752 50.074 188.752 50.518 188.752 50.902C188.764 51.274 188.794 51.64 188.842 52H187.456C187.42 51.724 187.396 51.466 187.384 51.226C187.372 50.974 187.366 50.692 187.366 50.38C187.114 50.884 186.706 51.31 186.142 51.658C185.578 52.006 184.894 52.18 184.09 52.18ZM184.432 50.74C184.804 50.74 185.152 50.692 185.476 50.596C185.812 50.488 186.106 50.338 186.358 50.146C186.61 49.942 186.808 49.696 186.952 49.408C187.096 49.12 187.168 48.784 187.168 48.4V47.752H184.342C183.754 47.752 183.292 47.872 182.956 48.112C182.62 48.34 182.452 48.706 182.452 49.21C182.452 49.654 182.608 50.02 182.92 50.308C183.244 50.596 183.748 50.74 184.432 50.74ZM191.549 42.46H193.133V50.596H196.607V42.46H198.191V50.596H201.665V42.46H203.249V52H191.549V42.46ZM208.84 52.18C208.312 52.18 207.844 52.108 207.436 51.964C207.04 51.808 206.704 51.598 206.428 51.334C206.152 51.07 205.942 50.758 205.798 50.398C205.654 50.038 205.582 49.642 205.582 49.21C205.582 48.262 205.858 47.578 206.41 47.158C206.974 46.738 207.778 46.528 208.822 46.528H211.918V45.88C211.918 45.064 211.732 44.5 211.36 44.188C211 43.876 210.454 43.72 209.722 43.72C209.038 43.72 208.54 43.852 208.228 44.116C207.916 44.368 207.742 44.656 207.706 44.98H206.122C206.146 44.596 206.248 44.242 206.428 43.918C206.62 43.582 206.872 43.294 207.184 43.054C207.508 42.814 207.892 42.628 208.336 42.496C208.78 42.352 209.272 42.28 209.812 42.28C210.94 42.28 211.834 42.55 212.494 43.09C213.166 43.618 213.502 44.488 213.502 45.7V49.57C213.502 50.074 213.502 50.518 213.502 50.902C213.514 51.274 213.544 51.64 213.592 52H212.206C212.17 51.724 212.146 51.466 212.134 51.226C212.122 50.974 212.116 50.692 212.116 50.38C211.864 50.884 211.456 51.31 210.892 51.658C210.328 52.006 209.644 52.18 208.84 52.18ZM209.182 50.74C209.554 50.74 209.902 50.692 210.226 50.596C210.562 50.488 210.856 50.338 211.108 50.146C211.36 49.942 211.558 49.696 211.702 49.408C211.846 49.12 211.918 48.784 211.918 48.4V47.752H209.092C208.504 47.752 208.042 47.872 207.706 48.112C207.37 48.34 207.202 48.706 207.202 49.21C207.202 49.654 207.358 50.02 207.67 50.308C207.994 50.596 208.498 50.74 209.182 50.74ZM18.44 64.46H20.024V68.456H21.284L24.848 64.46H26.72L22.58 69.032L26.9 74H24.884L21.284 69.824H20.024V74H18.44V64.46ZM32.402 74.18C31.79 74.18 31.208 74.084 30.656 73.892C30.104 73.688 29.618 73.388 29.198 72.992C28.778 72.584 28.442 72.074 28.19 71.462C27.938 70.85 27.812 70.136 27.812 69.32V68.96C27.812 68.192 27.938 67.514 28.19 66.926C28.442 66.338 28.778 65.852 29.198 65.468C29.618 65.072 30.104 64.778 30.656 64.586C31.208 64.382 31.79 64.28 32.402 64.28C33.014 64.28 33.596 64.382 34.148 64.586C34.7 64.778 35.186 65.072 35.606 65.468C36.026 65.852 36.362 66.338 36.614 66.926C36.866 67.514 36.992 68.192 36.992 68.96V69.32C36.992 70.136 36.866 70.85 36.614 71.462C36.362 72.074 36.026 72.584 35.606 72.992C35.186 73.388 34.7 73.688 34.148 73.892C33.596 74.084 33.014 74.18 32.402 74.18ZM32.402 72.74C32.762 72.74 33.122 72.68 33.482 72.56C33.842 72.428 34.16 72.23 34.436 71.966C34.712 71.69 34.934 71.336 35.102 70.904C35.282 70.472 35.372 69.944 35.372 69.32V68.96C35.372 68.384 35.282 67.892 35.102 67.484C34.934 67.076 34.712 66.74 34.436 66.476C34.16 66.212 33.842 66.02 33.482 65.9C33.122 65.78 32.762 65.72 32.402 65.72C32.042 65.72 31.682 65.78 31.322 65.9C30.962 66.02 30.644 66.212 30.368 66.476C30.092 66.74 29.864 67.076 29.684 67.484C29.516 67.892 29.432 68.384 29.432 68.96V69.32C29.432 69.944 29.516 70.472 29.684 70.904C29.864 71.336 30.092 71.69 30.368 71.966C30.644 72.23 30.962 72.428 31.322 72.56C31.682 72.68 32.042 72.74 32.402 72.74ZM39.2349 64.46H40.9269L44.3289 70.4L47.7309 64.46H49.3149V74H47.7309V67.07L44.9049 71.93H43.6449L40.8189 67.07V74H39.2349V64.46ZM52.19 64.46H60.11V74H58.526V65.864H53.774V74H52.19V64.46ZM65.701 74.18C65.173 74.18 64.705 74.108 64.297 73.964C63.901 73.808 63.565 73.598 63.289 73.334C63.013 73.07 62.803 72.758 62.659 72.398C62.515 72.038 62.443 71.642 62.443 71.21C62.443 70.262 62.719 69.578 63.271 69.158C63.835 68.738 64.639 68.528 65.683 68.528H68.779V67.88C68.779 67.064 68.593 66.5 68.221 66.188C67.861 65.876 67.315 65.72 66.583 65.72C65.899 65.72 65.401 65.852 65.089 66.116C64.777 66.368 64.603 66.656 64.567 66.98H62.983C63.007 66.596 63.109 66.242 63.289 65.918C63.481 65.582 63.733 65.294 64.045 65.054C64.369 64.814 64.753 64.628 65.197 64.496C65.641 64.352 66.133 64.28 66.673 64.28C67.801 64.28 68.695 64.55 69.355 65.09C70.027 65.618 70.363 66.488 70.363 67.7V71.57C70.363 72.074 70.363 72.518 70.363 72.902C70.375 73.274 70.405 73.64 70.453 74H69.067C69.031 73.724 69.007 73.466 68.995 73.226C68.983 72.974 68.977 72.692 68.977 72.38C68.725 72.884 68.317 73.31 67.753 73.658C67.189 74.006 66.505 74.18 65.701 74.18ZM66.043 72.74C66.415 72.74 66.763 72.692 67.087 72.596C67.423 72.488 67.717 72.338 67.969 72.146C68.221 71.942 68.419 71.696 68.563 71.408C68.707 71.12 68.779 70.784 68.779 70.4V69.752H65.953C65.365 69.752 64.903 69.872 64.567 70.112C64.231 70.34 64.063 70.706 64.063 71.21C64.063 71.654 64.219 72.02 64.531 72.308C64.855 72.596 65.359 72.74 66.043 72.74ZM73.1607 64.46H74.7447V68.438H79.6767V64.46H81.2607V74H79.6767V69.842H74.7447V74H73.1607V64.46ZM84.147 64.46H85.731V71.66L90.663 64.46H92.247V74H90.663V66.8L85.731 74H84.147V64.46ZM97.0054 70.22C96.2134 70.04 95.6434 69.716 95.2954 69.248C94.9474 68.768 94.7734 68.156 94.7734 67.412C94.7734 66.476 95.0554 65.75 95.6194 65.234C96.1954 64.718 97.1134 64.46 98.3734 64.46H102.513V74H100.929V70.364H98.4994L96.1774 74H94.4134L97.0054 70.22ZM96.3574 67.412C96.3574 67.916 96.5014 68.3 96.7894 68.564C97.0894 68.828 97.5874 68.96 98.2834 68.96H100.929V65.864H98.2834C97.5874 65.864 97.0894 65.996 96.7894 66.26C96.5014 66.524 96.3574 66.908 96.3574 67.412ZM113.859 74.18C113.247 74.18 112.665 74.084 112.113 73.892C111.561 73.688 111.075 73.388 110.655 72.992C110.235 72.584 109.899 72.074 109.647 71.462C109.395 70.85 109.269 70.136 109.269 69.32V68.96C109.269 68.192 109.395 67.514 109.647 66.926C109.899 66.338 110.235 65.852 110.655 65.468C111.075 65.072 111.561 64.778 112.113 64.586C112.665 64.382 113.247 64.28 113.859 64.28C114.471 64.28 115.053 64.382 115.605 64.586C116.157 64.778 116.643 65.072 117.063 65.468C117.483 65.852 117.819 66.338 118.071 66.926C118.323 67.514 118.449 68.192 118.449 68.96V69.32C118.449 70.136 118.323 70.85 118.071 71.462C117.819 72.074 117.483 72.584 117.063 72.992C116.643 73.388 116.157 73.688 115.605 73.892C115.053 74.084 114.471 74.18 113.859 74.18ZM113.859 72.74C114.219 72.74 114.579 72.68 114.939 72.56C115.299 72.428 115.617 72.23 115.893 71.966C116.169 71.69 116.391 71.336 116.559 70.904C116.739 70.472 116.829 69.944 116.829 69.32V68.96C116.829 68.384 116.739 67.892 116.559 67.484C116.391 67.076 116.169 66.74 115.893 66.476C115.617 66.212 115.299 66.02 114.939 65.9C114.579 65.78 114.219 65.72 113.859 65.72C113.499 65.72 113.139 65.78 112.779 65.9C112.419 66.02 112.101 66.212 111.825 66.476C111.549 66.74 111.321 67.076 111.141 67.484C110.973 67.892 110.889 68.384 110.889 68.96V69.32C110.889 69.944 110.973 70.472 111.141 70.904C111.321 71.336 111.549 71.69 111.825 71.966C112.101 72.23 112.419 72.428 112.779 72.56C113.139 72.68 113.499 72.74 113.859 72.74ZM124.382 74.18C123.77 74.18 123.2 74.084 122.672 73.892C122.144 73.688 121.688 73.388 121.304 72.992C120.92 72.584 120.614 72.074 120.386 71.462C120.17 70.85 120.062 70.136 120.062 69.32V68.96C120.062 68.192 120.182 67.514 120.422 66.926C120.662 66.338 120.98 65.852 121.376 65.468C121.772 65.072 122.228 64.778 122.744 64.586C123.272 64.382 123.818 64.28 124.382 64.28C124.946 64.28 125.45 64.358 125.894 64.514C126.35 64.67 126.74 64.886 127.064 65.162C127.4 65.438 127.67 65.762 127.874 66.134C128.09 66.506 128.246 66.908 128.342 67.34H126.722C126.626 67.112 126.512 66.902 126.38 66.71C126.26 66.506 126.104 66.332 125.912 66.188C125.732 66.044 125.516 65.93 125.264 65.846C125.012 65.762 124.718 65.72 124.382 65.72C124.034 65.72 123.698 65.786 123.374 65.918C123.05 66.038 122.762 66.23 122.51 66.494C122.258 66.746 122.054 67.076 121.898 67.484C121.754 67.892 121.682 68.384 121.682 68.96V69.32C121.682 69.932 121.754 70.46 121.898 70.904C122.054 71.336 122.258 71.69 122.51 71.966C122.762 72.23 123.05 72.428 123.374 72.56C123.698 72.68 124.034 72.74 124.382 72.74C124.97 72.74 125.462 72.596 125.858 72.308C126.266 72.02 126.554 71.624 126.722 71.12H128.342C128.114 72.068 127.646 72.818 126.938 73.37C126.23 73.91 125.378 74.18 124.382 74.18ZM132.679 65.864H129.421V64.46H137.521V65.864H134.263V74H132.679V65.864ZM141.691 74.18C141.163 74.18 140.695 74.108 140.287 73.964C139.891 73.808 139.555 73.598 139.279 73.334C139.003 73.07 138.793 72.758 138.649 72.398C138.505 72.038 138.433 71.642 138.433 71.21C138.433 70.262 138.709 69.578 139.261 69.158C139.825 68.738 140.629 68.528 141.673 68.528H144.769V67.88C144.769 67.064 144.583 66.5 144.211 66.188C143.851 65.876 143.305 65.72 142.573 65.72C141.889 65.72 141.391 65.852 141.079 66.116C140.767 66.368 140.593 66.656 140.557 66.98H138.973C138.997 66.596 139.099 66.242 139.279 65.918C139.471 65.582 139.723 65.294 140.035 65.054C140.359 64.814 140.743 64.628 141.187 64.496C141.631 64.352 142.123 64.28 142.663 64.28C143.791 64.28 144.685 64.55 145.345 65.09C146.017 65.618 146.353 66.488 146.353 67.7V71.57C146.353 72.074 146.353 72.518 146.353 72.902C146.365 73.274 146.395 73.64 146.443 74H145.057C145.021 73.724 144.997 73.466 144.985 73.226C144.973 72.974 144.967 72.692 144.967 72.38C144.715 72.884 144.307 73.31 143.743 73.658C143.179 74.006 142.495 74.18 141.691 74.18ZM142.033 72.74C142.405 72.74 142.753 72.692 143.077 72.596C143.413 72.488 143.707 72.338 143.959 72.146C144.211 71.942 144.409 71.696 144.553 71.408C144.697 71.12 144.769 70.784 144.769 70.4V69.752H141.943C141.355 69.752 140.893 69.872 140.557 70.112C140.221 70.34 140.053 70.706 140.053 71.21C140.053 71.654 140.209 72.02 140.521 72.308C140.845 72.596 141.349 72.74 142.033 72.74ZM148.701 74.18C148.521 74.18 148.341 74.162 148.161 74.126V72.542C148.221 72.554 148.311 72.56 148.431 72.56C148.695 72.56 148.923 72.476 149.115 72.308C149.319 72.14 149.481 71.846 149.601 71.426C149.721 71.006 149.811 70.436 149.871 69.716C149.931 68.996 149.961 68.084 149.961 66.98V64.46H156.801V74H155.217V65.864H151.545V67.34C151.545 68.672 151.485 69.776 151.365 70.652C151.245 71.528 151.065 72.23 150.825 72.758C150.597 73.274 150.303 73.64 149.943 73.856C149.583 74.072 149.169 74.18 148.701 74.18ZM162.398 74.18C161.87 74.18 161.402 74.108 160.994 73.964C160.598 73.808 160.262 73.598 159.986 73.334C159.71 73.07 159.5 72.758 159.356 72.398C159.212 72.038 159.14 71.642 159.14 71.21C159.14 70.262 159.416 69.578 159.968 69.158C160.532 68.738 161.336 68.528 162.38 68.528H165.476V67.88C165.476 67.064 165.29 66.5 164.918 66.188C164.558 65.876 164.012 65.72 163.28 65.72C162.596 65.72 162.098 65.852 161.786 66.116C161.474 66.368 161.3 66.656 161.264 66.98H159.68C159.704 66.596 159.806 66.242 159.986 65.918C160.178 65.582 160.43 65.294 160.742 65.054C161.066 64.814 161.45 64.628 161.894 64.496C162.338 64.352 162.83 64.28 163.37 64.28C164.498 64.28 165.392 64.55 166.052 65.09C166.724 65.618 167.06 66.488 167.06 67.7V71.57C167.06 72.074 167.06 72.518 167.06 72.902C167.072 73.274 167.102 73.64 167.15 74H165.764C165.728 73.724 165.704 73.466 165.692 73.226C165.68 72.974 165.674 72.692 165.674 72.38C165.422 72.884 165.014 73.31 164.45 73.658C163.886 74.006 163.202 74.18 162.398 74.18ZM162.74 72.74C163.112 72.74 163.46 72.692 163.784 72.596C164.12 72.488 164.414 72.338 164.666 72.146C164.918 71.942 165.116 71.696 165.26 71.408C165.404 71.12 165.476 70.784 165.476 70.4V69.752H162.65C162.062 69.752 161.6 69.872 161.264 70.112C160.928 70.34 160.76 70.706 160.76 71.21C160.76 71.654 160.916 72.02 161.228 72.308C161.552 72.596 162.056 72.74 162.74 72.74ZM173.548 74.18C172.936 74.18 172.366 74.084 171.838 73.892C171.31 73.688 170.854 73.388 170.47 72.992C170.086 72.584 169.78 72.074 169.552 71.462C169.336 70.85 169.228 70.136 169.228 69.32V68.96C169.228 68.192 169.348 67.514 169.588 66.926C169.828 66.338 170.146 65.852 170.542 65.468C170.938 65.072 171.394 64.778 171.91 64.586C172.438 64.382 172.984 64.28 173.548 64.28C174.112 64.28 174.616 64.358 175.06 64.514C175.516 64.67 175.906 64.886 176.23 65.162C176.566 65.438 176.836 65.762 177.04 66.134C177.256 66.506 177.412 66.908 177.508 67.34H175.888C175.792 67.112 175.678 66.902 175.546 66.71C175.426 66.506 175.27 66.332 175.078 66.188C174.898 66.044 174.682 65.93 174.43 65.846C174.178 65.762 173.884 65.72 173.548 65.72C173.2 65.72 172.864 65.786 172.54 65.918C172.216 66.038 171.928 66.23 171.676 66.494C171.424 66.746 171.22 67.076 171.064 67.484C170.92 67.892 170.848 68.384 170.848 68.96V69.32C170.848 69.932 170.92 70.46 171.064 70.904C171.22 71.336 171.424 71.69 171.676 71.966C171.928 72.23 172.216 72.428 172.54 72.56C172.864 72.68 173.2 72.74 173.548 72.74C174.136 72.74 174.628 72.596 175.024 72.308C175.432 72.02 175.72 71.624 175.888 71.12H177.508C177.28 72.068 176.812 72.818 176.104 73.37C175.396 73.91 174.544 74.18 173.548 74.18ZM179.667 64.46H181.251V68.06H183.537C184.737 68.06 185.619 68.324 186.183 68.852C186.759 69.38 187.047 70.112 187.047 71.048C187.047 71.96 186.759 72.68 186.183 73.208C185.619 73.736 184.737 74 183.537 74H179.667V64.46ZM183.447 72.596C184.191 72.596 184.713 72.464 185.013 72.2C185.313 71.936 185.463 71.546 185.463 71.03C185.463 70.514 185.313 70.124 185.013 69.86C184.713 69.596 184.191 69.464 183.447 69.464H181.251V72.596H183.447ZM192.544 72.596H193.714C193.846 72.416 193.966 72.14 194.074 71.768C194.182 71.396 194.278 70.958 194.362 70.454C194.446 69.95 194.506 69.404 194.542 68.816C194.59 68.216 194.614 67.604 194.614 66.98V64.46H201.274V72.596H202.624V76.25H201.112V74H194.056V76.25H192.544V72.596ZM199.69 72.596V65.864H196.162V67.34C196.162 67.844 196.144 68.348 196.108 68.852C196.072 69.344 196.018 69.818 195.946 70.274C195.874 70.718 195.784 71.144 195.676 71.552C195.58 71.948 195.466 72.296 195.334 72.596H199.69ZM208.482 74.18C207.87 74.18 207.288 74.084 206.736 73.892C206.184 73.688 205.698 73.388 205.278 72.992C204.858 72.584 204.522 72.074 204.27 71.462C204.018 70.85 203.892 70.136 203.892 69.32V68.96C203.892 68.192 204.018 67.514 204.27 66.926C204.522 66.338 204.858 65.852 205.278 65.468C205.698 65.072 206.184 64.778 206.736 64.586C207.288 64.382 207.87 64.28 208.482 64.28C209.094 64.28 209.676 64.382 210.228 64.586C210.78 64.778 211.266 65.072 211.686 65.468C212.106 65.852 212.442 66.338 212.694 66.926C212.946 67.514 213.072 68.192 213.072 68.96V69.32C213.072 70.136 212.946 70.85 212.694 71.462C212.442 72.074 212.106 72.584 211.686 72.992C211.266 73.388 210.78 73.688 210.228 73.892C209.676 74.084 209.094 74.18 208.482 74.18ZM208.482 72.74C208.842 72.74 209.202 72.68 209.562 72.56C209.922 72.428 210.24 72.23 210.516 71.966C210.792 71.69 211.014 71.336 211.182 70.904C211.362 70.472 211.452 69.944 211.452 69.32V68.96C211.452 68.384 211.362 67.892 211.182 67.484C211.014 67.076 210.792 66.74 210.516 66.476C210.24 66.212 209.922 66.02 209.562 65.9C209.202 65.78 208.842 65.72 208.482 65.72C208.122 65.72 207.762 65.78 207.402 65.9C207.042 66.02 206.724 66.212 206.448 66.476C206.172 66.74 205.944 67.076 205.764 67.484C205.596 67.892 205.512 68.384 205.512 68.96V69.32C205.512 69.944 205.596 70.472 205.764 70.904C205.944 71.336 206.172 71.69 206.448 71.966C206.724 72.23 207.042 72.428 207.402 72.56C207.762 72.68 208.122 72.74 208.482 72.74ZM215.315 64.46H219.455C220.631 64.46 221.495 64.706 222.047 65.198C222.599 65.678 222.875 66.302 222.875 67.07C222.875 67.274 222.839 67.484 222.767 67.7C222.695 67.904 222.593 68.096 222.461 68.276C222.341 68.456 222.191 68.612 222.011 68.744C221.843 68.876 221.651 68.978 221.435 69.05C222.023 69.194 222.467 69.47 222.767 69.878C223.079 70.274 223.235 70.742 223.235 71.282C223.235 72.11 222.959 72.77 222.407 73.262C221.855 73.754 220.991 74 219.815 74H215.315V64.46ZM219.815 72.596C220.487 72.596 220.961 72.476 221.237 72.236C221.513 71.996 221.651 71.654 221.651 71.21C221.651 70.754 221.513 70.406 221.237 70.166C220.961 69.914 220.487 69.788 219.815 69.788H216.899V72.596H219.815ZM219.455 68.492C220.139 68.492 220.613 68.372 220.877 68.132C221.153 67.892 221.291 67.562 221.291 67.142C221.291 66.746 221.153 66.434 220.877 66.206C220.613 65.978 220.139 65.864 219.455 65.864H216.899V68.492H219.455ZM229.453 74.18C228.841 74.18 228.259 74.084 227.707 73.892C227.155 73.688 226.669 73.388 226.249 72.992C225.829 72.584 225.493 72.074 225.241 71.462C224.989 70.85 224.863 70.136 224.863 69.32V68.96C224.863 68.192 224.989 67.514 225.241 66.926C225.493 66.338 225.829 65.852 226.249 65.468C226.669 65.072 227.155 64.778 227.707 64.586C228.259 64.382 228.841 64.28 229.453 64.28C230.065 64.28 230.647 64.382 231.199 64.586C231.751 64.778 232.237 65.072 232.657 65.468C233.077 65.852 233.413 66.338 233.665 66.926C233.917 67.514 234.043 68.192 234.043 68.96V69.32C234.043 70.136 233.917 70.85 233.665 71.462C233.413 72.074 233.077 72.584 232.657 72.992C232.237 73.388 231.751 73.688 231.199 73.892C230.647 74.084 230.065 74.18 229.453 74.18ZM229.453 72.74C229.813 72.74 230.173 72.68 230.533 72.56C230.893 72.428 231.211 72.23 231.487 71.966C231.763 71.69 231.985 71.336 232.153 70.904C232.333 70.472 232.423 69.944 232.423 69.32V68.96C232.423 68.384 232.333 67.892 232.153 67.484C231.985 67.076 231.763 66.74 231.487 66.476C231.211 66.212 230.893 66.02 230.533 65.9C230.173 65.78 229.813 65.72 229.453 65.72C229.093 65.72 228.733 65.78 228.373 65.9C228.013 66.02 227.695 66.212 227.419 66.476C227.143 66.74 226.915 67.076 226.735 67.484C226.567 67.892 226.483 68.384 226.483 68.96V69.32C226.483 69.944 226.567 70.472 226.735 70.904C226.915 71.336 227.143 71.69 227.419 71.966C227.695 72.23 228.013 72.428 228.373 72.56C228.733 72.68 229.093 72.74 229.453 72.74ZM235.66 74.18C235.48 74.18 235.3 74.162 235.12 74.126V72.542C235.18 72.554 235.27 72.56 235.39 72.56C235.654 72.56 235.882 72.476 236.074 72.308C236.278 72.14 236.44 71.846 236.56 71.426C236.68 71.006 236.77 70.436 236.83 69.716C236.89 68.996 236.92 68.084 236.92 66.98V64.46H243.76V74H242.176V65.864H238.504V67.34C238.504 68.672 238.444 69.776 238.324 70.652C238.204 71.528 238.024 72.23 237.784 72.758C237.556 73.274 237.262 73.64 236.902 73.856C236.542 74.072 236.128 74.18 235.66 74.18ZM246.639 64.46H248.223V68.06H250.509C251.709 68.06 252.591 68.324 253.155 68.852C253.731 69.38 254.019 70.112 254.019 71.048C254.019 71.96 253.731 72.68 253.155 73.208C252.591 73.736 251.709 74 250.509 74H246.639V64.46ZM250.419 72.596C251.163 72.596 251.685 72.464 251.985 72.2C252.285 71.936 252.435 71.546 252.435 71.03C252.435 70.514 252.285 70.124 251.985 69.86C251.685 69.596 251.163 69.464 250.419 69.464H248.223V72.596H250.419ZM256.096 64.46H257.68V68.438H262.612V64.46H264.196V74H262.612V69.842H257.68V74H256.096V64.46ZM269.801 74.18C269.273 74.18 268.805 74.108 268.397 73.964C268.001 73.808 267.665 73.598 267.389 73.334C267.113 73.07 266.903 72.758 266.759 72.398C266.615 72.038 266.543 71.642 266.543 71.21C266.543 70.262 266.819 69.578 267.371 69.158C267.935 68.738 268.739 68.528 269.783 68.528H272.879V67.88C272.879 67.064 272.693 66.5 272.321 66.188C271.961 65.876 271.415 65.72 270.683 65.72C269.999 65.72 269.501 65.852 269.189 66.116C268.877 66.368 268.703 66.656 268.667 66.98H267.083C267.107 66.596 267.209 66.242 267.389 65.918C267.581 65.582 267.833 65.294 268.145 65.054C268.469 64.814 268.853 64.628 269.297 64.496C269.741 64.352 270.233 64.28 270.773 64.28C271.901 64.28 272.795 64.55 273.455 65.09C274.127 65.618 274.463 66.488 274.463 67.7V71.57C274.463 72.074 274.463 72.518 274.463 72.902C274.475 73.274 274.505 73.64 274.553 74H273.167C273.131 73.724 273.107 73.466 273.095 73.226C273.083 72.974 273.077 72.692 273.077 72.38C272.825 72.884 272.417 73.31 271.853 73.658C271.289 74.006 270.605 74.18 269.801 74.18ZM270.143 72.74C270.515 72.74 270.863 72.692 271.187 72.596C271.523 72.488 271.817 72.338 272.069 72.146C272.321 71.942 272.519 71.696 272.663 71.408C272.807 71.12 272.879 70.784 272.879 70.4V69.752H270.053C269.465 69.752 269.003 69.872 268.667 70.112C268.331 70.34 268.163 70.706 268.163 71.21C268.163 71.654 268.319 72.02 268.631 72.308C268.955 72.596 269.459 72.74 270.143 72.74ZM18.44 85.46H19.916V87.26C20.24 86.624 20.69 86.138 21.266 85.802C21.854 85.454 22.532 85.28 23.3 85.28C24.5 85.28 25.46 85.676 26.18 86.468C26.9 87.248 27.26 88.412 27.26 89.96V90.32C27.26 91.136 27.164 91.85 26.972 92.462C26.78 93.062 26.51 93.566 26.162 93.974C25.814 94.37 25.394 94.67 24.902 94.874C24.422 95.078 23.888 95.18 23.3 95.18C22.484 95.18 21.8 95 21.248 94.64C20.708 94.28 20.3 93.83 20.024 93.29V98.6H18.44V85.46ZM22.94 93.776C23.324 93.776 23.684 93.704 24.02 93.56C24.356 93.404 24.644 93.182 24.884 92.894C25.136 92.606 25.328 92.246 25.46 91.814C25.604 91.382 25.676 90.884 25.676 90.32V89.96C25.676 89.444 25.604 88.982 25.46 88.574C25.328 88.166 25.136 87.824 24.884 87.548C24.644 87.26 24.356 87.044 24.02 86.9C23.684 86.756 23.324 86.684 22.94 86.684C22.508 86.684 22.112 86.756 21.752 86.9C21.392 87.032 21.086 87.224 20.834 87.476C20.582 87.716 20.384 88.004 20.24 88.34C20.096 88.676 20.024 89.036 20.024 89.42V90.86C20.024 91.292 20.096 91.688 20.24 92.048C20.384 92.408 20.582 92.714 20.834 92.966C21.086 93.218 21.392 93.416 21.752 93.56C22.112 93.704 22.508 93.776 22.94 93.776ZM33.4742 95.18C32.8622 95.18 32.2802 95.084 31.7282 94.892C31.1762 94.7 30.6902 94.406 30.2702 94.01C29.8502 93.602 29.5142 93.092 29.2622 92.48C29.0102 91.868 28.8842 91.148 28.8842 90.32V89.96C28.8842 89.168 29.0042 88.484 29.2442 87.908C29.4842 87.32 29.8022 86.834 30.1982 86.45C30.6062 86.054 31.0742 85.76 31.6022 85.568C32.1422 85.376 32.7062 85.28 33.2942 85.28C34.6982 85.28 35.7842 85.664 36.5522 86.432C37.3202 87.2 37.7042 88.286 37.7042 89.69V90.698H30.4682C30.4682 91.262 30.5582 91.736 30.7382 92.12C30.9182 92.504 31.1522 92.816 31.4402 93.056C31.7282 93.296 32.0462 93.47 32.3942 93.578C32.7542 93.686 33.1142 93.74 33.4742 93.74C34.1942 93.74 34.7462 93.62 35.1302 93.38C35.5262 93.14 35.8082 92.81 35.9762 92.39H37.5242C37.4282 92.846 37.2542 93.248 37.0022 93.596C36.7622 93.944 36.4622 94.238 36.1022 94.478C35.7542 94.706 35.3522 94.88 34.8962 95C34.4522 95.12 33.9782 95.18 33.4742 95.18ZM33.3842 86.72C33.0122 86.72 32.6522 86.774 32.3042 86.882C31.9562 86.978 31.6442 87.14 31.3682 87.368C31.1042 87.584 30.8882 87.86 30.7202 88.196C30.5522 88.532 30.4682 88.934 30.4682 89.402H36.2102C36.1982 88.91 36.1142 88.496 35.9582 88.16C35.8142 87.812 35.6162 87.536 35.3642 87.332C35.1122 87.116 34.8122 86.96 34.4642 86.864C34.1282 86.768 33.7682 86.72 33.3842 86.72ZM43.1956 95.18C41.9956 95.18 41.0536 94.928 40.3696 94.424C39.6856 93.92 39.3076 93.212 39.2356 92.3H40.8196C40.9036 92.768 41.1496 93.128 41.5576 93.38C41.9776 93.62 42.5236 93.74 43.1956 93.74C44.0236 93.74 44.6236 93.602 44.9956 93.326C45.3796 93.038 45.5716 92.696 45.5716 92.3C45.5716 91.832 45.4156 91.466 45.1036 91.202C44.7916 90.926 44.2516 90.788 43.4836 90.788H41.8456V89.492H43.3756C44.0356 89.492 44.5036 89.366 44.7796 89.114C45.0676 88.862 45.2116 88.508 45.2116 88.052C45.2116 87.692 45.0436 87.38 44.7076 87.116C44.3716 86.852 43.8676 86.72 43.1956 86.72C42.4636 86.72 41.9296 86.84 41.5936 87.08C41.2696 87.308 41.0716 87.638 40.9996 88.07H39.4156C39.4516 87.674 39.5596 87.308 39.7396 86.972C39.9316 86.624 40.1896 86.324 40.5136 86.072C40.8376 85.82 41.2216 85.628 41.6656 85.496C42.1216 85.352 42.6316 85.28 43.1956 85.28C43.8076 85.28 44.3356 85.352 44.7796 85.496C45.2356 85.628 45.6136 85.82 45.9136 86.072C46.2136 86.312 46.4356 86.6 46.5796 86.936C46.7236 87.272 46.7956 87.644 46.7956 88.052C46.7956 88.508 46.6816 88.91 46.4536 89.258C46.2256 89.594 45.8596 89.858 45.3556 90.05C46.0276 90.23 46.4956 90.518 46.7596 90.914C47.0236 91.31 47.1556 91.772 47.1556 92.3C47.1556 92.696 47.0716 93.068 46.9036 93.416C46.7356 93.764 46.4836 94.07 46.1476 94.334C45.8236 94.586 45.4096 94.79 44.9056 94.946C44.4136 95.102 43.8436 95.18 43.1956 95.18ZM50.3211 98.78C50.1411 98.78 49.9611 98.762 49.7811 98.726V97.286C49.9611 97.322 50.1411 97.34 50.3211 97.34C50.5011 97.34 50.6571 97.31 50.7891 97.25C50.9211 97.19 51.0471 97.076 51.1671 96.908C51.2871 96.74 51.4131 96.5 51.5451 96.188C51.6891 95.888 51.8511 95.492 52.0311 95L47.9811 85.46H49.7451L52.8411 93.2L55.6491 85.46H57.3411L53.7411 95C53.4891 95.672 53.2491 96.248 53.0211 96.728C52.7931 97.208 52.5471 97.598 52.2831 97.898C52.0311 98.21 51.7491 98.432 51.4371 98.564C51.1251 98.708 50.7531 98.78 50.3211 98.78ZM58.3318 95.18C58.1518 95.18 57.9718 95.162 57.7918 95.126V93.542C57.8518 93.554 57.9418 93.56 58.0618 93.56C58.3258 93.56 58.5538 93.476 58.7458 93.308C58.9498 93.14 59.1118 92.846 59.2318 92.426C59.3518 92.006 59.4418 91.436 59.5018 90.716C59.5618 89.996 59.5918 89.084 59.5918 87.98V85.46H66.4318V95H64.8478V86.864H61.1758V88.34C61.1758 89.672 61.1158 90.776 60.9958 91.652C60.8758 92.528 60.6958 93.23 60.4558 93.758C60.2278 94.274 59.9338 94.64 59.5738 94.856C59.2138 95.072 58.7998 95.18 58.3318 95.18ZM69.3111 85.46H70.8951V89.06H73.1811C74.3811 89.06 75.2631 89.324 75.8271 89.852C76.4031 90.38 76.6911 91.112 76.6911 92.048C76.6911 92.96 76.4031 93.68 75.8271 94.208C75.2631 94.736 74.3811 95 73.1811 95H69.3111V85.46ZM73.0911 93.596C73.8351 93.596 74.3571 93.464 74.6571 93.2C74.9571 92.936 75.1071 92.546 75.1071 92.03C75.1071 91.514 74.9571 91.124 74.6571 90.86C74.3571 90.596 73.8351 90.464 73.0911 90.464H70.8951V93.596H73.0911ZM80.0496 86.864H76.7916V85.46H84.8916V86.864H81.6336V95H80.0496V86.864ZM89.0623 95.18C88.5343 95.18 88.0663 95.108 87.6583 94.964C87.2623 94.808 86.9263 94.598 86.6503 94.334C86.3743 94.07 86.1643 93.758 86.0203 93.398C85.8763 93.038 85.8043 92.642 85.8043 92.21C85.8043 91.262 86.0803 90.578 86.6323 90.158C87.1963 89.738 88.0003 89.528 89.0443 89.528H92.1403V88.88C92.1403 88.064 91.9543 87.5 91.5823 87.188C91.2223 86.876 90.6763 86.72 89.9443 86.72C89.2603 86.72 88.7623 86.852 88.4503 87.116C88.1383 87.368 87.9643 87.656 87.9283 87.98H86.3443C86.3683 87.596 86.4703 87.242 86.6503 86.918C86.8423 86.582 87.0943 86.294 87.4063 86.054C87.7303 85.814 88.1143 85.628 88.5583 85.496C89.0023 85.352 89.4943 85.28 90.0343 85.28C91.1623 85.28 92.0563 85.55 92.7163 86.09C93.3883 86.618 93.7243 87.488 93.7243 88.7V92.57C93.7243 93.074 93.7243 93.518 93.7243 93.902C93.7363 94.274 93.7663 94.64 93.8143 95H92.4283C92.3923 94.724 92.3683 94.466 92.3563 94.226C92.3443 93.974 92.3383 93.692 92.3383 93.38C92.0863 93.884 91.6783 94.31 91.1143 94.658C90.5503 95.006 89.8663 95.18 89.0623 95.18ZM89.4043 93.74C89.7763 93.74 90.1243 93.692 90.4483 93.596C90.7843 93.488 91.0783 93.338 91.3303 93.146C91.5823 92.942 91.7803 92.696 91.9243 92.408C92.0683 92.12 92.1403 91.784 92.1403 91.4V90.752H89.3143C88.7263 90.752 88.2643 90.872 87.9283 91.112C87.5923 91.34 87.4243 91.706 87.4243 92.21C87.4243 92.654 87.5803 93.02 87.8923 93.308C88.2163 93.596 88.7203 93.74 89.4043 93.74ZM98.5243 86.864H95.2663V85.46H103.366V86.864H100.108V95H98.5243V86.864ZM107.537 95.18C107.009 95.18 106.541 95.108 106.133 94.964C105.737 94.808 105.401 94.598 105.125 94.334C104.849 94.07 104.639 93.758 104.495 93.398C104.351 93.038 104.279 92.642 104.279 92.21C104.279 91.262 104.555 90.578 105.107 90.158C105.671 89.738 106.475 89.528 107.519 89.528H110.615V88.88C110.615 88.064 110.429 87.5 110.057 87.188C109.697 86.876 109.151 86.72 108.419 86.72C107.735 86.72 107.237 86.852 106.925 87.116C106.613 87.368 106.439 87.656 106.403 87.98H104.819C104.843 87.596 104.945 87.242 105.125 86.918C105.317 86.582 105.569 86.294 105.881 86.054C106.205 85.814 106.589 85.628 107.033 85.496C107.477 85.352 107.969 85.28 108.509 85.28C109.637 85.28 110.531 85.55 111.191 86.09C111.863 86.618 112.199 87.488 112.199 88.7V92.57C112.199 93.074 112.199 93.518 112.199 93.902C112.211 94.274 112.241 94.64 112.289 95H110.903C110.867 94.724 110.843 94.466 110.831 94.226C110.819 93.974 110.813 93.692 110.813 93.38C110.561 93.884 110.153 94.31 109.589 94.658C109.025 95.006 108.341 95.18 107.537 95.18ZM107.879 93.74C108.251 93.74 108.599 93.692 108.923 93.596C109.259 93.488 109.553 93.338 109.805 93.146C110.057 92.942 110.255 92.696 110.399 92.408C110.543 92.12 110.615 91.784 110.615 91.4V90.752H107.789C107.201 90.752 106.739 90.872 106.403 91.112C106.067 91.34 105.899 91.706 105.899 92.21C105.899 92.654 106.055 93.02 106.367 93.308C106.691 93.596 107.195 93.74 107.879 93.74ZM114.997 85.46H116.689L120.091 91.4L123.493 85.46H125.077V95H123.493V88.07L120.667 92.93H119.407L116.581 88.07V95H114.997V85.46ZM127.952 85.46H129.536V92.66L134.468 85.46H136.052V95H134.468V87.8L129.536 95H127.952V85.46Z" fill="black" fill-opacity="0.6"></path> <path d="M18.8 142.4H28.7V155H27.008V143.876H20.492V155H18.8V142.4ZM35.9 155.18C35.288 155.18 34.706 155.084 34.154 154.892C33.602 154.688 33.116 154.388 32.696 153.992C32.276 153.584 31.94 153.074 31.688 152.462C31.436 151.85 31.31 151.136 31.31 150.32V149.96C31.31 149.192 31.436 148.514 31.688 147.926C31.94 147.338 32.276 146.852 32.696 146.468C33.116 146.072 33.602 145.778 34.154 145.586C34.706 145.382 35.288 145.28 35.9 145.28C36.512 145.28 37.094 145.382 37.646 145.586C38.198 145.778 38.684 146.072 39.104 146.468C39.524 146.852 39.86 147.338 40.112 147.926C40.364 148.514 40.49 149.192 40.49 149.96V150.32C40.49 151.136 40.364 151.85 40.112 152.462C39.86 153.074 39.524 153.584 39.104 153.992C38.684 154.388 38.198 154.688 37.646 154.892C37.094 155.084 36.512 155.18 35.9 155.18ZM35.9 153.74C36.26 153.74 36.62 153.68 36.98 153.56C37.34 153.428 37.658 153.23 37.934 152.966C38.21 152.69 38.432 152.336 38.6 151.904C38.78 151.472 38.87 150.944 38.87 150.32V149.96C38.87 149.384 38.78 148.892 38.6 148.484C38.432 148.076 38.21 147.74 37.934 147.476C37.658 147.212 37.34 147.02 36.98 146.9C36.62 146.78 36.26 146.72 35.9 146.72C35.54 146.72 35.18 146.78 34.82 146.9C34.46 147.02 34.142 147.212 33.866 147.476C33.59 147.74 33.362 148.076 33.182 148.484C33.014 148.892 32.93 149.384 32.93 149.96V150.32C32.93 150.944 33.014 151.472 33.182 151.904C33.362 152.336 33.59 152.69 33.866 152.966C34.142 153.23 34.46 153.428 34.82 153.56C35.18 153.68 35.54 153.74 35.9 153.74ZM42.1072 155.18C41.9272 155.18 41.7472 155.162 41.5672 155.126V153.542C41.6272 153.554 41.7172 153.56 41.8372 153.56C42.1012 153.56 42.3292 153.476 42.5212 153.308C42.7252 153.14 42.8872 152.846 43.0072 152.426C43.1272 152.006 43.2172 151.436 43.2772 150.716C43.3372 149.996 43.3672 149.084 43.3672 147.98V145.46H50.2072V155H48.6232V146.864H44.9512V148.34C44.9512 149.672 44.8912 150.776 44.7712 151.652C44.6512 152.528 44.4712 153.23 44.2312 153.758C44.0032 154.274 43.7092 154.64 43.3492 154.856C42.9892 155.072 42.5752 155.18 42.1072 155.18ZM54.3465 158.78C54.1665 158.78 53.9865 158.762 53.8065 158.726V157.286C53.9865 157.322 54.1665 157.34 54.3465 157.34C54.5265 157.34 54.6825 157.31 54.8145 157.25C54.9465 157.19 55.0725 157.076 55.1925 156.908C55.3125 156.74 55.4385 156.5 55.5705 156.188C55.7145 155.888 55.8765 155.492 56.0565 155L52.0065 145.46H53.7705L56.8665 153.2L59.6745 145.46H61.3665L57.7665 155C57.5145 155.672 57.2745 156.248 57.0465 156.728C56.8185 157.208 56.5725 157.598 56.3085 157.898C56.0565 158.21 55.7745 158.432 55.4625 158.564C55.1505 158.708 54.7785 158.78 54.3465 158.78ZM68.8605 151.202C68.5845 151.37 68.2485 151.52 67.8525 151.652C67.4685 151.784 66.9825 151.85 66.3945 151.85C65.8425 151.85 65.3445 151.79 64.9005 151.67C64.4685 151.55 64.1025 151.358 63.8025 151.094C63.5025 150.83 63.2745 150.488 63.1185 150.068C62.9625 149.648 62.8845 149.132 62.8845 148.52V145.46H64.4685V148.25C64.4685 148.658 64.5045 149 64.5765 149.276C64.6605 149.552 64.7925 149.774 64.9725 149.942C65.1525 150.11 65.3805 150.23 65.6565 150.302C65.9325 150.374 66.2685 150.41 66.6645 150.41C67.2045 150.41 67.6665 150.356 68.0505 150.248C68.4345 150.14 68.7045 150.026 68.8605 149.906V145.46H70.4445V155H68.8605V151.202ZM73.3189 145.46H74.9029V152.66L79.8349 145.46H81.4189V155H79.8349V147.8L74.9029 155H73.3189V145.46ZM83.8552 155.18C83.6752 155.18 83.4952 155.162 83.3152 155.126V153.542C83.3752 153.554 83.4652 153.56 83.5852 153.56C83.8492 153.56 84.0772 153.476 84.2692 153.308C84.4732 153.14 84.6352 152.846 84.7552 152.426C84.8752 152.006 84.9652 151.436 85.0252 150.716C85.0852 149.996 85.1152 149.084 85.1152 147.98V145.46H91.9552V155H90.3712V146.864H86.6992V148.34C86.6992 149.672 86.6392 150.776 86.5192 151.652C86.3992 152.528 86.2192 153.23 85.9792 153.758C85.7512 154.274 85.4572 154.64 85.0972 154.856C84.7372 155.072 84.3232 155.18 83.8552 155.18ZM98.5245 155.18C97.9125 155.18 97.3425 155.084 96.8145 154.892C96.2865 154.688 95.8305 154.388 95.4465 153.992C95.0625 153.584 94.7565 153.074 94.5285 152.462C94.3125 151.85 94.2045 151.136 94.2045 150.32V149.96C94.2045 149.192 94.3245 148.514 94.5645 147.926C94.8045 147.338 95.1225 146.852 95.5185 146.468C95.9145 146.072 96.3705 145.778 96.8865 145.586C97.4145 145.382 97.9605 145.28 98.5245 145.28C99.0885 145.28 99.5925 145.358 100.037 145.514C100.493 145.67 100.883 145.886 101.207 146.162C101.543 146.438 101.813 146.762 102.017 147.134C102.233 147.506 102.389 147.908 102.485 148.34H100.865C100.769 148.112 100.655 147.902 100.523 147.71C100.403 147.506 100.247 147.332 100.055 147.188C99.8745 147.044 99.6585 146.93 99.4065 146.846C99.1545 146.762 98.8605 146.72 98.5245 146.72C98.1765 146.72 97.8405 146.786 97.5165 146.918C97.1925 147.038 96.9045 147.23 96.6525 147.494C96.4005 147.746 96.1965 148.076 96.0405 148.484C95.8965 148.892 95.8245 149.384 95.8245 149.96V150.32C95.8245 150.932 95.8965 151.46 96.0405 151.904C96.1965 152.336 96.4005 152.69 96.6525 152.966C96.9045 153.23 97.1925 153.428 97.5165 153.56C97.8405 153.68 98.1765 153.74 98.5245 153.74C99.1125 153.74 99.6045 153.596 100.001 153.308C100.409 153.02 100.697 152.624 100.865 152.12H102.485C102.257 153.068 101.789 153.818 101.081 154.37C100.373 154.91 99.5205 155.18 98.5245 155.18ZM106.515 151.22C105.723 151.04 105.153 150.716 104.805 150.248C104.457 149.768 104.283 149.156 104.283 148.412C104.283 147.476 104.565 146.75 105.129 146.234C105.705 145.718 106.623 145.46 107.883 145.46H112.023V155H110.439V151.364H108.009L105.687 155H103.923L106.515 151.22ZM105.867 148.412C105.867 148.916 106.011 149.3 106.299 149.564C106.599 149.828 107.097 149.96 107.793 149.96H110.439V146.864H107.793C107.097 146.864 106.599 146.996 106.299 147.26C106.011 147.524 105.867 147.908 105.867 148.412ZM22.4 176.18C21.788 176.18 21.206 176.084 20.654 175.892C20.102 175.688 19.616 175.388 19.196 174.992C18.776 174.584 18.44 174.074 18.188 173.462C17.936 172.85 17.81 172.136 17.81 171.32V170.96C17.81 170.192 17.936 169.514 18.188 168.926C18.44 168.338 18.776 167.852 19.196 167.468C19.616 167.072 20.102 166.778 20.654 166.586C21.206 166.382 21.788 166.28 22.4 166.28C23.012 166.28 23.594 166.382 24.146 166.586C24.698 166.778 25.184 167.072 25.604 167.468C26.024 167.852 26.36 168.338 26.612 168.926C26.864 169.514 26.99 170.192 26.99 170.96V171.32C26.99 172.136 26.864 172.85 26.612 173.462C26.36 174.074 26.024 174.584 25.604 174.992C25.184 175.388 24.698 175.688 24.146 175.892C23.594 176.084 23.012 176.18 22.4 176.18ZM22.4 174.74C22.76 174.74 23.12 174.68 23.48 174.56C23.84 174.428 24.158 174.23 24.434 173.966C24.71 173.69 24.932 173.336 25.1 172.904C25.28 172.472 25.37 171.944 25.37 171.32V170.96C25.37 170.384 25.28 169.892 25.1 169.484C24.932 169.076 24.71 168.74 24.434 168.476C24.158 168.212 23.84 168.02 23.48 167.9C23.12 167.78 22.76 167.72 22.4 167.72C22.04 167.72 21.68 167.78 21.32 167.9C20.96 168.02 20.642 168.212 20.366 168.476C20.09 168.74 19.862 169.076 19.682 169.484C19.514 169.892 19.43 170.384 19.43 170.96V171.32C19.43 171.944 19.514 172.472 19.682 172.904C19.862 173.336 20.09 173.69 20.366 173.966C20.642 174.23 20.96 174.428 21.32 174.56C21.68 174.68 22.04 174.74 22.4 174.74ZM31.2352 167.864H27.9772V166.46H36.0772V167.864H32.8192V176H31.2352V167.864ZM36.7107 176.18C36.5307 176.18 36.3507 176.162 36.1707 176.126V174.542C36.2307 174.554 36.3207 174.56 36.4407 174.56C36.7047 174.56 36.9327 174.476 37.1247 174.308C37.3287 174.14 37.4907 173.846 37.6107 173.426C37.7307 173.006 37.8207 172.436 37.8807 171.716C37.9407 170.996 37.9707 170.084 37.9707 168.98V166.46H44.8107V176H43.2267V167.864H39.5547V169.34C39.5547 170.672 39.4947 171.776 39.3747 172.652C39.2547 173.528 39.0747 174.23 38.8347 174.758C38.6067 175.274 38.3127 175.64 37.9527 175.856C37.5927 176.072 37.1787 176.18 36.7107 176.18ZM47.69 166.46H49.274V173.66L54.206 166.46H55.79V176H54.206V168.8L49.274 176H47.69V166.46ZM64.2023 172.202C63.9263 172.37 63.5903 172.52 63.1943 172.652C62.8103 172.784 62.3243 172.85 61.7363 172.85C61.1843 172.85 60.6863 172.79 60.2423 172.67C59.8103 172.55 59.4443 172.358 59.1443 172.094C58.8443 171.83 58.6163 171.488 58.4603 171.068C58.3043 170.648 58.2263 170.132 58.2263 169.52V166.46H59.8103V169.25C59.8103 169.658 59.8463 170 59.9183 170.276C60.0023 170.552 60.1343 170.774 60.3143 170.942C60.4943 171.11 60.7223 171.23 60.9983 171.302C61.2743 171.374 61.6103 171.41 62.0063 171.41C62.5463 171.41 63.0083 171.356 63.3923 171.248C63.7763 171.14 64.0463 171.026 64.2023 170.906V166.46H65.7863V176H64.2023V172.202ZM68.6607 166.46H70.2447V170.438H75.1767V166.46H76.7607V176H75.1767V171.842H70.2447V176H68.6607V166.46ZM79.647 166.46H81.231V170.06H83.157C84.357 170.06 85.239 170.324 85.803 170.852C86.379 171.38 86.667 172.112 86.667 173.048C86.667 173.96 86.379 174.68 85.803 175.208C85.239 175.736 84.357 176 83.157 176H79.647V166.46ZM83.067 174.596C83.811 174.596 84.333 174.464 84.633 174.2C84.933 173.936 85.083 173.546 85.083 173.03C85.083 172.514 84.933 172.124 84.633 171.86C84.333 171.596 83.811 171.464 83.067 171.464H81.231V174.596H83.067ZM88.143 166.46H89.727V176H88.143V166.46ZM92.6021 166.46H94.1861V173.66L99.1181 166.46H100.702V176H99.1181V168.8L94.1861 176H92.6021V166.46ZM96.6521 165.29C95.7161 165.29 95.0321 165.092 94.6001 164.696C94.1681 164.288 93.9521 163.706 93.9521 162.95H95.5001C95.5001 163.766 95.8841 164.174 96.6521 164.174C97.4441 164.174 97.8401 163.766 97.8401 162.95H99.3521C99.3521 163.706 99.1361 164.288 98.7041 164.696C98.2721 165.092 97.5881 165.29 96.6521 165.29ZM111.778 176.18C111.166 176.18 110.596 176.084 110.068 175.892C109.54 175.688 109.084 175.388 108.7 174.992C108.316 174.584 108.01 174.074 107.782 173.462C107.566 172.85 107.458 172.136 107.458 171.32V170.96C107.458 170.192 107.578 169.514 107.818 168.926C108.058 168.338 108.376 167.852 108.772 167.468C109.168 167.072 109.624 166.778 110.14 166.586C110.668 166.382 111.214 166.28 111.778 166.28C112.342 166.28 112.846 166.358 113.29 166.514C113.746 166.67 114.136 166.886 114.46 167.162C114.796 167.438 115.066 167.762 115.27 168.134C115.486 168.506 115.642 168.908 115.738 169.34H114.118C114.022 169.112 113.908 168.902 113.776 168.71C113.656 168.506 113.5 168.332 113.308 168.188C113.128 168.044 112.912 167.93 112.66 167.846C112.408 167.762 112.114 167.72 111.778 167.72C111.43 167.72 111.094 167.786 110.77 167.918C110.446 168.038 110.158 168.23 109.906 168.494C109.654 168.746 109.45 169.076 109.294 169.484C109.15 169.892 109.078 170.384 109.078 170.96V171.32C109.078 171.932 109.15 172.46 109.294 172.904C109.45 173.336 109.654 173.69 109.906 173.966C110.158 174.23 110.446 174.428 110.77 174.56C111.094 174.68 111.43 174.74 111.778 174.74C112.366 174.74 112.858 174.596 113.254 174.308C113.662 174.02 113.95 173.624 114.118 173.12H115.738C115.51 174.068 115.042 174.818 114.334 175.37C113.626 175.91 112.774 176.18 111.778 176.18ZM120.615 176.18C120.087 176.18 119.619 176.108 119.211 175.964C118.815 175.808 118.479 175.598 118.203 175.334C117.927 175.07 117.717 174.758 117.573 174.398C117.429 174.038 117.357 173.642 117.357 173.21C117.357 172.262 117.633 171.578 118.185 171.158C118.749 170.738 119.553 170.528 120.597 170.528H123.693V169.88C123.693 169.064 123.507 168.5 123.135 168.188C122.775 167.876 122.229 167.72 121.497 167.72C120.813 167.72 120.315 167.852 120.003 168.116C119.691 168.368 119.517 168.656 119.481 168.98H117.897C117.921 168.596 118.023 168.242 118.203 167.918C118.395 167.582 118.647 167.294 118.959 167.054C119.283 166.814 119.667 166.628 120.111 166.496C120.555 166.352 121.047 166.28 121.587 166.28C122.715 166.28 123.609 166.55 124.269 167.09C124.941 167.618 125.277 168.488 125.277 169.7V173.57C125.277 174.074 125.277 174.518 125.277 174.902C125.289 175.274 125.319 175.64 125.367 176H123.981C123.945 175.724 123.921 175.466 123.909 175.226C123.897 174.974 123.891 174.692 123.891 174.38C123.639 174.884 123.231 175.31 122.667 175.658C122.103 176.006 121.419 176.18 120.615 176.18ZM120.957 174.74C121.329 174.74 121.677 174.692 122.001 174.596C122.337 174.488 122.631 174.338 122.883 174.146C123.135 173.942 123.333 173.696 123.477 173.408C123.621 173.12 123.693 172.784 123.693 172.4V171.752H120.867C120.279 171.752 119.817 171.872 119.481 172.112C119.145 172.34 118.977 172.706 118.977 173.21C118.977 173.654 119.133 174.02 119.445 174.308C119.769 174.596 120.273 174.74 120.957 174.74ZM128.075 166.46H129.659V173.66L134.591 166.46H136.175V176H134.591V168.8L129.659 176H128.075V166.46ZM132.125 165.29C131.189 165.29 130.505 165.092 130.073 164.696C129.641 164.288 129.425 163.706 129.425 162.95H130.973C130.973 163.766 131.357 164.174 132.125 164.174C132.917 164.174 133.313 163.766 133.313 162.95H134.825C134.825 163.706 134.609 164.288 134.177 164.696C133.745 165.092 133.061 165.29 132.125 165.29ZM141.239 167.864H137.981V166.46H146.081V167.864H142.823V176H141.239V167.864Z" fill="black" fill-opacity="0.6"></path> <path d="M135.8 231.4H140.12C140.948 231.4 141.668 231.496 142.28 231.688C142.892 231.88 143.396 232.15 143.792 232.498C144.2 232.834 144.5 233.242 144.692 233.722C144.884 234.19 144.98 234.706 144.98 235.27C144.98 235.834 144.884 236.356 144.692 236.836C144.5 237.304 144.2 237.712 143.792 238.06C143.396 238.396 142.892 238.66 142.28 238.852C141.668 239.044 140.948 239.14 140.12 239.14H137.492V244H135.8V231.4ZM140.03 237.664C140.63 237.664 141.134 237.61 141.542 237.502C141.962 237.382 142.298 237.22 142.55 237.016C142.814 236.812 143 236.56 143.108 236.26C143.228 235.96 143.288 235.63 143.288 235.27C143.288 234.91 143.228 234.58 143.108 234.28C143 233.98 142.814 233.728 142.55 233.524C142.298 233.32 141.962 233.164 141.542 233.056C141.134 232.936 140.63 232.876 140.03 232.876H137.492V237.664H140.03ZM149.953 244.18C149.425 244.18 148.957 244.108 148.549 243.964C148.153 243.808 147.817 243.598 147.541 243.334C147.265 243.07 147.055 242.758 146.911 242.398C146.767 242.038 146.695 241.642 146.695 241.21C146.695 240.262 146.971 239.578 147.523 239.158C148.087 238.738 148.891 238.528 149.935 238.528H153.031V237.88C153.031 237.064 152.845 236.5 152.473 236.188C152.113 235.876 151.567 235.72 150.835 235.72C150.151 235.72 149.653 235.852 149.341 236.116C149.029 236.368 148.855 236.656 148.819 236.98H147.235C147.259 236.596 147.361 236.242 147.541 235.918C147.733 235.582 147.985 235.294 148.297 235.054C148.621 234.814 149.005 234.628 149.449 234.496C149.893 234.352 150.385 234.28 150.925 234.28C152.053 234.28 152.947 234.55 153.607 235.09C154.279 235.618 154.615 236.488 154.615 237.7V241.57C154.615 242.074 154.615 242.518 154.615 242.902C154.627 243.274 154.657 243.64 154.705 244H153.319C153.283 243.724 153.259 243.466 153.247 243.226C153.235 242.974 153.229 242.692 153.229 242.38C152.977 242.884 152.569 243.31 152.005 243.658C151.441 244.006 150.757 244.18 149.953 244.18ZM150.295 242.74C150.667 242.74 151.015 242.692 151.339 242.596C151.675 242.488 151.969 242.338 152.221 242.146C152.473 241.942 152.671 241.696 152.815 241.408C152.959 241.12 153.031 240.784 153.031 240.4V239.752H150.205C149.617 239.752 149.155 239.872 148.819 240.112C148.483 240.34 148.315 240.706 148.315 241.21C148.315 241.654 148.471 242.02 148.783 242.308C149.107 242.596 149.611 242.74 150.295 242.74ZM156.333 242.596H157.503C157.635 242.416 157.755 242.14 157.863 241.768C157.971 241.396 158.067 240.958 158.151 240.454C158.235 239.95 158.295 239.404 158.331 238.816C158.379 238.216 158.403 237.604 158.403 236.98V234.46H165.063V242.596H166.413V246.25H164.901V244H157.845V246.25H156.333V242.596ZM163.479 242.596V235.864H159.951V237.34C159.951 237.844 159.933 238.348 159.897 238.852C159.861 239.344 159.807 239.818 159.735 240.274C159.663 240.718 159.573 241.144 159.465 241.552C159.369 241.948 159.255 242.296 159.123 242.596H163.479ZM168.311 234.46H169.895V238.06H171.821C173.021 238.06 173.903 238.324 174.467 238.852C175.043 239.38 175.331 240.112 175.331 241.048C175.331 241.96 175.043 242.68 174.467 243.208C173.903 243.736 173.021 244 171.821 244H168.311V234.46ZM171.731 242.596C172.475 242.596 172.997 242.464 173.297 242.2C173.597 241.936 173.747 241.546 173.747 241.03C173.747 240.514 173.597 240.124 173.297 239.86C172.997 239.596 172.475 239.464 171.731 239.464H169.895V242.596H171.731ZM176.807 234.46H178.391V244H176.807V234.46ZM185.766 234.46H193.686V244H192.102V235.864H187.35V244H185.766V234.46ZM200.519 244.18C199.907 244.18 199.325 244.084 198.773 243.892C198.221 243.688 197.735 243.388 197.315 242.992C196.895 242.584 196.559 242.074 196.307 241.462C196.055 240.85 195.929 240.136 195.929 239.32V238.96C195.929 238.192 196.055 237.514 196.307 236.926C196.559 236.338 196.895 235.852 197.315 235.468C197.735 235.072 198.221 234.778 198.773 234.586C199.325 234.382 199.907 234.28 200.519 234.28C201.131 234.28 201.713 234.382 202.265 234.586C202.817 234.778 203.303 235.072 203.723 235.468C204.143 235.852 204.479 236.338 204.731 236.926C204.983 237.514 205.109 238.192 205.109 238.96V239.32C205.109 240.136 204.983 240.85 204.731 241.462C204.479 242.074 204.143 242.584 203.723 242.992C203.303 243.388 202.817 243.688 202.265 243.892C201.713 244.084 201.131 244.18 200.519 244.18ZM200.519 242.74C200.879 242.74 201.239 242.68 201.599 242.56C201.959 242.428 202.277 242.23 202.553 241.966C202.829 241.69 203.051 241.336 203.219 240.904C203.399 240.472 203.489 239.944 203.489 239.32V238.96C203.489 238.384 203.399 237.892 203.219 237.484C203.051 237.076 202.829 236.74 202.553 236.476C202.277 236.212 201.959 236.02 201.599 235.9C201.239 235.78 200.879 235.72 200.519 235.72C200.159 235.72 199.799 235.78 199.439 235.9C199.079 236.02 198.761 236.212 198.485 236.476C198.209 236.74 197.981 237.076 197.801 237.484C197.633 237.892 197.549 238.384 197.549 238.96V239.32C197.549 239.944 197.633 240.472 197.801 240.904C197.981 241.336 198.209 241.69 198.485 241.966C198.761 242.23 199.079 242.428 199.439 242.56C199.799 242.68 200.159 242.74 200.519 242.74ZM207.352 234.46H209.044L212.446 240.4L215.848 234.46H217.432V244H215.848V237.07L213.022 241.93H211.762L208.936 237.07V244H207.352V234.46ZM224.267 244.18C223.655 244.18 223.073 244.084 222.521 243.892C221.969 243.688 221.483 243.388 221.063 242.992C220.643 242.584 220.307 242.074 220.055 241.462C219.803 240.85 219.677 240.136 219.677 239.32V238.96C219.677 238.192 219.803 237.514 220.055 236.926C220.307 236.338 220.643 235.852 221.063 235.468C221.483 235.072 221.969 234.778 222.521 234.586C223.073 234.382 223.655 234.28 224.267 234.28C224.879 234.28 225.461 234.382 226.013 234.586C226.565 234.778 227.051 235.072 227.471 235.468C227.891 235.852 228.227 236.338 228.479 236.926C228.731 237.514 228.857 238.192 228.857 238.96V239.32C228.857 240.136 228.731 240.85 228.479 241.462C228.227 242.074 227.891 242.584 227.471 242.992C227.051 243.388 226.565 243.688 226.013 243.892C225.461 244.084 224.879 244.18 224.267 244.18ZM224.267 242.74C224.627 242.74 224.987 242.68 225.347 242.56C225.707 242.428 226.025 242.23 226.301 241.966C226.577 241.69 226.799 241.336 226.967 240.904C227.147 240.472 227.237 239.944 227.237 239.32V238.96C227.237 238.384 227.147 237.892 226.967 237.484C226.799 237.076 226.577 236.74 226.301 236.476C226.025 236.212 225.707 236.02 225.347 235.9C224.987 235.78 224.627 235.72 224.267 235.72C223.907 235.72 223.547 235.78 223.187 235.9C222.827 236.02 222.509 236.212 222.233 236.476C221.957 236.74 221.729 237.076 221.549 237.484C221.381 237.892 221.297 238.384 221.297 238.96V239.32C221.297 239.944 221.381 240.472 221.549 240.904C221.729 241.336 221.957 241.69 222.233 241.966C222.509 242.23 222.827 242.428 223.187 242.56C223.547 242.68 223.907 242.74 224.267 242.74ZM236.626 240.202C236.35 240.37 236.014 240.52 235.618 240.652C235.234 240.784 234.748 240.85 234.16 240.85C233.608 240.85 233.11 240.79 232.666 240.67C232.234 240.55 231.868 240.358 231.568 240.094C231.268 239.83 231.04 239.488 230.884 239.068C230.728 238.648 230.65 238.132 230.65 237.52V234.46H232.234V237.25C232.234 237.658 232.27 238 232.342 238.276C232.426 238.552 232.558 238.774 232.738 238.942C232.918 239.11 233.146 239.23 233.422 239.302C233.698 239.374 234.034 239.41 234.43 239.41C234.97 239.41 235.432 239.356 235.816 239.248C236.2 239.14 236.47 239.026 236.626 238.906V234.46H238.21V244H236.626V240.202ZM241.085 234.46H242.669V238.06H244.955C246.155 238.06 247.037 238.324 247.601 238.852C248.177 239.38 248.465 240.112 248.465 241.048C248.465 241.96 248.177 242.68 247.601 243.208C247.037 243.736 246.155 244 244.955 244H241.085V234.46ZM244.865 242.596C245.609 242.596 246.131 242.464 246.431 242.2C246.731 241.936 246.881 241.546 246.881 241.03C246.881 240.514 246.731 240.124 246.431 239.86C246.131 239.596 245.609 239.464 244.865 239.464H242.669V242.596H244.865ZM255.042 234.46H259.182C260.358 234.46 261.222 234.706 261.774 235.198C262.326 235.678 262.602 236.302 262.602 237.07C262.602 237.274 262.566 237.484 262.494 237.7C262.422 237.904 262.32 238.096 262.188 238.276C262.068 238.456 261.918 238.612 261.738 238.744C261.57 238.876 261.378 238.978 261.162 239.05C261.75 239.194 262.194 239.47 262.494 239.878C262.806 240.274 262.962 240.742 262.962 241.282C262.962 242.11 262.686 242.77 262.134 243.262C261.582 243.754 260.718 244 259.542 244H255.042V234.46ZM259.542 242.596C260.214 242.596 260.688 242.476 260.964 242.236C261.24 241.996 261.378 241.654 261.378 241.21C261.378 240.754 261.24 240.406 260.964 240.166C260.688 239.914 260.214 239.788 259.542 239.788H256.626V242.596H259.542ZM259.182 238.492C259.866 238.492 260.34 238.372 260.604 238.132C260.88 237.892 261.018 237.562 261.018 237.142C261.018 236.746 260.88 236.434 260.604 236.206C260.34 235.978 259.866 235.864 259.182 235.864H256.626V238.492H259.182ZM267.937 244.18C267.409 244.18 266.941 244.108 266.533 243.964C266.137 243.808 265.801 243.598 265.525 243.334C265.249 243.07 265.039 242.758 264.895 242.398C264.751 242.038 264.679 241.642 264.679 241.21C264.679 240.262 264.955 239.578 265.507 239.158C266.071 238.738 266.875 238.528 267.919 238.528H271.015V237.88C271.015 237.064 270.829 236.5 270.457 236.188C270.097 235.876 269.551 235.72 268.819 235.72C268.135 235.72 267.637 235.852 267.325 236.116C267.013 236.368 266.839 236.656 266.803 236.98H265.219C265.243 236.596 265.345 236.242 265.525 235.918C265.717 235.582 265.969 235.294 266.281 235.054C266.605 234.814 266.989 234.628 267.433 234.496C267.877 234.352 268.369 234.28 268.909 234.28C270.037 234.28 270.931 234.55 271.591 235.09C272.263 235.618 272.599 236.488 272.599 237.7V241.57C272.599 242.074 272.599 242.518 272.599 242.902C272.611 243.274 272.641 243.64 272.689 244H271.303C271.267 243.724 271.243 243.466 271.231 243.226C271.219 242.974 271.213 242.692 271.213 242.38C270.961 242.884 270.553 243.31 269.989 243.658C269.425 244.006 268.741 244.18 267.937 244.18ZM268.279 242.74C268.651 242.74 268.999 242.692 269.323 242.596C269.659 242.488 269.953 242.338 270.205 242.146C270.457 241.942 270.655 241.696 270.799 241.408C270.943 241.12 271.015 240.784 271.015 240.4V239.752H268.189C267.601 239.752 267.139 239.872 266.803 240.112C266.467 240.34 266.299 240.706 266.299 241.21C266.299 241.654 266.455 242.02 266.767 242.308C267.091 242.596 267.595 242.74 268.279 242.74ZM275.397 234.46H277.089L280.491 240.4L283.893 234.46H285.477V244H283.893V237.07L281.067 241.93H279.807L276.981 237.07V244H275.397V234.46ZM289.612 244.18C289.264 244.18 288.964 244.06 288.712 243.82C288.472 243.568 288.352 243.268 288.352 242.92C288.352 242.56 288.472 242.26 288.712 242.02C288.964 241.78 289.264 241.66 289.612 241.66C289.96 241.66 290.254 241.78 290.494 242.02C290.746 242.26 290.872 242.56 290.872 242.92C290.872 243.268 290.746 243.568 290.494 243.82C290.254 244.06 289.96 244.18 289.612 244.18Z" fill="black" fill-opacity="0.6"></path> </svg> 