<svg width="566" height="137" viewBox="0 0 566 137" fill="none" xmlns="http://www.w3.org/2000/svg">
<mask id="path-1-outside-1_45_17" maskUnits="userSpaceOnUse" x="29" y="40" width="508" height="65" fill="black">
<rect fill="white" x="29" y="40" width="508" height="65"/>
<path d="M38.6763 95V50.2H52.8843V67.288H55.4443L66.6443 50.2H81.8763L66.9643 71.064L82.5163 95H66.3243L55.4443 76.952H52.8843V95H38.6763ZM84.6028 95L100.667 50.2H114.939L131.003 95H115.835L113.531 87.704H100.155L97.8508 95H84.6028ZM103.419 77.144H110.203L106.875 64.92L103.419 77.144ZM153.834 95V77.976C152.724 78.6587 151.316 79.2773 149.61 79.832C147.946 80.3867 145.898 80.664 143.466 80.664C138.815 80.664 135.359 79.512 133.098 77.208C130.836 74.8613 129.706 71.1067 129.706 65.944V50.2H143.85V63.32C143.85 65.4533 144.234 66.9467 145.002 67.8C145.77 68.6107 146.943 69.016 148.522 69.016C149.716 69.016 150.74 68.888 151.594 68.632C152.49 68.3333 153.236 67.992 153.834 67.608V50.2H168.106V95H153.834ZM175.051 95V50.2H208.971V60.76H189.259V67.48H207.051V76.76H189.259V84.44H208.971V95H175.051ZM234.714 95.896C230.533 95.896 226.8 95.1493 223.514 93.656C220.229 92.12 217.648 89.6667 215.77 86.296C213.936 82.9253 213.018 78.4667 213.018 72.92V71.64C213.018 67.672 213.573 64.28 214.682 61.464C215.792 58.648 217.328 56.344 219.29 54.552C221.296 52.76 223.621 51.4373 226.266 50.584C228.912 49.7307 231.728 49.304 234.714 49.304C237.445 49.304 240.005 49.624 242.394 50.264C244.826 50.904 246.96 51.928 248.794 53.336C250.672 54.7013 252.165 56.4933 253.274 58.712C254.426 60.9307 255.088 63.64 255.258 66.84H240.922C240.624 64.6213 239.877 63.0853 238.682 62.232C237.53 61.3787 236.208 60.952 234.714 60.952C233.392 60.952 232.176 61.2933 231.066 61.976C230 62.6587 229.146 63.7893 228.506 65.368C227.866 66.904 227.546 68.9947 227.546 71.64V72.92C227.546 75.0107 227.738 76.7813 228.122 78.232C228.506 79.64 229.018 80.792 229.658 81.688C230.298 82.584 231.045 83.2453 231.898 83.672C232.794 84.056 233.733 84.248 234.714 84.248C236.378 84.248 237.765 83.8213 238.874 82.968C239.984 82.072 240.666 80.536 240.922 78.36H255.258C255.088 81.6027 254.448 84.3547 253.338 86.616C252.272 88.8347 250.821 90.6267 248.986 91.992C247.152 93.3573 245.018 94.36 242.586 95C240.154 95.5973 237.53 95.896 234.714 95.896ZM269.86 95V61.72H257.124V50.2H296.804V61.72H284.068V95H269.86ZM301.614 95V50.2H325.294C330.456 50.2 334.254 51.2027 336.686 53.208C339.118 55.1707 340.334 58.1573 340.334 62.168C340.334 64.472 339.736 66.456 338.542 68.12C337.39 69.7413 335.811 70.9147 333.806 71.64C336.536 72.28 338.627 73.496 340.078 75.288C341.528 77.08 342.254 79.4267 342.254 82.328C342.254 85.016 341.678 87.32 340.526 89.24C339.416 91.1173 337.624 92.5467 335.15 93.528C332.718 94.5093 329.539 95 325.614 95H301.614ZM315.822 85.08H321.774C324.163 85.08 325.806 84.7387 326.702 84.056C327.598 83.3733 328.046 82.2853 328.046 80.792C328.046 79.2987 327.576 78.2107 326.638 77.528C325.742 76.8453 324.056 76.504 321.582 76.504H315.822V85.08ZM315.822 67.736H320.878C322.84 67.736 324.206 67.416 324.974 66.776C325.742 66.136 326.126 65.176 326.126 63.896C326.126 62.5733 325.742 61.6133 324.974 61.016C324.206 60.4187 322.883 60.12 321.006 60.12H315.822V67.736ZM347.489 95V50.2H381.409V60.76H361.697V67.48H379.489V76.76H361.697V84.44H381.409V95H347.489ZM387.176 95V50.2H401.384V66.328H414.568V50.2H428.776V95H414.568V77.912H401.384V95H387.176ZM435.801 95V50.2H450.009V66.328H463.193V50.2H477.401V95H463.193V77.912H450.009V95H435.801ZM505.354 95.896C502.325 95.896 499.445 95.4693 496.714 94.616C494.026 93.72 491.637 92.3547 489.546 90.52C487.498 88.6853 485.898 86.3173 484.746 83.416C483.594 80.472 483.018 76.9733 483.018 72.92V71.64C483.018 67.7573 483.594 64.408 484.746 61.592C485.898 58.776 487.498 56.472 489.546 54.68C491.637 52.8453 494.026 51.5013 496.714 50.648C499.445 49.752 502.325 49.304 505.354 49.304C508.426 49.304 511.306 49.752 513.994 50.648C516.725 51.5013 519.114 52.8453 521.162 54.68C523.21 56.472 524.832 58.776 526.026 61.592C527.221 64.408 527.818 67.7573 527.818 71.64V72.92C527.818 76.9307 527.221 80.408 526.026 83.352C524.832 86.2533 523.21 88.6427 521.162 90.52C519.114 92.3547 516.725 93.72 513.994 94.616C511.306 95.4693 508.426 95.896 505.354 95.896ZM505.354 84.248C506.805 84.248 508.106 83.9067 509.258 83.224C510.453 82.4987 511.392 81.3253 512.074 79.704C512.8 78.04 513.162 75.7787 513.162 72.92V71.64C513.162 68.952 512.8 66.84 512.074 65.304C511.392 63.7253 510.453 62.616 509.258 61.976C508.106 61.2933 506.805 60.952 505.354 60.952C503.904 60.952 502.602 61.2933 501.45 61.976C500.298 62.616 499.36 63.7253 498.634 65.304C497.909 66.84 497.546 68.952 497.546 71.64V72.92C497.546 75.7787 497.909 78.04 498.634 79.704C499.36 81.3253 500.298 82.4987 501.45 83.224C502.602 83.9067 503.904 84.248 505.354 84.248Z"/>
</mask>
<path d="M38.6763 95V50.2H52.8843V67.288H55.4443L66.6443 50.2H81.8763L66.9643 71.064L82.5163 95H66.3243L55.4443 76.952H52.8843V95H38.6763ZM84.6028 95L100.667 50.2H114.939L131.003 95H115.835L113.531 87.704H100.155L97.8508 95H84.6028ZM103.419 77.144H110.203L106.875 64.92L103.419 77.144ZM153.834 95V77.976C152.724 78.6587 151.316 79.2773 149.61 79.832C147.946 80.3867 145.898 80.664 143.466 80.664C138.815 80.664 135.359 79.512 133.098 77.208C130.836 74.8613 129.706 71.1067 129.706 65.944V50.2H143.85V63.32C143.85 65.4533 144.234 66.9467 145.002 67.8C145.77 68.6107 146.943 69.016 148.522 69.016C149.716 69.016 150.74 68.888 151.594 68.632C152.49 68.3333 153.236 67.992 153.834 67.608V50.2H168.106V95H153.834ZM175.051 95V50.2H208.971V60.76H189.259V67.48H207.051V76.76H189.259V84.44H208.971V95H175.051ZM234.714 95.896C230.533 95.896 226.8 95.1493 223.514 93.656C220.229 92.12 217.648 89.6667 215.77 86.296C213.936 82.9253 213.018 78.4667 213.018 72.92V71.64C213.018 67.672 213.573 64.28 214.682 61.464C215.792 58.648 217.328 56.344 219.29 54.552C221.296 52.76 223.621 51.4373 226.266 50.584C228.912 49.7307 231.728 49.304 234.714 49.304C237.445 49.304 240.005 49.624 242.394 50.264C244.826 50.904 246.96 51.928 248.794 53.336C250.672 54.7013 252.165 56.4933 253.274 58.712C254.426 60.9307 255.088 63.64 255.258 66.84H240.922C240.624 64.6213 239.877 63.0853 238.682 62.232C237.53 61.3787 236.208 60.952 234.714 60.952C233.392 60.952 232.176 61.2933 231.066 61.976C230 62.6587 229.146 63.7893 228.506 65.368C227.866 66.904 227.546 68.9947 227.546 71.64V72.92C227.546 75.0107 227.738 76.7813 228.122 78.232C228.506 79.64 229.018 80.792 229.658 81.688C230.298 82.584 231.045 83.2453 231.898 83.672C232.794 84.056 233.733 84.248 234.714 84.248C236.378 84.248 237.765 83.8213 238.874 82.968C239.984 82.072 240.666 80.536 240.922 78.36H255.258C255.088 81.6027 254.448 84.3547 253.338 86.616C252.272 88.8347 250.821 90.6267 248.986 91.992C247.152 93.3573 245.018 94.36 242.586 95C240.154 95.5973 237.53 95.896 234.714 95.896ZM269.86 95V61.72H257.124V50.2H296.804V61.72H284.068V95H269.86ZM301.614 95V50.2H325.294C330.456 50.2 334.254 51.2027 336.686 53.208C339.118 55.1707 340.334 58.1573 340.334 62.168C340.334 64.472 339.736 66.456 338.542 68.12C337.39 69.7413 335.811 70.9147 333.806 71.64C336.536 72.28 338.627 73.496 340.078 75.288C341.528 77.08 342.254 79.4267 342.254 82.328C342.254 85.016 341.678 87.32 340.526 89.24C339.416 91.1173 337.624 92.5467 335.15 93.528C332.718 94.5093 329.539 95 325.614 95H301.614ZM315.822 85.08H321.774C324.163 85.08 325.806 84.7387 326.702 84.056C327.598 83.3733 328.046 82.2853 328.046 80.792C328.046 79.2987 327.576 78.2107 326.638 77.528C325.742 76.8453 324.056 76.504 321.582 76.504H315.822V85.08ZM315.822 67.736H320.878C322.84 67.736 324.206 67.416 324.974 66.776C325.742 66.136 326.126 65.176 326.126 63.896C326.126 62.5733 325.742 61.6133 324.974 61.016C324.206 60.4187 322.883 60.12 321.006 60.12H315.822V67.736ZM347.489 95V50.2H381.409V60.76H361.697V67.48H379.489V76.76H361.697V84.44H381.409V95H347.489ZM387.176 95V50.2H401.384V66.328H414.568V50.2H428.776V95H414.568V77.912H401.384V95H387.176ZM435.801 95V50.2H450.009V66.328H463.193V50.2H477.401V95H463.193V77.912H450.009V95H435.801ZM505.354 95.896C502.325 95.896 499.445 95.4693 496.714 94.616C494.026 93.72 491.637 92.3547 489.546 90.52C487.498 88.6853 485.898 86.3173 484.746 83.416C483.594 80.472 483.018 76.9733 483.018 72.92V71.64C483.018 67.7573 483.594 64.408 484.746 61.592C485.898 58.776 487.498 56.472 489.546 54.68C491.637 52.8453 494.026 51.5013 496.714 50.648C499.445 49.752 502.325 49.304 505.354 49.304C508.426 49.304 511.306 49.752 513.994 50.648C516.725 51.5013 519.114 52.8453 521.162 54.68C523.21 56.472 524.832 58.776 526.026 61.592C527.221 64.408 527.818 67.7573 527.818 71.64V72.92C527.818 76.9307 527.221 80.408 526.026 83.352C524.832 86.2533 523.21 88.6427 521.162 90.52C519.114 92.3547 516.725 93.72 513.994 94.616C511.306 95.4693 508.426 95.896 505.354 95.896ZM505.354 84.248C506.805 84.248 508.106 83.9067 509.258 83.224C510.453 82.4987 511.392 81.3253 512.074 79.704C512.8 78.04 513.162 75.7787 513.162 72.92V71.64C513.162 68.952 512.8 66.84 512.074 65.304C511.392 63.7253 510.453 62.616 509.258 61.976C508.106 61.2933 506.805 60.952 505.354 60.952C503.904 60.952 502.602 61.2933 501.45 61.976C500.298 62.616 499.36 63.7253 498.634 65.304C497.909 66.84 497.546 68.952 497.546 71.64V72.92C497.546 75.7787 497.909 78.04 498.634 79.704C499.36 81.3253 500.298 82.4987 501.45 83.224C502.602 83.9067 503.904 84.248 505.354 84.248Z" fill="black"/>
<path d="M38.6763 95H29.6763C29.6763 99.9706 33.7057 104 38.6763 104V95ZM38.6763 50.2V41.2C33.7057 41.2 29.6763 45.2294 29.6763 50.2H38.6763ZM52.8843 50.2H61.8843C61.8843 45.2294 57.8548 41.2 52.8843 41.2V50.2ZM52.8843 67.288H43.8843C43.8843 72.2586 47.9137 76.288 52.8843 76.288V67.288ZM55.4443 67.288V76.288C58.4784 76.288 61.3083 74.7592 62.9715 72.2216L55.4443 67.288ZM66.6443 50.2V41.2C63.6101 41.2 60.7802 42.7288 59.117 45.2664L66.6443 50.2ZM81.8763 50.2L89.1983 55.4333C91.1589 52.6901 91.4218 49.0812 89.8794 46.0829C88.3369 43.0846 85.248 41.2 81.8763 41.2V50.2ZM66.9643 71.064L59.6422 65.8307C57.49 68.842 57.4008 72.8638 59.4173 75.9675L66.9643 71.064ZM82.5163 95V104C85.8163 104 88.8518 102.194 90.4261 99.2935C92.0004 96.3932 91.8612 92.8638 90.0632 90.0965L82.5163 95ZM66.3243 95L58.6165 99.6465C60.2452 102.348 63.1696 104 66.3243 104V95ZM55.4443 76.952L63.152 72.3055C61.5233 69.6037 58.5989 67.952 55.4443 67.952V76.952ZM52.8843 76.952V67.952C47.9137 67.952 43.8843 71.9814 43.8843 76.952H52.8843ZM52.8843 95V104C57.8548 104 61.8843 99.9706 61.8843 95H52.8843ZM47.6763 95V50.2H29.6763V95H47.6763ZM38.6763 59.2H52.8843V41.2H38.6763V59.2ZM43.8843 50.2V67.288H61.8843V50.2H43.8843ZM52.8843 76.288H55.4443V58.288H52.8843V76.288ZM62.9715 72.2216L74.1715 55.1336L59.117 45.2664L47.917 62.3544L62.9715 72.2216ZM66.6443 59.2H81.8763V41.2H66.6443V59.2ZM74.5542 44.9667L59.6422 65.8307L74.2863 76.2973L89.1983 55.4333L74.5542 44.9667ZM59.4173 75.9675L74.9693 99.9035L90.0632 90.0965L74.5112 66.1605L59.4173 75.9675ZM82.5163 86H66.3243V104H82.5163V86ZM74.032 90.3535L63.152 72.3055L47.7365 81.5985L58.6165 99.6465L74.032 90.3535ZM55.4443 67.952H52.8843V85.952H55.4443V67.952ZM43.8843 76.952V95H61.8843V76.952H43.8843ZM52.8843 86H38.6763V104H52.8843V86ZM84.6028 95L76.1309 91.9622C75.1424 94.7192 75.5571 97.7847 77.2427 100.18C78.9283 102.575 81.674 104 84.6028 104V95ZM100.667 50.2V41.2C96.8674 41.2 93.4773 43.5859 92.1949 47.1622L100.667 50.2ZM114.939 50.2L123.411 47.1622C122.128 43.5859 118.738 41.2 114.939 41.2V50.2ZM131.003 95V104C133.932 104 136.677 102.575 138.363 100.18C140.048 97.7847 140.463 94.7192 139.475 91.9622L131.003 95ZM115.835 95L107.253 97.7102C108.435 101.454 111.908 104 115.835 104V95ZM113.531 87.704L122.113 84.9938C120.931 81.2496 117.457 78.704 113.531 78.704V87.704ZM100.155 87.704V78.704C96.2282 78.704 92.7549 81.2496 91.5725 84.9938L100.155 87.704ZM97.8508 95V104C101.777 104 105.251 101.454 106.433 97.7102L97.8508 95ZM103.419 77.144L94.7582 74.6955C93.9911 77.4088 94.54 80.3249 96.2411 82.5737C97.9423 84.8225 100.599 86.144 103.419 86.144V77.144ZM110.203 77.144V86.144C113.007 86.144 115.651 84.8368 117.354 82.6085C119.057 80.3803 119.623 77.4857 118.887 74.7798L110.203 77.144ZM106.875 64.92L115.559 62.5558C114.496 58.654 110.962 55.9398 106.919 55.9201C102.875 55.9004 99.3144 58.5802 98.2142 62.4715L106.875 64.92ZM93.0746 98.0378L109.139 53.2378L92.1949 47.1622L76.1309 91.9622L93.0746 98.0378ZM100.667 59.2H114.939V41.2H100.667V59.2ZM106.467 53.2378L122.531 98.0378L139.475 91.9622L123.411 47.1622L106.467 53.2378ZM131.003 86H115.835V104H131.003V86ZM124.417 92.2898L122.113 84.9938L104.949 90.4142L107.253 97.7102L124.417 92.2898ZM113.531 78.704H100.155V96.704H113.531V78.704ZM91.5725 84.9938L89.2685 92.2898L106.433 97.7102L108.737 90.4142L91.5725 84.9938ZM97.8508 86H84.6028V104H97.8508V86ZM103.419 86.144H110.203V68.144H103.419V86.144ZM118.887 74.7798L115.559 62.5558L98.1908 67.2842L101.519 79.5082L118.887 74.7798ZM98.2142 62.4715L94.7582 74.6955L112.079 79.5925L115.535 67.3685L98.2142 62.4715ZM153.834 95H144.834C144.834 99.9706 148.863 104 153.834 104V95ZM153.834 77.976H162.834C162.834 74.7155 161.07 71.7099 158.224 70.1194C155.378 68.5289 151.894 68.6022 149.117 70.3111L153.834 77.976ZM149.61 79.832L146.828 71.2727C146.807 71.2797 146.785 71.2867 146.764 71.2938L149.61 79.832ZM133.098 77.208L126.617 83.453C126.636 83.4728 126.655 83.4926 126.675 83.5122L133.098 77.208ZM129.706 50.2V41.2C124.735 41.2 120.706 45.2294 120.706 50.2H129.706ZM143.85 50.2H152.85C152.85 45.2294 148.82 41.2 143.85 41.2V50.2ZM145.002 67.8L138.312 73.8207C138.363 73.8777 138.415 73.934 138.468 73.9897L145.002 67.8ZM151.594 68.632L154.18 77.2524C154.267 77.2263 154.354 77.1989 154.44 77.1701L151.594 68.632ZM153.834 67.608L158.701 75.1786C161.277 73.5226 162.834 70.6704 162.834 67.608H153.834ZM153.834 50.2V41.2C148.863 41.2 144.834 45.2294 144.834 50.2H153.834ZM168.106 50.2H177.106C177.106 45.2294 173.076 41.2 168.106 41.2V50.2ZM168.106 95V104C173.076 104 177.106 99.9706 177.106 95H168.106ZM162.834 95V77.976H144.834V95H162.834ZM149.117 70.3111C148.794 70.5096 148.091 70.8621 146.828 71.2727L152.392 88.3913C154.541 87.6926 156.654 86.8078 158.551 85.6409L149.117 70.3111ZM146.764 71.2938C146.296 71.4498 145.276 71.664 143.466 71.664V89.664C146.52 89.664 149.596 89.3235 152.456 88.3701L146.764 71.2938ZM143.466 71.664C141.854 71.664 140.829 71.4608 140.232 71.2618C139.681 71.0782 139.531 70.9141 139.521 70.9038L126.675 83.5122C131.255 88.179 137.471 89.664 143.466 89.664V71.664ZM139.578 70.963C139.657 71.0443 138.706 70.0851 138.706 65.944H120.706C120.706 72.1282 122.016 78.6784 126.617 83.453L139.578 70.963ZM138.706 65.944V50.2H120.706V65.944H138.706ZM129.706 59.2H143.85V41.2H129.706V59.2ZM134.85 50.2V63.32H152.85V50.2H134.85ZM134.85 63.32C134.85 65.9853 135.22 70.3848 138.312 73.8207L151.691 61.7793C152.553 62.7363 152.804 63.6016 152.854 63.7986C152.907 64.0035 152.85 63.8966 152.85 63.32H134.85ZM138.468 73.9897C141.54 77.232 145.514 78.016 148.522 78.016V60.016C148.372 60.016 150 59.9893 151.535 61.6103L138.468 73.9897ZM148.522 78.016C150.314 78.016 152.257 77.8292 154.18 77.2524L149.008 60.0116C149.13 59.975 149.16 59.9782 149.069 59.9895C148.98 60.0007 148.803 60.016 148.522 60.016V78.016ZM154.44 77.1701C155.829 76.7071 157.305 76.076 158.701 75.1786L148.967 60.0374C149.079 59.9656 149.127 59.9472 149.084 59.9667C149.042 59.9858 148.935 60.0313 148.748 60.0938L154.44 77.1701ZM162.834 67.608V50.2H144.834V67.608H162.834ZM153.834 59.2H168.106V41.2H153.834V59.2ZM159.106 50.2V95H177.106V50.2H159.106ZM168.106 86H153.834V104H168.106V86ZM175.051 95H166.051C166.051 99.9706 170.081 104 175.051 104V95ZM175.051 50.2V41.2C170.081 41.2 166.051 45.2294 166.051 50.2H175.051ZM208.971 50.2H217.971C217.971 45.2294 213.942 41.2 208.971 41.2V50.2ZM208.971 60.76V69.76C213.942 69.76 217.971 65.7306 217.971 60.76H208.971ZM189.259 60.76V51.76C184.289 51.76 180.259 55.7894 180.259 60.76H189.259ZM189.259 67.48H180.259C180.259 72.4506 184.289 76.48 189.259 76.48V67.48ZM207.051 67.48H216.051C216.051 62.5094 212.022 58.48 207.051 58.48V67.48ZM207.051 76.76V85.76C212.022 85.76 216.051 81.7306 216.051 76.76H207.051ZM189.259 76.76V67.76C184.289 67.76 180.259 71.7894 180.259 76.76H189.259ZM189.259 84.44H180.259C180.259 89.4106 184.289 93.44 189.259 93.44V84.44ZM208.971 84.44H217.971C217.971 79.4694 213.942 75.44 208.971 75.44V84.44ZM208.971 95V104C213.942 104 217.971 99.9706 217.971 95H208.971ZM184.051 95V50.2H166.051V95H184.051ZM175.051 59.2H208.971V41.2H175.051V59.2ZM199.971 50.2V60.76H217.971V50.2H199.971ZM208.971 51.76H189.259V69.76H208.971V51.76ZM180.259 60.76V67.48H198.259V60.76H180.259ZM189.259 76.48H207.051V58.48H189.259V76.48ZM198.051 67.48V76.76H216.051V67.48H198.051ZM207.051 67.76H189.259V85.76H207.051V67.76ZM180.259 76.76V84.44H198.259V76.76H180.259ZM189.259 93.44H208.971V75.44H189.259V93.44ZM199.971 84.44V95H217.971V84.44H199.971ZM208.971 86H175.051V104H208.971V86ZM223.514 93.656L219.702 101.809C219.732 101.823 219.761 101.836 219.79 101.849L223.514 93.656ZM215.77 86.296L207.865 90.5987C207.879 90.6243 207.893 90.6498 207.908 90.6752L215.77 86.296ZM214.682 61.464L206.309 58.1653L206.309 58.1653L214.682 61.464ZM219.29 54.552L213.293 47.8411C213.269 47.8625 213.246 47.884 213.222 47.9056L219.29 54.552ZM226.266 50.584L229.029 59.1494L229.029 59.1494L226.266 50.584ZM242.394 50.264L240.066 58.9575C240.078 58.9609 240.091 58.9643 240.104 58.9677L242.394 50.264ZM248.794 53.336L243.315 60.4758C243.376 60.5229 243.438 60.5691 243.501 60.6146L248.794 53.336ZM253.274 58.712L245.224 62.7369C245.245 62.7779 245.266 62.8187 245.287 62.8593L253.274 58.712ZM255.258 66.84V75.84C257.728 75.84 260.09 74.8247 261.789 73.0322C263.489 71.2396 264.377 68.8273 264.245 66.3607L255.258 66.84ZM240.922 66.84L232.003 68.0407C232.604 72.5069 236.416 75.84 240.922 75.84V66.84ZM238.682 62.232L233.325 69.464C233.367 69.4949 233.409 69.5254 233.451 69.5556L238.682 62.232ZM231.066 61.976L226.349 54.3111C226.304 54.3388 226.259 54.367 226.215 54.3956L231.066 61.976ZM228.506 65.368L236.814 68.8295C236.825 68.8029 236.836 68.7761 236.847 68.7493L228.506 65.368ZM228.122 78.232L219.422 80.535C219.428 80.5567 219.433 80.5784 219.439 80.6001L228.122 78.232ZM229.658 81.688L222.335 86.9191L222.335 86.9191L229.658 81.688ZM231.898 83.672L227.873 91.7218C228.031 91.8007 228.191 91.8749 228.353 91.9443L231.898 83.672ZM238.874 82.968L244.362 90.1016C244.418 90.0582 244.474 90.0142 244.529 89.9695L238.874 82.968ZM240.922 78.36V69.36C236.358 69.36 232.517 72.7759 231.984 77.3084L240.922 78.36ZM255.258 78.36L264.246 78.833C264.376 76.3674 263.487 73.9567 261.787 72.1655C260.088 70.3744 257.727 69.36 255.258 69.36V78.36ZM253.338 86.616L245.258 82.6522C245.248 82.6735 245.237 82.6949 245.227 82.7163L253.338 86.616ZM242.586 95L244.733 103.74C244.781 103.728 244.829 103.716 244.877 103.704L242.586 95ZM234.714 86.896C231.615 86.896 229.183 86.3465 227.238 85.4627L219.79 101.849C224.416 103.952 229.451 104.896 234.714 104.896V86.896ZM227.326 85.5031C225.866 84.8207 224.652 83.747 223.633 81.9168L207.908 90.6752C210.643 95.5863 214.591 99.4193 219.702 101.809L227.326 85.5031ZM223.675 81.9933C222.808 80.4007 222.018 77.589 222.018 72.92H204.018C204.018 79.3443 205.063 85.45 207.865 90.5987L223.675 81.9933ZM222.018 72.92V71.64H204.018V72.92H222.018ZM222.018 71.64C222.018 68.4681 222.467 66.2574 223.056 64.7627L206.309 58.1653C204.679 62.3026 204.018 66.8759 204.018 71.64H222.018ZM223.056 64.7627C223.732 63.0458 224.542 61.944 225.359 61.1984L213.222 47.9056C210.113 50.744 207.851 54.2502 206.309 58.1653L223.056 64.7627ZM225.287 61.2629C226.324 60.3363 227.538 59.6303 229.029 59.1494L223.503 42.0186C219.703 43.2444 216.267 45.1837 213.293 47.8411L225.287 61.2629ZM229.029 59.1494C230.718 58.6047 232.596 58.304 234.714 58.304V40.304C230.859 40.304 227.105 40.8566 223.503 42.0186L229.029 59.1494ZM234.714 58.304C236.739 58.304 238.51 58.5408 240.066 58.9575L244.723 41.5705C241.5 40.7072 238.151 40.304 234.714 40.304V58.304ZM240.104 58.9677C241.481 59.3302 242.509 59.8572 243.315 60.4758L254.274 46.1962C251.41 43.9988 248.171 42.4778 244.685 41.5603L240.104 58.9677ZM243.501 60.6146C244.132 61.0741 244.715 61.7172 245.224 62.7369L261.324 54.6871C259.615 51.2695 257.211 48.3286 254.088 46.0574L243.501 60.6146ZM245.287 62.8593C245.707 63.6677 246.15 65.0519 246.271 67.3193L264.245 66.3607C264.025 62.2281 263.146 58.1936 261.262 54.5647L245.287 62.8593ZM255.258 57.84H240.922V75.84H255.258V57.84ZM249.842 65.6393C249.384 62.2393 247.984 57.8162 243.913 54.9084L233.451 69.5556C232.64 68.9763 232.219 68.3198 232.044 67.9587C231.891 67.6448 231.944 67.603 232.003 68.0407L249.842 65.6393ZM244.039 55C241.27 52.9483 238.051 51.952 234.714 51.952V69.952C234.593 69.952 234.359 69.9327 234.063 69.8374C233.764 69.7408 233.511 69.6013 233.325 69.464L244.039 55ZM234.714 51.952C231.753 51.952 228.9 52.7414 226.349 54.3111L235.783 69.6409C235.649 69.7236 235.464 69.811 235.243 69.8731C235.022 69.9349 234.836 69.952 234.714 69.952V51.952ZM226.215 54.3956C223.119 56.3772 221.268 59.267 220.166 61.9866L236.847 68.7493C237.024 68.3117 236.881 68.9402 235.918 69.5564L226.215 54.3956ZM220.199 61.9065C218.912 64.9948 218.546 68.4266 218.546 71.64H236.546C236.546 70.6655 236.606 69.9492 236.683 69.4497C236.76 68.9411 236.838 68.7712 236.814 68.8295L220.199 61.9065ZM218.546 71.64V72.92H236.546V71.64H218.546ZM218.546 72.92C218.546 75.5082 218.778 78.1034 219.422 80.535L236.823 75.929C236.698 75.4593 236.546 74.5131 236.546 72.92H218.546ZM219.439 80.6001C220.018 82.7204 220.911 84.9258 222.335 86.9191L236.982 76.4569C237.061 76.5674 237.063 76.5965 237.019 76.4968C236.974 76.3965 236.895 76.1948 236.805 75.8639L219.439 80.6001ZM222.335 86.9191C223.696 88.8245 225.518 90.544 227.873 91.7218L235.923 75.6222C236.572 75.9467 236.901 76.3435 236.982 76.4569L222.335 86.9191ZM228.353 91.9443C230.377 92.8117 232.522 93.248 234.714 93.248V75.248C234.815 75.248 234.939 75.2583 235.078 75.2866C235.216 75.3149 235.341 75.3556 235.444 75.3997L228.353 91.9443ZM234.714 93.248C237.975 93.248 241.397 92.3822 244.362 90.1016L233.387 75.8344C233.715 75.582 234.06 75.4169 234.355 75.326C234.635 75.24 234.778 75.248 234.714 75.248V93.248ZM244.529 89.9695C248.243 86.9697 249.474 82.7013 249.861 79.4116L231.984 77.3084C231.931 77.7543 231.876 77.7549 231.994 77.4888C232.129 77.1857 232.482 76.5617 233.219 75.9665L244.529 89.9695ZM240.922 87.36H255.258V69.36H240.922V87.36ZM246.271 77.887C246.146 80.2526 245.702 81.7474 245.258 82.6522L261.418 90.5798C263.193 86.962 264.029 82.9527 264.246 78.833L246.271 77.887ZM245.227 82.7163C244.742 83.7259 244.192 84.3413 243.613 84.7719L254.359 99.2121C257.45 96.912 259.802 93.9435 261.45 90.5157L245.227 82.7163ZM243.613 84.7719C242.79 85.3847 241.726 85.92 240.296 86.2963L244.877 103.704C248.31 102.8 251.514 101.33 254.359 99.2121L243.613 84.7719ZM240.44 86.2598C238.791 86.6647 236.895 86.896 234.714 86.896V104.896C238.165 104.896 241.518 104.53 244.733 103.74L240.44 86.2598ZM269.86 95H260.86C260.86 99.9706 264.889 104 269.86 104V95ZM269.86 61.72H278.86C278.86 56.7494 274.83 52.72 269.86 52.72V61.72ZM257.124 61.72H248.124C248.124 66.6906 252.153 70.72 257.124 70.72V61.72ZM257.124 50.2V41.2C252.153 41.2 248.124 45.2294 248.124 50.2H257.124ZM296.804 50.2H305.804C305.804 45.2294 301.774 41.2 296.804 41.2V50.2ZM296.804 61.72V70.72C301.774 70.72 305.804 66.6906 305.804 61.72H296.804ZM284.068 61.72V52.72C279.097 52.72 275.068 56.7494 275.068 61.72H284.068ZM284.068 95V104C289.038 104 293.068 99.9706 293.068 95H284.068ZM278.86 95V61.72H260.86V95H278.86ZM269.86 52.72H257.124V70.72H269.86V52.72ZM266.124 61.72V50.2H248.124V61.72H266.124ZM257.124 59.2H296.804V41.2H257.124V59.2ZM287.804 50.2V61.72H305.804V50.2H287.804ZM296.804 52.72H284.068V70.72H296.804V52.72ZM275.068 61.72V95H293.068V61.72H275.068ZM284.068 86H269.86V104H284.068V86ZM301.614 95H292.614C292.614 99.9706 296.643 104 301.614 104V95ZM301.614 50.2V41.2C296.643 41.2 292.614 45.2294 292.614 50.2H301.614ZM336.686 53.208L330.96 60.1519C330.985 60.172 331.009 60.1919 331.034 60.2118L336.686 53.208ZM338.542 68.12L331.231 62.8711C331.222 62.8831 331.214 62.8951 331.205 62.9071L338.542 68.12ZM333.806 71.64L330.745 63.1766C326.998 64.5317 324.588 68.1884 324.821 72.1655C325.054 76.1425 327.873 79.4935 331.752 80.4025L333.806 71.64ZM340.078 75.288L333.083 80.9508L333.083 80.9508L340.078 75.288ZM340.526 89.24L332.808 84.6095C332.798 84.6268 332.788 84.6441 332.777 84.6614L340.526 89.24ZM335.15 93.528L331.832 85.1618C331.815 85.1684 331.799 85.1751 331.782 85.1818L335.15 93.528ZM315.822 85.08H306.822C306.822 90.0506 310.851 94.08 315.822 94.08V85.08ZM326.638 77.528L321.183 84.6869C321.237 84.7274 321.29 84.7673 321.344 84.8066L326.638 77.528ZM315.822 76.504V67.504C310.851 67.504 306.822 71.5334 306.822 76.504H315.822ZM315.822 67.736H306.822C306.822 72.7066 310.851 76.736 315.822 76.736V67.736ZM324.974 66.776L330.735 73.69L330.735 73.69L324.974 66.776ZM315.822 60.12V51.12C310.851 51.12 306.822 55.1494 306.822 60.12H315.822ZM310.614 95V50.2H292.614V95H310.614ZM301.614 59.2H325.294V41.2H301.614V59.2ZM325.294 59.2C329.603 59.2 330.888 60.0928 330.96 60.1519L342.411 46.2641C337.619 42.3126 331.31 41.2 325.294 41.2V59.2ZM331.034 60.2118C331.052 60.2264 331.046 60.224 331.037 60.2119C331.029 60.2009 331.05 60.2247 331.086 60.3138C331.163 60.5017 331.334 61.0521 331.334 62.168H349.334C349.334 56.2731 347.462 50.3394 342.338 46.2042L331.034 60.2118ZM331.334 62.168C331.334 62.5383 331.287 62.7272 331.268 62.7894C331.252 62.8417 331.242 62.8551 331.231 62.8711L345.853 73.3689C348.28 69.9873 349.334 66.1101 349.334 62.168H331.334ZM331.205 62.9071C331.169 62.9573 331.149 62.9752 331.125 62.9926C331.097 63.0135 330.991 63.0875 330.745 63.1766L336.867 80.1034C340.464 78.8023 343.587 76.5572 345.878 73.3329L331.205 62.9071ZM331.752 80.4025C332.385 80.5508 332.734 80.7168 332.897 80.8118C333.044 80.8973 333.079 80.9458 333.083 80.9508L347.073 69.6252C344.111 65.9665 340.103 63.8719 335.859 62.8775L331.752 80.4025ZM333.083 80.9508C333.041 80.8993 333.064 80.8987 333.111 81.0498C333.165 81.2228 333.254 81.6198 333.254 82.328H351.254C351.254 77.9099 350.126 73.397 347.073 69.6252L333.083 80.9508ZM333.254 82.328C333.254 83.7133 332.967 84.3454 332.808 84.6095L348.243 93.8705C350.389 90.2946 351.254 86.3187 351.254 82.328H333.254ZM332.777 84.6614C332.808 84.6103 332.822 84.6164 332.738 84.684C332.638 84.7634 332.373 84.9472 331.832 85.1618L338.467 101.894C342.377 100.344 345.94 97.768 348.274 93.8186L332.777 84.6614ZM331.782 85.1818C330.814 85.5723 328.904 86 325.614 86V104C330.174 104 334.621 103.446 338.517 101.874L331.782 85.1818ZM325.614 86H301.614V104H325.614V86ZM315.822 94.08H321.774V76.08H315.822V94.08ZM321.774 94.08C324.336 94.08 328.697 93.8504 332.156 91.2149L321.247 76.8971C321.783 76.4891 322.248 76.2682 322.523 76.1574C322.799 76.0461 322.965 76.0125 322.967 76.0122C322.973 76.0109 322.881 76.0299 322.667 76.0481C322.455 76.066 322.162 76.08 321.774 76.08V94.08ZM332.156 91.2149C335.972 88.3076 337.046 84.1027 337.046 80.792H319.046C319.046 80.6671 319.061 80.0939 319.388 79.3013C319.743 78.4375 320.368 77.5674 321.247 76.8971L332.156 91.2149ZM337.046 80.792C337.046 77.3308 335.849 73.0986 331.931 70.2494L321.344 84.8066C320.48 84.1781 319.82 83.3262 319.43 82.4208C319.07 81.587 319.046 80.9633 319.046 80.792H337.046ZM332.092 70.3691C330.144 68.8845 328.027 68.2507 326.488 67.9391C324.863 67.61 323.182 67.504 321.582 67.504V85.504C321.998 85.504 322.318 85.5186 322.554 85.5379C322.793 85.5574 322.905 85.5788 322.915 85.5809C322.931 85.5842 322.773 85.5546 322.499 85.4458C322.228 85.3382 321.744 85.1139 321.183 84.6869L332.092 70.3691ZM321.582 67.504H315.822V85.504H321.582V67.504ZM306.822 76.504V85.08H324.822V76.504H306.822ZM315.822 76.736H320.878V58.736H315.822V76.736ZM320.878 76.736C323.213 76.736 327.39 76.4781 330.735 73.69L319.212 59.862C320.247 58.9993 321.155 58.7721 321.32 58.7335C321.518 58.687 321.42 58.736 320.878 58.736V76.736ZM330.735 73.69C334.105 70.8823 335.126 67.0384 335.126 63.896H317.126C317.126 63.6545 317.16 63.0365 317.481 62.2335C317.825 61.3754 318.408 60.5321 319.212 59.862L330.735 73.69ZM335.126 63.896C335.126 60.8641 334.183 56.7773 330.499 53.9118L319.448 68.1202C318.492 67.3764 317.844 66.4328 317.481 65.5265C317.148 64.6922 317.126 64.0737 317.126 63.896H335.126ZM330.499 53.9118C327.239 51.3761 323.294 51.12 321.006 51.12V69.12C321.512 69.12 321.607 69.1645 321.423 69.123C321.271 69.0885 320.435 68.8872 319.448 68.1202L330.499 53.9118ZM321.006 51.12H315.822V69.12H321.006V51.12ZM306.822 60.12V67.736H324.822V60.12H306.822ZM347.489 95H338.489C338.489 99.9706 342.518 104 347.489 104V95ZM347.489 50.2V41.2C342.518 41.2 338.489 45.2294 338.489 50.2H347.489ZM381.409 50.2H390.409C390.409 45.2294 386.379 41.2 381.409 41.2V50.2ZM381.409 60.76V69.76C386.379 69.76 390.409 65.7306 390.409 60.76H381.409ZM361.697 60.76V51.76C356.726 51.76 352.697 55.7894 352.697 60.76H361.697ZM361.697 67.48H352.697C352.697 72.4506 356.726 76.48 361.697 76.48V67.48ZM379.489 67.48H388.489C388.489 62.5094 384.459 58.48 379.489 58.48V67.48ZM379.489 76.76V85.76C384.459 85.76 388.489 81.7306 388.489 76.76H379.489ZM361.697 76.76V67.76C356.726 67.76 352.697 71.7894 352.697 76.76H361.697ZM361.697 84.44H352.697C352.697 89.4106 356.726 93.44 361.697 93.44V84.44ZM381.409 84.44H390.409C390.409 79.4694 386.379 75.44 381.409 75.44V84.44ZM381.409 95V104C386.379 104 390.409 99.9706 390.409 95H381.409ZM356.489 95V50.2H338.489V95H356.489ZM347.489 59.2H381.409V41.2H347.489V59.2ZM372.409 50.2V60.76H390.409V50.2H372.409ZM381.409 51.76H361.697V69.76H381.409V51.76ZM352.697 60.76V67.48H370.697V60.76H352.697ZM361.697 76.48H379.489V58.48H361.697V76.48ZM370.489 67.48V76.76H388.489V67.48H370.489ZM379.489 67.76H361.697V85.76H379.489V67.76ZM352.697 76.76V84.44H370.697V76.76H352.697ZM361.697 93.44H381.409V75.44H361.697V93.44ZM372.409 84.44V95H390.409V84.44H372.409ZM381.409 86H347.489V104H381.409V86ZM387.176 95H378.176C378.176 99.9706 382.206 104 387.176 104V95ZM387.176 50.2V41.2C382.206 41.2 378.176 45.2294 378.176 50.2H387.176ZM401.384 50.2H410.384C410.384 45.2294 406.355 41.2 401.384 41.2V50.2ZM401.384 66.328H392.384C392.384 71.2986 396.414 75.328 401.384 75.328V66.328ZM414.568 66.328V75.328C419.539 75.328 423.568 71.2986 423.568 66.328H414.568ZM414.568 50.2V41.2C409.598 41.2 405.568 45.2294 405.568 50.2H414.568ZM428.776 50.2H437.776C437.776 45.2294 433.747 41.2 428.776 41.2V50.2ZM428.776 95V104C433.747 104 437.776 99.9706 437.776 95H428.776ZM414.568 95H405.568C405.568 99.9706 409.598 104 414.568 104V95ZM414.568 77.912H423.568C423.568 72.9414 419.539 68.912 414.568 68.912V77.912ZM401.384 77.912V68.912C396.414 68.912 392.384 72.9414 392.384 77.912H401.384ZM401.384 95V104C406.355 104 410.384 99.9706 410.384 95H401.384ZM396.176 95V50.2H378.176V95H396.176ZM387.176 59.2H401.384V41.2H387.176V59.2ZM392.384 50.2V66.328H410.384V50.2H392.384ZM401.384 75.328H414.568V57.328H401.384V75.328ZM423.568 66.328V50.2H405.568V66.328H423.568ZM414.568 59.2H428.776V41.2H414.568V59.2ZM419.776 50.2V95H437.776V50.2H419.776ZM428.776 86H414.568V104H428.776V86ZM423.568 95V77.912H405.568V95H423.568ZM414.568 68.912H401.384V86.912H414.568V68.912ZM392.384 77.912V95H410.384V77.912H392.384ZM401.384 86H387.176V104H401.384V86ZM435.801 95H426.801C426.801 99.9706 430.831 104 435.801 104V95ZM435.801 50.2V41.2C430.831 41.2 426.801 45.2294 426.801 50.2H435.801ZM450.009 50.2H459.009C459.009 45.2294 454.98 41.2 450.009 41.2V50.2ZM450.009 66.328H441.009C441.009 71.2986 445.039 75.328 450.009 75.328V66.328ZM463.193 66.328V75.328C468.164 75.328 472.193 71.2986 472.193 66.328H463.193ZM463.193 50.2V41.2C458.223 41.2 454.193 45.2294 454.193 50.2H463.193ZM477.401 50.2H486.401C486.401 45.2294 482.372 41.2 477.401 41.2V50.2ZM477.401 95V104C482.372 104 486.401 99.9706 486.401 95H477.401ZM463.193 95H454.193C454.193 99.9706 458.223 104 463.193 104V95ZM463.193 77.912H472.193C472.193 72.9414 468.164 68.912 463.193 68.912V77.912ZM450.009 77.912V68.912C445.039 68.912 441.009 72.9414 441.009 77.912H450.009ZM450.009 95V104C454.98 104 459.009 99.9706 459.009 95H450.009ZM444.801 95V50.2H426.801V95H444.801ZM435.801 59.2H450.009V41.2H435.801V59.2ZM441.009 50.2V66.328H459.009V50.2H441.009ZM450.009 75.328H463.193V57.328H450.009V75.328ZM472.193 66.328V50.2H454.193V66.328H472.193ZM463.193 59.2H477.401V41.2H463.193V59.2ZM468.401 50.2V95H486.401V50.2H468.401ZM477.401 86H463.193V104H477.401V86ZM472.193 95V77.912H454.193V95H472.193ZM463.193 68.912H450.009V86.912H463.193V68.912ZM441.009 77.912V95H459.009V77.912H441.009ZM450.009 86H435.801V104H450.009V86ZM496.714 94.616L493.868 103.154C493.922 103.172 493.976 103.189 494.03 103.206L496.714 94.616ZM489.546 90.52L483.541 97.2235C483.564 97.244 483.587 97.2644 483.61 97.2846L489.546 90.52ZM484.746 83.416L476.365 86.6956C476.371 86.7095 476.376 86.7234 476.382 86.7373L484.746 83.416ZM489.546 54.68L495.473 61.4532L495.483 61.4446L489.546 54.68ZM496.714 50.648L499.437 59.2261C499.465 59.2174 499.493 59.2084 499.52 59.1994L496.714 50.648ZM513.994 50.648L511.148 59.1861C511.202 59.204 511.256 59.2214 511.31 59.2383L513.994 50.648ZM521.162 54.68L515.157 61.3835C515.183 61.4069 515.209 61.4301 515.236 61.4532L521.162 54.68ZM526.026 61.592L517.741 65.1069L526.026 61.592ZM526.026 83.352L534.348 86.7787C534.354 86.7646 534.36 86.7504 534.366 86.7361L526.026 83.352ZM521.162 90.52L527.167 97.2235C527.193 97.2006 527.218 97.1776 527.244 97.1544L521.162 90.52ZM513.994 94.616L516.717 103.194C516.745 103.185 516.773 103.176 516.8 103.167L513.994 94.616ZM509.258 83.224L513.846 90.9666C513.874 90.9503 513.902 90.9337 513.929 90.9171L509.258 83.224ZM512.074 79.704L503.824 76.1077C503.809 76.1422 503.794 76.1768 503.78 76.2115L512.074 79.704ZM512.074 65.304L503.814 68.8762C503.853 68.9672 503.894 69.0574 503.936 69.1471L512.074 65.304ZM509.258 61.976L504.67 69.7186C504.781 69.7846 504.894 69.8482 505.008 69.9093L509.258 61.976ZM501.45 61.976L505.821 69.8434C505.894 69.8028 505.967 69.7612 506.038 69.7186L501.45 61.976ZM498.634 65.304L506.772 69.1471C506.786 69.1186 506.799 69.0901 506.812 69.0615L498.634 65.304ZM498.634 79.704L490.384 83.3003C490.395 83.3267 490.407 83.353 490.419 83.3793L498.634 79.704ZM501.45 83.224L496.655 90.8401C496.723 90.8832 496.792 90.9254 496.862 90.9666L501.45 83.224ZM505.354 86.896C503.182 86.896 501.211 86.5919 499.399 86.0257L494.03 103.206C497.679 104.347 501.468 104.896 505.354 104.896V86.896ZM499.56 86.0779C497.989 85.5539 496.655 84.7838 495.483 83.7554L483.61 97.2846C486.619 99.9255 490.064 101.886 493.868 103.154L499.56 86.0779ZM495.551 83.8165C494.674 83.0302 493.819 81.8775 493.111 80.0947L476.382 86.7373C477.978 90.7572 480.323 94.3405 483.541 97.2235L495.551 83.8165ZM493.127 80.1364C492.482 78.4863 492.018 76.1535 492.018 72.92H474.018C474.018 77.7932 474.707 82.4577 476.365 86.6956L493.127 80.1364ZM492.018 72.92V71.64H474.018V72.92H492.018ZM492.018 71.64C492.018 68.6166 492.47 66.4805 493.076 64.9997L476.416 58.1843C474.718 62.3355 474.018 66.8981 474.018 71.64H492.018ZM493.076 64.9997C493.762 63.3226 494.595 62.2213 495.473 61.4532L483.62 47.9068C480.402 50.7227 478.034 54.2294 476.416 58.1843L493.076 64.9997ZM495.483 61.4446C496.626 60.4415 497.917 59.7087 499.437 59.2261L493.991 42.0699C490.135 43.2939 486.648 45.2491 483.61 47.9154L495.483 61.4446ZM499.52 59.1994C501.297 58.6163 503.226 58.304 505.354 58.304V40.304C501.424 40.304 497.593 40.8877 493.908 42.0966L499.52 59.1994ZM505.354 58.304C507.54 58.304 509.452 58.6207 511.148 59.1861L516.84 42.1099C513.161 40.8833 509.312 40.304 505.354 40.304V58.304ZM511.31 59.2383C512.862 59.7235 514.107 60.4431 515.157 61.3835L527.167 47.9765C524.121 45.2476 520.588 43.2792 516.679 42.0577L511.31 59.2383ZM515.236 61.4532C516.141 62.2456 517.01 63.3849 517.741 65.1069L534.311 58.0771C532.653 54.1671 530.279 50.6984 527.089 47.9068L515.236 61.4532ZM517.741 65.1069C518.355 66.5553 518.818 68.6521 518.818 71.64H536.818C536.818 66.8625 536.086 62.2607 534.311 58.0771L517.741 65.1069ZM518.818 71.64V72.92H536.818V71.64H518.818ZM518.818 72.92C518.818 76.0633 518.347 78.3403 517.687 79.9678L534.366 86.7361C536.095 82.4757 536.818 77.7981 536.818 72.92H518.818ZM517.704 79.9253C516.947 81.7645 516.037 83.0092 515.081 83.8856L527.244 97.1544C530.384 94.2761 532.716 90.7422 534.348 86.7787L517.704 79.9253ZM515.157 83.8165C514.078 84.7831 512.791 85.5388 511.188 86.0646L516.8 103.167C520.659 101.901 524.15 99.9263 527.167 97.2235L515.157 83.8165ZM511.271 86.0379C509.539 86.5878 507.584 86.896 505.354 86.896V104.896C509.268 104.896 513.074 104.351 516.717 103.194L511.271 86.0379ZM505.354 93.248C508.28 93.248 511.191 92.5405 513.846 90.9666L504.67 75.4814C504.817 75.3942 504.98 75.3271 505.135 75.2865C505.285 75.247 505.369 75.248 505.354 75.248V93.248ZM513.929 90.9171C517.121 88.9792 519.143 86.1089 520.369 83.1965L503.78 76.2115C503.707 76.3841 503.702 76.3385 503.83 76.1777C503.97 76.0035 504.218 75.755 504.587 75.5309L513.929 90.9171ZM520.325 83.3003C521.747 80.0377 522.162 76.3827 522.162 72.92H504.162C504.162 73.9837 504.094 74.7742 504.004 75.3348C503.913 75.9031 503.817 76.1229 503.824 76.1077L520.325 83.3003ZM522.162 72.92V71.64H504.162V72.92H522.162ZM522.162 71.64C522.162 68.3142 521.741 64.697 520.212 61.4609L503.936 69.1471C503.874 69.0157 503.942 69.1109 504.02 69.5632C504.097 70.0083 504.162 70.6841 504.162 71.64H522.162ZM520.335 61.7318C519.067 58.7987 516.929 55.8752 513.508 54.0427L505.008 69.9093C504.536 69.6564 504.197 69.3491 503.988 69.1015C503.793 68.8709 503.761 68.7537 503.814 68.8762L520.335 61.7318ZM513.846 54.2334C511.191 52.6595 508.28 51.952 505.354 51.952V69.952C505.369 69.952 505.285 69.953 505.135 69.9135C504.98 69.8729 504.817 69.8058 504.67 69.7186L513.846 54.2334ZM505.354 51.952C502.428 51.952 499.518 52.6595 496.862 54.2334L506.038 69.7186C505.891 69.8058 505.728 69.8729 505.574 69.9135C505.423 69.953 505.34 69.952 505.354 69.952V51.952ZM497.079 54.1086C493.792 55.9352 491.728 58.7785 490.456 61.5465L506.812 69.0615C506.991 68.6722 506.805 69.2968 505.821 69.8434L497.079 54.1086ZM490.496 61.4609C488.968 64.697 488.546 68.3142 488.546 71.64H506.546C506.546 70.6841 506.612 70.0083 506.688 69.5632C506.766 69.1109 506.835 69.0157 506.772 69.1471L490.496 61.4609ZM488.546 71.64V72.92H506.546V71.64H488.546ZM488.546 72.92C488.546 76.3827 488.962 80.0377 490.384 83.3003L506.885 76.1077C506.891 76.1229 506.796 75.9031 506.705 75.3348C506.615 74.7742 506.546 73.9837 506.546 72.92H488.546ZM490.419 83.3793C491.652 86.1349 493.602 88.918 496.655 90.8401L506.246 75.6079C506.603 75.8332 506.817 76.0608 506.91 76.1777C506.995 76.2836 506.955 76.2652 506.85 76.0287L490.419 83.3793ZM496.862 90.9666C499.518 92.5405 502.428 93.248 505.354 93.248V75.248C505.34 75.248 505.423 75.247 505.574 75.2865C505.728 75.3271 505.891 75.3942 506.038 75.4814L496.862 90.9666Z" fill="white" mask="url(#path-1-outside-1_45_17)"/>
<line x1="10.3711" y1="129.658" x2="558.985" y2="129.658" stroke="#0EA5E9" stroke-width="2"/>
<path d="M8.65293 130.658L8.6528 6.92244" stroke="#0EA5E9" stroke-width="2"/>
<path d="M557.242 130.658L557.242 6.92244" stroke="#0EA5E9" stroke-width="2"/>
<line x1="10.3833" y1="9.3833" x2="558.997" y2="9.3833" stroke="#0EA5E9" stroke-width="2"/>
<rect x="0.5" y="119.909" width="16.3056" height="16.3056" fill="white" stroke="#0EA5E9"/>
<rect x="0.5" y="0.5" width="16.3056" height="16.3056" fill="white" stroke="#0EA5E9"/>
<rect x="549.089" y="119.909" width="16.3056" height="16.3056" fill="white" stroke="#0EA5E9"/>
<rect x="549.089" y="0.5" width="16.3056" height="16.3056" fill="white" stroke="#0EA5E9"/>
</svg>
