<svg width="200" height="199" viewBox="0 0 200 199" fill="none" xmlns="http://www.w3.org/2000/svg">
<path d="M100 198.54C152.16 198.54 194.444 156.564 194.444 104.785C194.444 53.0054 152.16 11.0298 100 11.0298C47.8398 11.0298 5.55554 53.0054 5.55554 104.785C5.55554 156.564 47.8398 198.54 100 198.54Z" fill="#F4900C"/>
<path d="M100 187.51C152.16 187.51 194.444 145.535 194.444 93.7551C194.444 41.9756 152.16 0 100 0C47.8398 0 5.55554 41.9756 5.55554 93.7551C5.55554 145.535 47.8398 187.51 100 187.51Z" fill="#FFCC4D"/>
<path d="M99.9999 176.48C142.955 176.48 177.778 141.912 177.778 99.2701C177.778 56.6282 142.955 22.0601 99.9999 22.0601C57.0445 22.0601 22.2222 56.6282 22.2222 99.2701C22.2222 141.912 57.0445 176.48 99.9999 176.48Z" fill="#FFE8B6"/>
<path d="M99.9999 170.965C142.955 170.965 177.778 136.397 177.778 93.755C177.778 51.113 142.955 16.5449 99.9999 16.5449C57.0445 16.5449 22.2222 51.113 22.2222 93.755C22.2222 136.397 57.0445 170.965 99.9999 170.965Z" fill="#FFAC33"/>
<path d="M53.0167 59.8708C53.0167 56.8651 55.9889 55.6628 55.9889 55.6628L99.7556 35.2573L143.939 55.6628C143.939 55.6628 146.983 56.3357 146.983 59.8928V63.428H53.0167V59.8708Z" fill="#FFE8B6"/>
<path d="M144.05 70.7908C144.05 67.57 141.244 64.9614 137.789 64.9614H61.8277C58.3666 64.9614 55.9555 67.57 55.9555 70.7908C55.9555 72.9802 57.0889 74.8664 58.8944 75.8646V79.5376H70.6389V76.6201H82.3833V79.5376H94.1277V76.6201H105.872V79.5376H117.617V76.6201H129.361V79.5376H141.111V75.7157C142.872 74.6789 144.05 72.8644 144.05 70.7908ZM152.856 132.36C152.856 133.52 152.391 134.633 151.565 135.453C150.739 136.273 149.618 136.734 148.45 136.734H51.55C50.3815 136.734 49.261 136.273 48.4348 135.453C47.6086 134.633 47.1444 133.52 47.1444 132.36C47.1444 131.2 47.6086 130.088 48.4348 129.268C49.261 128.448 50.3815 127.987 51.55 127.987H148.456C150.883 127.987 152.856 129.945 152.856 132.36Z" fill="#F4900C"/>
<path d="M146.983 67.2832C146.982 68.0565 146.672 68.7977 146.121 69.3445C145.57 69.8913 144.823 70.1991 144.044 70.2006H55.9501C55.2018 70.1549 54.4994 69.8276 53.9858 69.2855C53.4723 68.7434 53.1864 68.0273 53.1864 67.2832C53.1864 66.539 53.4723 65.8229 53.9858 65.2808C54.4994 64.7387 55.2018 64.4114 55.9501 64.3657L144.044 64.3823C144.429 64.3808 144.811 64.4547 145.167 64.5998C145.523 64.7449 145.847 64.9582 146.12 65.2277C146.393 65.4971 146.61 65.8174 146.758 66.1701C146.906 66.5228 146.983 66.901 146.983 67.2832ZM67.7001 70.6694H132.306V77.2102H67.7001V70.6694Z" fill="#F4900C"/>
<path d="M70.6333 114.872C70.6333 118.093 68.8777 120.701 66.7166 120.701H62.8C60.6389 120.701 58.8833 118.093 58.8833 114.872V70.6746C58.8833 67.4538 60.6389 64.8452 62.8 64.8452H66.7166C68.8777 64.8452 70.6333 67.4538 70.6333 70.6746V114.872ZM141.111 114.872C141.111 118.093 139.361 120.701 137.194 120.701H133.278C131.117 120.701 129.361 118.093 129.361 114.872V70.6746C129.361 67.4538 131.111 64.8452 133.278 64.8452H137.194C139.356 64.8452 141.111 67.4538 141.111 70.6746V114.872ZM94.1277 114.872C94.1277 118.093 92.3722 120.701 90.2111 120.701H86.2944C84.1333 120.701 82.3777 118.093 82.3777 114.872V70.6746C82.3777 67.4538 84.1333 64.8452 86.2944 64.8452H90.2111C92.3722 64.8452 94.1277 67.4538 94.1277 70.6746V114.872ZM117.617 114.872C117.617 118.093 115.861 120.701 113.7 120.701H109.789C107.628 120.701 105.872 118.093 105.872 114.872V70.6746C105.872 67.4538 107.628 64.8452 109.789 64.8452H113.7C115.861 64.8452 117.617 67.4538 117.617 70.6746V114.872Z" fill="#FFD983"/>
<path d="M144.05 117.784C144.05 121.005 141.422 123.613 138.178 123.613H61.8278C60.2704 123.613 58.7768 122.999 57.6755 121.906C56.5742 120.813 55.9556 119.33 55.9556 117.784C55.9556 116.238 56.5742 114.755 57.6755 113.662C58.7768 112.569 60.2704 111.955 61.8278 111.955H138.178C141.417 111.955 144.05 114.563 144.05 117.784Z" fill="#FFCC4D"/>
<path d="M149.922 123.614C149.922 126.834 147.294 129.443 144.05 129.443H55.95C54.3926 129.443 52.8989 128.829 51.7977 127.736C50.6964 126.642 50.0778 125.16 50.0778 123.614C50.0778 122.067 50.6964 120.585 51.7977 119.492C52.8989 118.398 54.3926 117.784 55.95 117.784H144.044C147.289 117.784 149.922 120.393 149.922 123.614Z" fill="#FFD983"/>
<path d="M152.856 127.987C152.856 129.147 152.391 130.259 151.565 131.079C150.739 131.899 149.618 132.36 148.45 132.36H51.55C50.9714 132.36 50.3985 132.247 49.864 132.027C49.3295 131.807 48.8439 131.485 48.4348 131.079C48.0257 130.673 47.7012 130.191 47.4798 129.66C47.2584 129.13 47.1444 128.561 47.1444 127.987C47.1444 127.412 47.2584 126.844 47.4798 126.313C47.7012 125.782 48.0257 125.3 48.4348 124.894C48.8439 124.488 49.3295 124.166 49.864 123.946C50.3985 123.726 50.9714 123.613 51.55 123.613H148.456C150.883 123.613 152.856 125.571 152.856 127.987Z" fill="#FFD983"/>
<path d="M144.05 67.7571C144.05 64.5363 141.244 61.9277 137.789 61.9277H61.8278C58.3667 61.9277 55.9556 64.5363 55.9556 67.7571C55.9556 69.9466 57.0889 71.8327 58.8945 72.8309V76.5039H70.6389V73.5865H82.3833V76.5039H94.1278V73.5865H105.872V76.5039H117.617V73.5865H129.361V76.5039H141.111V72.682C142.872 71.6452 144.05 69.8307 144.05 67.7571Z" fill="#FFCC4D"/>
<path d="M53.0167 63.2184C53.0167 60.2128 55.9889 59.0105 55.9889 59.0105L99.7556 38.605L143.939 59.0105C143.939 59.0105 146.983 59.6833 146.983 63.2405V64.8454H53.0167V63.2184Z" fill="#FFD983"/>
<path d="M100 46.0117C100 46.0117 69.6945 60.1908 66.6722 61.4703C63.6445 62.7442 64.6556 64.8399 66.6778 64.8399H133.178C136.3 64.8399 135.561 62.474 133.083 61.1945C130.606 59.9206 100 46.0117 100 46.0117Z" fill="#FFAC33"/>
<path d="M146.983 64.8398C146.982 65.6131 146.672 66.3543 146.121 66.9011C145.57 67.4479 144.823 67.7558 144.044 67.7572H55.9501C55.2018 67.7115 54.4994 67.3843 53.9858 66.8422C53.4723 66.3001 53.1864 65.5839 53.1864 64.8398C53.1864 64.0957 53.4723 63.3795 53.9858 62.8374C54.4994 62.2953 55.2018 61.9681 55.9501 61.9224L144.044 61.9389C144.429 61.9375 144.811 62.0114 145.167 62.1564C145.523 62.3015 145.847 62.5149 146.12 62.7843C146.393 63.0538 146.61 63.374 146.758 63.7267C146.906 64.0794 146.983 64.4577 146.983 64.8398Z" fill="#FFD983"/>
</svg>
