<svg width="196" height="200" viewBox="0 0 196 200" fill="none" xmlns="http://www.w3.org/2000/svg">
<path d="M142.582 61.6404C152.818 59.3123 166.152 48.906 168.181 43.781C169.371 40.781 163.436 36.0935 161.85 34.2029C158.219 29.8904 159.684 27.7654 161.087 22.6248C162.689 16.781 158.89 10.3279 153.505 7.79667C148.12 5.26542 141.682 6.06229 136.266 8.53104C130.85 10.9998 126.227 14.9685 121.696 18.8748C118.386 16.7342 113.107 7.28104 104.564 13.4217C98.6599 17.656 98.1259 26.8748 98.8887 34.2342C100.674 51.2185 104.762 60.031 112.466 62.406C122.2 65.406 132.97 63.8279 142.582 61.6404Z" fill="#FFCA28"/>
<path d="M159.211 12.7812C157.914 35.6719 136.113 50.8594 125.77 57.5469L132.482 63.4531C132.482 63.4531 136.739 63.5469 142.566 61.6406C152.559 58.3906 167.159 49.2031 168.166 43.7812C169.646 35.8906 161.743 37.6094 159.958 31.375C159.028 28.0781 164.489 21.8437 159.211 12.7812ZM121.712 18.8906C121.712 18.8906 117.821 14.8125 114.938 12.9531C113.504 15.7187 112.482 18.7187 111.978 21.8125C111.078 27.25 111.978 34.9687 114.099 40.7187C114.434 41.6094 115.685 41.4687 115.823 40.5312C117.653 28.1719 121.712 18.8906 121.712 18.8906Z" fill="#E2A610"/>
<path d="M94.5256 59.6251C94.5256 59.6251 46.9425 64.8908 25.4774 107.203C4.01236 149.516 22.2584 175.172 41.5724 184.516C60.8864 193.86 109.553 197.156 141.209 189.469C172.865 181.781 180.783 165.844 179.303 150.453C177.152 127.985 156.77 114.172 156.77 114.172C156.77 114.172 157.578 86.422 136.556 68.4064C117.898 52.4064 94.5256 59.6251 94.5256 59.6251Z" fill="#FFCA28"/>
<path d="M114.053 130.828C103.847 117.641 91.7947 115.875 87.935 111.141C85.8297 108.562 84.5939 105.953 85.0669 102.719C85.5703 99.2812 89.4606 96.9063 92.4812 96.3281C96.0054 95.6406 104.411 96 111.475 102.891C113.153 104.516 112.543 107.047 112.497 109.313C112.375 114.172 119.164 118.891 124.656 114.828C130.163 110.75 125.937 101.672 122.383 97.2656C119.698 93.9375 109.965 86.6094 97.8666 85.4531C94.4645 85.125 80.78 83.0469 72.8774 98.4375C70.6043 102.859 69.7652 113.547 81.6648 122.578C84.1515 124.469 97.058 131.188 100.643 135.547C106.852 143.094 102.596 149.734 97.7445 150.609C84.5177 152.984 77.027 145.656 75.6387 141.641C74.6471 138.781 75.6845 135.688 74.403 133C73.091 130.234 70.4059 129.141 67.5683 130.062C58.2622 133.094 61.2219 143.516 65.341 149.25C69.7499 155.391 75.1658 159.094 81.2529 161.125C103.969 168.703 114.892 156.734 116.799 147.969C118.203 141.547 118.05 135.984 114.053 130.828Z" fill="#6B4B46"/>
<path d="M108.561 76.5469C89.2318 118.828 85.906 172.219 85.906 172.219" stroke="#6B4B46" stroke-width="0.625" stroke-miterlimit="10"/>
<path d="M124.595 49.9374C137.471 54.2342 140.324 66.1561 139.393 69.4061C138.28 73.2186 124.015 58.3749 102.81 59.2655C95.3952 59.578 97.5462 54.9217 100.979 52.2342C105.51 48.6874 113.123 46.1249 124.595 49.9374Z" fill="#6D4C41"/>
<path d="M124.595 49.9374C137.471 54.2342 140.324 66.1561 139.393 69.4061C138.28 73.2186 124.015 58.3749 102.81 59.2655C95.3952 59.578 97.5462 54.9217 100.979 52.2342C105.51 48.6874 113.123 46.1249 124.595 49.9374Z" fill="#6B4B46"/>
<path d="M147.204 91.969C148.821 90.8284 154.252 92.7971 155.778 103.688C156.526 109.016 156.754 114.172 156.754 114.172C156.754 114.172 150.347 108.281 148.226 104.141C145.557 98.9065 144.519 93.844 147.204 91.969Z" fill="#E2A610"/>
</svg>
