<svg width="200" height="195" viewBox="0 0 200 195" fill="none" xmlns="http://www.w3.org/2000/svg">
<path d="M9.375 63.4983C28.75 46.4844 48.125 29.1667 67.5 12.1528C95.9375 54.0799 144.062 91.4497 189.688 118.49C190.938 124.262 192.188 129.731 193.75 135.2C173.75 152.821 153.75 170.747 133.75 188.368C86.5625 163.151 36.5625 127.3 6.25 86.5886C7.1875 78.9931 8.4375 71.3976 9.375 63.4983Z" fill="#699635"/>
<path d="M130 165.885C149.688 148.264 169.375 130.642 189.062 113.325C140 86.2847 98.75 49.5226 68.4375 6.07642C48.75 23.6979 29.0625 41.0156 9.375 58.6372C39.6875 102.083 80.9375 138.846 130 165.885Z" fill="#83BF4F"/>
<path d="M135 154.34C148.125 142.795 161.25 130.946 174.375 119.401C173.437 118.793 172.812 118.489 171.875 117.882C169.375 116.363 168.75 113.628 170.937 111.502L172.812 109.679C133.125 85.9808 98.75 55.5988 71.875 20.3558L70 22.1787C67.8125 24.0016 64.6875 23.6978 62.8125 21.5711C62.1875 20.9634 61.875 20.052 61.25 19.4443C48.125 30.9895 35 42.8384 21.875 54.3836C22.5 54.9912 22.8125 55.9027 23.4375 56.5103C25.3125 58.9409 25 62.2829 22.8125 64.4096L20.9375 66.2325C47.8125 101.172 82.1875 131.554 121.875 155.252L123.75 153.429C125.937 151.606 129.687 151.302 132.5 152.821C133.437 153.429 134.063 153.733 135 154.34ZM165.938 119.705C155.313 129.123 144.687 138.542 133.75 148.264C129.687 147.048 125 147.352 121.25 149.175C85 126.693 53.4375 98.7412 28.125 66.2325C30.3125 62.8905 30.625 58.637 29.0625 54.9912C39.6875 45.5728 50.3125 36.1544 61.25 26.4322C64.0625 28.8627 68.125 29.1666 71.5625 27.3436C96.875 60.1561 128.437 88.1075 164.687 110.59C162.812 113.628 163.125 117.274 165.938 119.705Z" fill="#699635"/>
<path d="M137.5 113.325C134.062 112.109 130.312 112.413 127.812 114.54C129.375 115.755 131.25 116.97 132.812 118.186C133.437 117.578 135 117.578 135.625 118.186C136.562 118.793 136.875 119.705 135.937 120.312C135.312 120.92 133.75 120.92 132.812 120.312C129.062 117.882 123.75 117.578 120.938 120.312C118.75 122.439 118.437 125.477 120.625 127.908C120 128.516 119.375 128.819 118.75 129.427C120.312 130.338 121.875 131.554 123.437 132.465C124.062 131.858 124.687 131.25 125.312 130.946C128.75 131.858 132.5 131.554 134.687 129.427C132.812 128.212 131.25 127.3 129.375 126.085C128.75 126.693 127.187 126.693 126.25 126.085C125.312 125.477 125.312 124.566 125.937 123.958C126.562 123.351 127.812 123.351 128.75 123.958C130.937 125.477 133.75 126.085 136.25 125.781C138.125 125.477 139.687 124.87 140.937 123.958C143.125 121.831 143.125 119.097 141.25 116.667C141.875 116.363 142.187 115.755 142.812 115.147C141.25 114.236 139.688 113.021 138.125 112.109C138.438 112.413 137.812 112.717 137.5 113.325ZM65 48.3072C62.1875 46.4843 58.75 46.4843 56.5625 48.611L60.3125 53.1683C60.9375 52.5607 62.1875 52.5607 62.8125 53.4721C63.4375 54.3836 63.4375 55.5989 62.8125 56.2065C62.1875 56.8141 60.9375 56.8141 60.3125 55.9027C57.5 52.5607 52.8125 51.953 50 54.3836C47.8125 56.5103 47.1875 59.8523 48.4375 62.8905C47.8125 63.4982 47.1875 63.802 46.5625 64.4096C47.8125 65.9287 48.75 67.144 50 68.6631C50.625 68.0555 51.25 67.4478 51.875 67.144C54.6875 68.6631 57.8125 68.6631 60 66.5364C58.75 65.0173 57.1875 63.4982 55.9375 61.9791C55.3125 62.5867 54.0625 62.5867 53.4375 61.6752C52.8125 60.7638 52.8125 59.5485 53.4375 58.9409C54.0625 58.3332 55.3125 58.3332 55.9375 59.2447C57.5 61.0676 60 62.2829 62.1875 62.2829C63.75 62.2829 65.3125 61.6752 66.5625 60.7638C68.75 58.637 69.375 55.5988 68.125 52.5607C68.75 52.2568 69.0625 51.6492 69.6875 51.0416C68.4375 49.8263 67.1875 48.3072 66.25 46.7881C66.25 47.3957 65.625 47.6995 65 48.3072ZM74.375 107.856C84.375 116.667 101.25 116.363 110.937 107.856C120.625 99.045 120 85.3732 110 76.5624C100 67.7516 84.375 66.8402 74.6875 75.6509C64.6875 84.1579 64.375 99.045 74.375 107.856Z" fill="#699635"/>
<path d="M131.875 74.4359L72.8125 126.997C65.9375 121.528 59.6875 115.755 53.4375 109.679L112.187 57.1182C118.437 62.8907 125 68.6633 131.875 74.4359Z" fill="#FFDD7D"/>
<path d="M72.5 150.087C65.9375 145.226 59.375 140.061 53.125 134.896V109.375C59.375 115.451 65.9375 121.224 72.5 126.693V150.087Z" fill="#DBB471"/>
<path d="M162.188 75.0433C158.75 73.828 155.938 72.0051 153.125 69.8783C150.313 67.7516 147.812 65.6249 145 63.1943C142.187 61.0676 139.375 58.637 136.25 57.1179C133.125 55.295 129.063 54.3835 125.625 54.9912C129.063 55.5988 132.188 57.1179 135 59.2447C137.813 61.0676 140.312 63.4981 143.125 65.6249C145.937 67.7516 148.75 70.1822 151.875 72.0051C155 73.828 158.75 75.0433 162.188 75.0433Z" fill="#8D9998"/>
<path d="M75.625 100.564C75.625 100.564 60.3125 104.818 24.6875 95.7029C-10.9375 86.5884 5.93748 186.241 70.9375 186.241C78.125 186.241 78.4375 177.43 58.4375 161.632C58.4375 161.632 86.5625 168.012 74.375 147.656C74.375 147.656 94.375 150.998 85.3125 135.503C85.3125 135.503 81.25 123.958 85 110.894C84.6875 110.894 82.5 104.21 75.625 100.564Z" fill="#E8E8E8"/>
<path d="M7.81245 105.425C7.18745 132.161 29.0625 176.519 72.4999 176.519H73.125C77.1875 182.899 75.3124 186.545 70.9374 186.545C21.5624 186.241 -5.43594e-05 129.123 7.81245 105.425Z" fill="#D1D1D1"/>
<path d="M30.3125 120.009C39.6875 152.821 77.1875 155.556 77.1875 155.556C78.75 162.544 75.625 165.582 71.5625 165.582C57.8125 165.886 32.1875 143.707 30.3125 120.009ZM56.5625 120.009C78.75 150.391 86.5625 139.149 86.5625 139.149C92.1875 151.302 77.5 151.302 75 148.568C67.8125 140.972 56.25 125.174 56.5625 120.009Z" fill="#D1D1D1"/>
<path d="M73.4375 177.431C69.6875 172.57 65 168.62 60.3125 164.67C55.625 160.721 50.9375 156.771 46.25 152.517C41.875 148.264 37.5 143.403 34.375 137.934C31.25 132.465 29.6875 126.085 30.3125 120.009C30.9375 126.085 33.125 131.858 36.5625 136.719C40 141.58 44.0625 146.137 48.4375 150.391C52.8125 154.644 57.5 158.594 61.875 163.151C66.5625 167.101 70.625 171.962 73.4375 177.431ZM77.1875 155.556C75.9375 152.214 74.0625 149.479 71.875 146.745C69.6875 144.011 67.5 141.58 65 138.846C62.8125 136.111 60.3125 133.377 58.75 130.339C56.875 127.3 55.9375 123.351 56.5625 120.009C57.1875 123.351 58.75 126.389 60.9375 129.123C62.8125 131.858 65.3125 134.288 67.5 137.023C69.6875 139.757 72.1875 142.491 74.0625 145.53C75.9375 148.568 77.1875 152.214 77.1875 155.556Z" fill="#8D9998"/>
<path d="M105.625 73.5244C105.625 73.5244 110 58.6372 100.625 24.0018C91.25 -10.6336 193.75 5.77262 193.75 68.9671C193.75 75.9549 184.687 76.2587 168.437 56.8143C168.437 56.8143 175 84.158 154.063 72.3091C154.063 72.3091 157.5 91.7535 141.562 82.9428C141.562 82.9428 129.688 78.9931 116.25 82.6389C116.25 82.3351 109.375 80.2084 105.625 73.5244Z" fill="#E8E8E8"/>
<path d="M110.625 7.59555C138.125 6.98791 183.75 28.2553 183.75 70.4862V71.0938C190.313 74.7397 193.75 73.2206 193.75 68.9671C193.75 20.9636 135 6.64471e-05 110.625 7.59555Z" fill="#D1D1D1"/>
<path d="M125.625 29.4705C159.375 38.585 162.187 75.0434 162.187 75.0434C169.375 76.5625 172.5 73.5243 172.5 69.5746C172.812 56.2066 150 31.2934 125.625 29.4705ZM125.625 54.9913C156.875 76.5625 145.313 84.158 145.313 84.158C157.813 89.6267 157.813 75.3472 155 72.9166C147.188 65.9288 130.938 54.6875 125.625 54.9913Z" fill="#D1D1D1"/>
<path d="M184.688 71.3975C179.688 67.7517 175.625 63.1944 171.563 58.6371C167.5 54.0798 163.437 49.5225 159.062 44.9652C154.687 40.7117 149.688 36.4583 144.063 33.4201C138.438 30.3819 131.875 28.8628 125.625 29.4704C131.875 30.0781 137.813 32.2048 142.813 35.5468C147.813 38.8888 152.5 42.8385 156.875 47.0919C161.25 51.3454 165.313 55.9027 170 60.1562C174.375 64.7135 179.063 68.6631 184.688 71.3975Z" fill="#8D9998"/>
<path d="M162.188 75.0433C158.75 73.828 155.938 72.0051 153.125 69.8783C150.313 67.7516 147.812 65.6249 145 63.1943C142.187 61.0676 139.375 58.637 136.25 57.1179C133.125 55.295 129.063 54.3835 125.625 54.9912C129.063 55.5988 132.188 57.1179 135 59.2447C137.813 61.0676 140.312 63.4981 143.125 65.6249C145.937 67.7516 148.75 70.1822 151.875 72.0051C155 73.828 158.75 75.0433 162.188 75.0433Z" fill="#8D9998"/>
</svg>
