<?xml version="1.0" encoding="UTF-8"?> <svg xmlns="http://www.w3.org/2000/svg" width="555" height="321" viewBox="0 0 555 321" fill="none"> <path fill-rule="evenodd" clip-rule="evenodd" d="M253.791 19.6233C283.96 9.01936 314.061 0.5 346.276 0.5H352.922V1.5H346.276C314.234 1.5 284.263 9.9729 254.123 20.5667C215.693 34.0742 180.028 54.7402 146.295 77.4791C124.184 92.3835 103.172 107.51 86.9977 128.813C85.4479 130.854 81.6961 136.921 79.855 142.454C78.9292 145.236 78.5222 147.782 79.0247 149.599C79.2705 150.488 79.7302 151.189 80.4508 151.676C81.1788 152.167 82.2199 152.471 83.68 152.471C92.9953 152.471 102.374 150.33 111.606 147.404C117.612 145.501 123.529 143.275 129.323 141.095C132.449 139.92 135.539 138.757 138.587 137.666C139.37 137.386 140.152 137.105 140.935 136.823C140.953 136.81 140.971 136.797 140.989 136.784C171.694 114.685 206.248 94.9154 241.382 80.7041C243.167 79.9818 248.784 77.9792 252.779 77.2743C253.778 77.0979 254.703 76.9978 255.451 77.0273C255.826 77.0421 256.177 77.0899 256.48 77.1881C256.781 77.2857 257.07 77.4451 257.271 77.7071C257.708 78.2758 257.529 79.0075 257.116 79.7131C256.687 80.4472 255.895 81.3581 254.693 82.48C245.584 90.9818 233.688 97.2454 222.784 102.916C196.806 116.424 168.946 127.783 141.406 137.716C109.498 160.687 76.7473 185.684 50.9975 215.554C34.4348 234.767 19.7281 257.373 9.65255 280.68C9.59454 280.814 9.53274 280.957 9.46743 281.108C8.02851 284.43 4.88603 291.685 3.00438 298.927C2.02025 302.715 1.39026 306.467 1.51588 309.633C1.6419 312.81 2.52173 315.289 4.43868 316.69C5.82784 317.705 7.69393 318.396 9.84288 318.841C11.9875 319.286 14.3821 319.48 16.8032 319.523C21.1717 319.601 25.578 319.188 28.6925 318.896C29.032 318.864 29.3562 318.833 29.6633 318.805C67.7322 315.314 104.4 299.551 139.028 284.285C265.099 228.704 379.176 152.021 493.16 75.3994C513.419 61.7815 533.674 48.1656 553.993 34.6705C554.224 34.5177 554.534 34.5803 554.687 34.8104C554.839 35.0404 554.777 35.3507 554.547 35.5035C534.237 48.9924 513.987 62.6043 493.732 76.22C379.751 152.84 265.591 229.58 139.431 285.2C104.824 300.457 68.0112 316.292 29.7546 319.801C29.4485 319.829 29.1245 319.86 28.7843 319.892C25.6741 320.183 21.2128 320.602 16.7854 320.523C14.3281 320.479 11.8665 320.282 9.63992 319.821C7.41766 319.36 5.39758 318.629 3.84867 317.498C1.5685 315.831 0.647567 312.972 0.516671 309.673C0.385381 306.364 1.04233 302.503 2.03651 298.676C3.93841 291.355 7.10828 284.038 8.54701 280.717C8.61333 280.564 8.67598 280.419 8.73465 280.284C18.855 256.873 33.6192 234.181 50.2401 214.901C75.3125 185.817 106.981 161.359 137.999 138.941C135.279 139.924 132.514 140.964 129.714 142.017C123.902 144.203 117.937 146.447 111.908 148.358C102.632 151.298 93.1422 153.471 83.68 153.471C82.0879 153.471 80.8327 153.14 79.8913 152.505C78.9424 151.864 78.3596 150.946 78.0608 149.866C77.4742 147.744 77.9696 144.953 78.9062 142.138C80.7898 136.478 84.6022 130.314 86.2013 128.208C102.485 106.761 123.622 91.5559 145.736 76.6499C179.502 53.8887 215.248 33.1708 253.791 19.6233ZM144.425 135.558C170.843 125.925 197.452 114.961 222.322 102.028C233.247 96.3474 245.018 90.1421 254.011 81.7489C255.191 80.6468 255.898 79.8151 256.253 79.2083C256.625 78.573 256.516 78.3652 256.478 78.316C256.442 78.2691 256.358 78.1999 256.171 78.1393C255.986 78.0793 255.734 78.0392 255.412 78.0265C254.768 78.0011 253.925 78.0875 252.952 78.2591C249.06 78.9459 243.519 80.9181 241.757 81.6311C207.79 95.3704 174.354 114.322 144.425 135.558Z" fill="#212425"></path> </svg> 