<svg viewBox="0 0 16 16" height="20" width="20" xmlns="http://www.w3.org/2000/svg">
<path fill-rule="evenodd" clip-rule="evenodd" d="M15.9188 7.45105C15.9188 6.90605 15.4738 6.46105 14.9288 6.46105H10.5288C9.9838 6.46105 9.5388 6.01605 9.5388 5.47105V1.07105C9.5388 0.526055 9.0938 0.0810547 8.5488 0.0810547H7.4513C6.9063 0.0810547 6.4613 0.526055 6.4613 1.07105V5.4698C6.4613 6.0148 6.0163 6.4598 5.4713 6.4598H1.0713C0.526299 6.4598 0.0812988 6.9048 0.0812988 7.4498V8.54855C0.0812988 9.09355 0.526299 9.53855 1.0713 9.53855H5.4713C6.0163 9.53855 6.4613 9.98355 6.4613 10.5286V14.9273C6.4613 15.4723 6.9063 15.9173 7.4513 15.9173H8.5488C9.0938 15.9173 9.5388 15.4723 9.5388 14.9273V10.5286C9.5388 9.98355 9.9838 9.53855 10.5288 9.53855H14.9288C15.4738 9.53855 15.9188 9.09355 15.9188 8.54855V7.45105Z"/>
</svg>
