<svg width="327" height="79" viewBox="0 0 327 79" fill="none" xmlns="http://www.w3.org/2000/svg">
<mask id="path-1-outside-1_25_4" maskUnits="userSpaceOnUse" x="20" y="15" width="291" height="55" fill="black">
<rect fill="white" x="20" y="15" width="291" height="55"/>
<path d="M25.2055 55V28.5H34.6055V38H36.1055L41.9555 28.5H52.0055L43.9555 40.7L52.5055 55H41.7055L36.1055 45H34.6055V55H25.2055ZM66.6734 55.7C64.0734 55.7 61.7068 55.2167 59.5734 54.25C57.4401 53.25 55.7568 51.7333 54.5234 49.7C53.2901 47.6667 52.6734 45.1 52.6734 42V41C52.6734 38.1 53.2901 35.6833 54.5234 33.75C55.7568 31.7833 57.4401 30.3 59.5734 29.3C61.7068 28.3 64.0734 27.8 66.6734 27.8C69.2734 27.8 71.6234 28.3 73.7234 29.3C75.8568 30.3 77.5401 31.7833 78.7734 33.75C80.0068 35.6833 80.6234 38.1 80.6234 41V42C80.6234 45 80.0068 47.5333 78.7734 49.6C77.5401 51.6333 75.8568 53.1667 73.7234 54.2C71.6234 55.2 69.2734 55.7 66.6734 55.7ZM66.6734 48.05C67.5734 48.05 68.3568 47.8333 69.0234 47.4C69.6901 46.9333 70.1901 46.25 70.5234 45.35C70.8901 44.45 71.0734 43.3333 71.0734 42V41C71.0734 39.8333 70.8901 38.8333 70.5234 38C70.1901 37.1667 69.6901 36.5333 69.0234 36.1C68.3568 35.6667 67.5734 35.45 66.6734 35.45C65.7068 35.45 64.8901 35.6667 64.2234 36.1C63.5901 36.5333 63.0901 37.1667 62.7234 38C62.3901 38.8333 62.2234 39.8333 62.2234 41V42C62.2234 43.3333 62.3901 44.45 62.7234 45.35C63.0901 46.25 63.5901 46.9333 64.2234 47.4C64.8901 47.8333 65.7068 48.05 66.6734 48.05ZM83.8969 55V28.5H95.6469L100.597 40.05L105.497 28.5H116.947V55H108.247V39.75L103.397 50.25H97.4469L92.5969 39.75V55H83.8969ZM134.103 65V55.7C129.703 55.7 126.286 54.5667 123.853 52.3C121.419 50 120.203 46.6167 120.203 42.15V41.15C120.203 36.85 121.419 33.55 123.853 31.25C126.286 28.95 129.703 27.8 134.103 27.8V20H143.503V27.8C147.869 27.8 151.286 28.95 153.753 31.25C156.219 33.55 157.453 36.8333 157.453 41.1V42.15C157.453 46.65 156.219 50.0333 153.753 52.3C151.286 54.5667 147.869 55.7 143.503 55.7V65H134.103ZM147.853 42.15V41.15C147.853 39.2833 147.469 37.8667 146.703 36.9C145.936 35.9333 144.736 35.45 143.103 35.45V48.05C144.736 48.05 145.936 47.5333 146.703 46.5C147.469 45.4667 147.853 44.0167 147.853 42.15ZM129.703 41.15V42.15C129.703 44.05 130.103 45.5167 130.903 46.55C131.703 47.55 132.919 48.05 134.553 48.05V35.45C132.853 35.45 131.619 35.95 130.853 36.95C130.086 37.9167 129.703 39.3167 129.703 41.15ZM173.705 55.7C171.105 55.7 168.738 55.2167 166.605 54.25C164.471 53.25 162.788 51.7333 161.555 49.7C160.321 47.6667 159.705 45.1 159.705 42V41C159.705 38.1 160.321 35.6833 161.555 33.75C162.788 31.7833 164.471 30.3 166.605 29.3C168.738 28.3 171.105 27.8 173.705 27.8C176.305 27.8 178.655 28.3 180.755 29.3C182.888 30.3 184.571 31.7833 185.805 33.75C187.038 35.6833 187.655 38.1 187.655 41V42C187.655 45 187.038 47.5333 185.805 49.6C184.571 51.6333 182.888 53.1667 180.755 54.2C178.655 55.2 176.305 55.7 173.705 55.7ZM173.705 48.05C174.605 48.05 175.388 47.8333 176.055 47.4C176.721 46.9333 177.221 46.25 177.555 45.35C177.921 44.45 178.105 43.3333 178.105 42V41C178.105 39.8333 177.921 38.8333 177.555 38C177.221 37.1667 176.721 36.5333 176.055 36.1C175.388 35.6667 174.605 35.45 173.705 35.45C172.738 35.45 171.921 35.6667 171.255 36.1C170.621 36.5333 170.121 37.1667 169.755 38C169.421 38.8333 169.255 39.8333 169.255 41V42C169.255 43.3333 169.421 44.45 169.755 45.35C170.121 46.25 170.621 46.9333 171.255 47.4C171.921 47.8333 172.738 48.05 173.705 48.05ZM190.928 65V28.5H199.628V31.8C200.261 30.6667 201.211 29.7167 202.478 28.95C203.778 28.1833 205.545 27.8 207.778 27.8C211.211 27.8 213.878 28.9167 215.778 31.15C217.711 33.3833 218.678 36.7167 218.678 41.15V42.15C218.678 45.1833 218.211 47.7167 217.278 49.75C216.345 51.75 215.045 53.25 213.378 54.25C211.745 55.2167 209.878 55.7 207.778 55.7C206.245 55.7 204.828 55.3833 203.528 54.75C202.228 54.1167 201.161 53.1833 200.328 51.95V65H190.928ZM204.878 48.05C206.011 48.05 206.995 47.5833 207.828 46.65C208.661 45.6833 209.078 44.1833 209.078 42.15V41.15C209.078 39.15 208.678 37.7 207.878 36.8C207.078 35.9 206.078 35.45 204.878 35.45C204.045 35.45 203.278 35.6333 202.578 36C201.878 36.3667 201.328 36.9333 200.928 37.7C200.528 38.4667 200.328 39.4333 200.328 40.6V42.65C200.328 43.85 200.528 44.8667 200.928 45.7C201.361 46.5 201.928 47.1 202.628 47.5C203.328 47.8667 204.078 48.05 204.878 48.05ZM227.896 55V36.05H220.346V28.5H244.846V36.05H237.296V55H227.896ZM247.959 55V28.5H257.359V37.75H265.109V28.5H274.509V55H265.109V45.25H257.359V55H247.959ZM291.771 55.7C289.171 55.7 286.804 55.2167 284.671 54.25C282.538 53.25 280.854 51.7333 279.621 49.7C278.388 47.6667 277.771 45.1 277.771 42V41C277.771 38.1 278.388 35.6833 279.621 33.75C280.854 31.7833 282.538 30.3 284.671 29.3C286.804 28.3 289.171 27.8 291.771 27.8C294.371 27.8 296.721 28.3 298.821 29.3C300.954 30.3 302.638 31.7833 303.871 33.75C305.104 35.6833 305.721 38.1 305.721 41V42C305.721 45 305.104 47.5333 303.871 49.6C302.638 51.6333 300.954 53.1667 298.821 54.2C296.721 55.2 294.371 55.7 291.771 55.7ZM291.771 48.05C292.671 48.05 293.454 47.8333 294.121 47.4C294.788 46.9333 295.288 46.25 295.621 45.35C295.988 44.45 296.171 43.3333 296.171 42V41C296.171 39.8333 295.988 38.8333 295.621 38C295.288 37.1667 294.788 36.5333 294.121 36.1C293.454 35.6667 292.671 35.45 291.771 35.45C290.804 35.45 289.988 35.6667 289.321 36.1C288.688 36.5333 288.188 37.1667 287.821 38C287.488 38.8333 287.321 39.8333 287.321 41V42C287.321 43.3333 287.488 44.45 287.821 45.35C288.188 46.25 288.688 46.9333 289.321 47.4C289.988 47.8333 290.804 48.05 291.771 48.05Z"/>
</mask>
<path d="M25.2055 55V28.5H34.6055V38H36.1055L41.9555 28.5H52.0055L43.9555 40.7L52.5055 55H41.7055L36.1055 45H34.6055V55H25.2055ZM66.6734 55.7C64.0734 55.7 61.7068 55.2167 59.5734 54.25C57.4401 53.25 55.7568 51.7333 54.5234 49.7C53.2901 47.6667 52.6734 45.1 52.6734 42V41C52.6734 38.1 53.2901 35.6833 54.5234 33.75C55.7568 31.7833 57.4401 30.3 59.5734 29.3C61.7068 28.3 64.0734 27.8 66.6734 27.8C69.2734 27.8 71.6234 28.3 73.7234 29.3C75.8568 30.3 77.5401 31.7833 78.7734 33.75C80.0068 35.6833 80.6234 38.1 80.6234 41V42C80.6234 45 80.0068 47.5333 78.7734 49.6C77.5401 51.6333 75.8568 53.1667 73.7234 54.2C71.6234 55.2 69.2734 55.7 66.6734 55.7ZM66.6734 48.05C67.5734 48.05 68.3568 47.8333 69.0234 47.4C69.6901 46.9333 70.1901 46.25 70.5234 45.35C70.8901 44.45 71.0734 43.3333 71.0734 42V41C71.0734 39.8333 70.8901 38.8333 70.5234 38C70.1901 37.1667 69.6901 36.5333 69.0234 36.1C68.3568 35.6667 67.5734 35.45 66.6734 35.45C65.7068 35.45 64.8901 35.6667 64.2234 36.1C63.5901 36.5333 63.0901 37.1667 62.7234 38C62.3901 38.8333 62.2234 39.8333 62.2234 41V42C62.2234 43.3333 62.3901 44.45 62.7234 45.35C63.0901 46.25 63.5901 46.9333 64.2234 47.4C64.8901 47.8333 65.7068 48.05 66.6734 48.05ZM83.8969 55V28.5H95.6469L100.597 40.05L105.497 28.5H116.947V55H108.247V39.75L103.397 50.25H97.4469L92.5969 39.75V55H83.8969ZM134.103 65V55.7C129.703 55.7 126.286 54.5667 123.853 52.3C121.419 50 120.203 46.6167 120.203 42.15V41.15C120.203 36.85 121.419 33.55 123.853 31.25C126.286 28.95 129.703 27.8 134.103 27.8V20H143.503V27.8C147.869 27.8 151.286 28.95 153.753 31.25C156.219 33.55 157.453 36.8333 157.453 41.1V42.15C157.453 46.65 156.219 50.0333 153.753 52.3C151.286 54.5667 147.869 55.7 143.503 55.7V65H134.103ZM147.853 42.15V41.15C147.853 39.2833 147.469 37.8667 146.703 36.9C145.936 35.9333 144.736 35.45 143.103 35.45V48.05C144.736 48.05 145.936 47.5333 146.703 46.5C147.469 45.4667 147.853 44.0167 147.853 42.15ZM129.703 41.15V42.15C129.703 44.05 130.103 45.5167 130.903 46.55C131.703 47.55 132.919 48.05 134.553 48.05V35.45C132.853 35.45 131.619 35.95 130.853 36.95C130.086 37.9167 129.703 39.3167 129.703 41.15ZM173.705 55.7C171.105 55.7 168.738 55.2167 166.605 54.25C164.471 53.25 162.788 51.7333 161.555 49.7C160.321 47.6667 159.705 45.1 159.705 42V41C159.705 38.1 160.321 35.6833 161.555 33.75C162.788 31.7833 164.471 30.3 166.605 29.3C168.738 28.3 171.105 27.8 173.705 27.8C176.305 27.8 178.655 28.3 180.755 29.3C182.888 30.3 184.571 31.7833 185.805 33.75C187.038 35.6833 187.655 38.1 187.655 41V42C187.655 45 187.038 47.5333 185.805 49.6C184.571 51.6333 182.888 53.1667 180.755 54.2C178.655 55.2 176.305 55.7 173.705 55.7ZM173.705 48.05C174.605 48.05 175.388 47.8333 176.055 47.4C176.721 46.9333 177.221 46.25 177.555 45.35C177.921 44.45 178.105 43.3333 178.105 42V41C178.105 39.8333 177.921 38.8333 177.555 38C177.221 37.1667 176.721 36.5333 176.055 36.1C175.388 35.6667 174.605 35.45 173.705 35.45C172.738 35.45 171.921 35.6667 171.255 36.1C170.621 36.5333 170.121 37.1667 169.755 38C169.421 38.8333 169.255 39.8333 169.255 41V42C169.255 43.3333 169.421 44.45 169.755 45.35C170.121 46.25 170.621 46.9333 171.255 47.4C171.921 47.8333 172.738 48.05 173.705 48.05ZM190.928 65V28.5H199.628V31.8C200.261 30.6667 201.211 29.7167 202.478 28.95C203.778 28.1833 205.545 27.8 207.778 27.8C211.211 27.8 213.878 28.9167 215.778 31.15C217.711 33.3833 218.678 36.7167 218.678 41.15V42.15C218.678 45.1833 218.211 47.7167 217.278 49.75C216.345 51.75 215.045 53.25 213.378 54.25C211.745 55.2167 209.878 55.7 207.778 55.7C206.245 55.7 204.828 55.3833 203.528 54.75C202.228 54.1167 201.161 53.1833 200.328 51.95V65H190.928ZM204.878 48.05C206.011 48.05 206.995 47.5833 207.828 46.65C208.661 45.6833 209.078 44.1833 209.078 42.15V41.15C209.078 39.15 208.678 37.7 207.878 36.8C207.078 35.9 206.078 35.45 204.878 35.45C204.045 35.45 203.278 35.6333 202.578 36C201.878 36.3667 201.328 36.9333 200.928 37.7C200.528 38.4667 200.328 39.4333 200.328 40.6V42.65C200.328 43.85 200.528 44.8667 200.928 45.7C201.361 46.5 201.928 47.1 202.628 47.5C203.328 47.8667 204.078 48.05 204.878 48.05ZM227.896 55V36.05H220.346V28.5H244.846V36.05H237.296V55H227.896ZM247.959 55V28.5H257.359V37.75H265.109V28.5H274.509V55H265.109V45.25H257.359V55H247.959ZM291.771 55.7C289.171 55.7 286.804 55.2167 284.671 54.25C282.538 53.25 280.854 51.7333 279.621 49.7C278.388 47.6667 277.771 45.1 277.771 42V41C277.771 38.1 278.388 35.6833 279.621 33.75C280.854 31.7833 282.538 30.3 284.671 29.3C286.804 28.3 289.171 27.8 291.771 27.8C294.371 27.8 296.721 28.3 298.821 29.3C300.954 30.3 302.638 31.7833 303.871 33.75C305.104 35.6833 305.721 38.1 305.721 41V42C305.721 45 305.104 47.5333 303.871 49.6C302.638 51.6333 300.954 53.1667 298.821 54.2C296.721 55.2 294.371 55.7 291.771 55.7ZM291.771 48.05C292.671 48.05 293.454 47.8333 294.121 47.4C294.788 46.9333 295.288 46.25 295.621 45.35C295.988 44.45 296.171 43.3333 296.171 42V41C296.171 39.8333 295.988 38.8333 295.621 38C295.288 37.1667 294.788 36.5333 294.121 36.1C293.454 35.6667 292.671 35.45 291.771 35.45C290.804 35.45 289.988 35.6667 289.321 36.1C288.688 36.5333 288.188 37.1667 287.821 38C287.488 38.8333 287.321 39.8333 287.321 41V42C287.321 43.3333 287.488 44.45 287.821 45.35C288.188 46.25 288.688 46.9333 289.321 47.4C289.988 47.8333 290.804 48.05 291.771 48.05Z" fill="black"/>
<path d="M25.2055 55H20.2055C20.2055 57.7614 22.444 60 25.2055 60V55ZM25.2055 28.5V23.5C22.444 23.5 20.2055 25.7386 20.2055 28.5H25.2055ZM34.6055 28.5H39.6055C39.6055 25.7386 37.3669 23.5 34.6055 23.5V28.5ZM34.6055 38H29.6055C29.6055 40.7614 31.844 43 34.6055 43V38ZM36.1055 38V43C37.8413 43 39.4528 42.0998 40.363 40.6217L36.1055 38ZM41.9555 28.5V23.5C40.2197 23.5 38.6081 24.4002 37.6979 25.8783L41.9555 28.5ZM52.0055 28.5L56.1788 31.2537C57.1921 29.7182 57.2802 27.7502 56.4082 26.1303C55.5363 24.5103 53.8452 23.5 52.0055 23.5V28.5ZM43.9555 40.7L39.7821 37.9463C38.7242 39.5496 38.6783 41.6172 39.664 43.2659L43.9555 40.7ZM52.5055 55V60C54.3054 60 55.9665 59.0325 56.8546 57.4669C57.7426 55.9012 57.7206 53.979 56.7969 52.4341L52.5055 55ZM41.7055 55L37.3429 57.443C38.2272 59.0221 39.8957 60 41.7055 60V55ZM36.1055 45L40.468 42.557C39.5837 40.9779 37.9152 40 36.1055 40V45ZM34.6055 45V40C31.844 40 29.6055 42.2386 29.6055 45H34.6055ZM34.6055 55V60C37.3669 60 39.6055 57.7614 39.6055 55H34.6055ZM30.2055 55V28.5H20.2055V55H30.2055ZM25.2055 33.5H34.6055V23.5H25.2055V33.5ZM29.6055 28.5V38H39.6055V28.5H29.6055ZM34.6055 43H36.1055V33H34.6055V43ZM40.363 40.6217L46.213 31.1217L37.6979 25.8783L31.8479 35.3783L40.363 40.6217ZM41.9555 33.5H52.0055V23.5H41.9555V33.5ZM47.8321 25.7463L39.7821 37.9463L48.1288 43.4537L56.1788 31.2537L47.8321 25.7463ZM39.664 43.2659L48.214 57.5659L56.7969 52.4341L48.2469 38.1341L39.664 43.2659ZM52.5055 50H41.7055V60H52.5055V50ZM46.068 52.557L40.468 42.557L31.7429 47.443L37.3429 57.443L46.068 52.557ZM36.1055 40H34.6055V50H36.1055V40ZM29.6055 45V55H39.6055V45H29.6055ZM34.6055 50H25.2055V60H34.6055V50ZM59.5734 54.25L57.4513 58.7773C57.4707 58.7864 57.4902 58.7954 57.5098 58.8043L59.5734 54.25ZM54.5234 33.75L58.7387 36.4391C58.7457 36.4282 58.7526 36.4173 58.7594 36.4064L54.5234 33.75ZM59.5734 29.3L61.6956 33.8273L61.6956 33.8273L59.5734 29.3ZM73.7234 29.3L71.5738 33.8143C71.5829 33.8187 71.5921 33.823 71.6013 33.8273L73.7234 29.3ZM78.7734 33.75L74.5375 36.4064C74.5443 36.4173 74.5512 36.4282 74.5581 36.4391L78.7734 33.75ZM78.7734 49.6L83.0485 52.1931C83.0547 52.1828 83.0609 52.1726 83.067 52.1623L78.7734 49.6ZM73.7234 54.2L75.8731 58.7143C75.8831 58.7095 75.8931 58.7047 75.9031 58.6999L73.7234 54.2ZM69.0234 47.4L71.7484 51.5922C71.7964 51.561 71.8438 51.529 71.8908 51.4962L69.0234 47.4ZM70.5234 45.35L65.893 43.4635C65.8727 43.5132 65.8533 43.5631 65.8347 43.6134L70.5234 45.35ZM70.5234 38L65.8811 39.857C65.9021 39.9096 65.924 39.9618 65.9469 40.0137L70.5234 38ZM69.0234 36.1L71.7484 31.9078L71.7484 31.9078L69.0234 36.1ZM64.2234 36.1L61.4985 31.9078C61.4654 31.9293 61.4326 31.9512 61.4 31.9735L64.2234 36.1ZM62.7234 38L58.1469 35.9863C58.124 36.0382 58.1021 36.0904 58.0811 36.143L62.7234 38ZM62.7234 45.35L58.0347 47.0866C58.0533 47.1369 58.0727 47.1868 58.093 47.2365L62.7234 45.35ZM64.2234 47.4L61.2574 51.4253C61.3361 51.4833 61.4165 51.5389 61.4985 51.5922L64.2234 47.4ZM66.6734 50.7C64.7063 50.7 63.0539 50.3377 61.6371 49.6957L57.5098 58.8043C60.3596 60.0956 63.4405 60.7 66.6734 60.7V50.7ZM61.6956 49.7227C60.4638 49.1453 59.5257 48.3058 58.7985 47.1069L50.2484 52.2931C51.9879 55.1609 54.4165 57.3547 57.4513 58.7773L61.6956 49.7227ZM58.7985 47.1069C58.1628 46.059 57.6734 44.4572 57.6734 42H47.6734C47.6734 45.7428 48.4174 49.2744 50.2484 52.2931L58.7985 47.1069ZM57.6734 42V41H47.6734V42H57.6734ZM57.6734 41C57.6734 38.8024 58.1377 37.3813 58.7387 36.4391L50.3081 31.0609C48.4425 33.9854 47.6734 37.3976 47.6734 41H57.6734ZM58.7594 36.4064C59.4744 35.2663 60.4182 34.4261 61.6956 33.8273L57.4513 24.7727C54.4621 26.1739 52.0391 28.3004 50.2875 31.0936L58.7594 36.4064ZM61.6956 33.8273C63.0987 33.1696 64.7302 32.8 66.6734 32.8V22.8C63.4167 22.8 60.3149 23.4304 57.4513 24.7727L61.6956 33.8273ZM66.6734 32.8C68.618 32.8 70.2207 33.17 71.5738 33.8143L75.8731 24.7857C73.0262 23.43 69.9289 22.8 66.6734 22.8V32.8ZM71.6013 33.8273C72.8787 34.4261 73.8225 35.2663 74.5375 36.4064L83.0094 31.0936C81.2578 28.3004 78.8348 26.1739 75.8456 24.7727L71.6013 33.8273ZM74.5581 36.4391C75.1592 37.3813 75.6234 38.8024 75.6234 41H85.6234C85.6234 37.3976 84.8544 33.9854 82.9888 31.0609L74.5581 36.4391ZM75.6234 41V42H85.6234V41H75.6234ZM75.6234 42C75.6234 44.3184 75.1496 45.9155 74.4799 47.0377L83.067 52.1623C84.864 49.1512 85.6234 45.6816 85.6234 42H75.6234ZM74.4984 47.0069C73.7633 48.2188 72.8064 49.0885 71.5438 49.7001L75.9031 58.6999C78.9071 57.2448 81.3169 55.0479 83.0485 52.1931L74.4984 47.0069ZM71.5738 49.6857C70.2207 50.33 68.618 50.7 66.6734 50.7V60.7C69.9289 60.7 73.0262 60.07 75.8731 58.7143L71.5738 49.6857ZM66.6734 53.05C68.4093 53.05 70.1671 52.6201 71.7484 51.5922L66.2985 43.2078C66.4039 43.1393 66.5124 43.0935 66.603 43.0684C66.6892 43.0446 66.7207 43.05 66.6734 43.05V53.05ZM71.8908 51.4962C73.5313 50.3478 74.5906 48.7648 75.2122 47.0866L65.8347 43.6134C65.8076 43.6866 65.8067 43.6623 65.8633 43.5849C65.9239 43.502 66.0221 43.3977 66.1561 43.3038L71.8908 51.4962ZM75.1539 47.2365C75.8371 45.5594 76.0734 43.7552 76.0734 42H66.0734C66.0734 42.9115 65.9431 43.3406 65.893 43.4635L75.1539 47.2365ZM76.0734 42V41H66.0734V42H76.0734ZM76.0734 41C76.0734 39.3276 75.8127 37.606 75.1 35.9863L65.9469 40.0137C65.9675 40.0607 66.0734 40.3391 66.0734 41H76.0734ZM75.1658 36.143C74.5008 34.4804 73.3888 32.974 71.7484 31.9078L66.2985 40.2922C66.1682 40.2076 66.0565 40.1027 65.974 39.9982C65.895 39.8981 65.873 39.8369 65.8811 39.857L75.1658 36.143ZM71.7484 31.9078C70.1671 30.8799 68.4093 30.45 66.6734 30.45V40.45C66.7207 40.45 66.6892 40.4554 66.603 40.4316C66.5124 40.4065 66.4039 40.3607 66.2985 40.2922L71.7484 31.9078ZM66.6734 30.45C64.9498 30.45 63.1362 30.8433 61.4985 31.9078L66.9484 40.2922C66.8107 40.3817 66.6894 40.4264 66.6181 40.4453C66.5531 40.4626 66.562 40.45 66.6734 40.45V30.45ZM61.4 31.9735C59.8633 33.0249 58.8185 34.4599 58.1469 35.9863L67.3 40.0137C67.3342 39.936 67.3414 39.9431 67.2979 39.9982C67.2511 40.0575 67.168 40.1436 67.0469 40.2265L61.4 31.9735ZM58.0811 36.143C57.4523 37.7149 57.2234 39.3788 57.2234 41H67.2234C67.2234 40.2879 67.3279 39.9518 67.3658 39.857L58.0811 36.143ZM57.2234 41V42H67.2234V41H57.2234ZM57.2234 42C57.2234 43.7123 57.4324 45.4605 58.0347 47.0866L67.4122 43.6134C67.3478 43.4395 67.2234 42.9544 67.2234 42H57.2234ZM58.093 47.2365C58.7255 48.789 59.7265 50.2972 61.2574 51.4253L67.1894 43.3747C67.3116 43.4647 67.3816 43.548 67.4086 43.5849C67.4322 43.6173 67.4053 43.5896 67.3539 43.4635L58.093 47.2365ZM61.4985 51.5922C63.1362 52.6567 64.9498 53.05 66.6734 53.05V43.05C66.562 43.05 66.5531 43.0374 66.6181 43.0547C66.6894 43.0736 66.8107 43.1183 66.9484 43.2078L61.4985 51.5922ZM83.8969 55H78.8969C78.8969 57.7614 81.1355 60 83.8969 60V55ZM83.8969 28.5V23.5C81.1355 23.5 78.8969 25.7386 78.8969 28.5H83.8969ZM95.6469 28.5L100.243 26.5304C99.4547 24.692 97.647 23.5 95.6469 23.5V28.5ZM100.597 40.05L96.0012 42.0196C96.7904 43.8611 98.6026 45.0537 100.606 45.05C102.609 45.0463 104.417 43.8471 105.2 42.0027L100.597 40.05ZM105.497 28.5V23.5C103.49 23.5 101.678 24.6998 100.894 26.5472L105.497 28.5ZM116.947 28.5H121.947C121.947 25.7386 119.708 23.5 116.947 23.5V28.5ZM116.947 55V60C119.708 60 121.947 57.7614 121.947 55H116.947ZM108.247 55H103.247C103.247 57.7614 105.485 60 108.247 60V55ZM108.247 39.75H113.247C113.247 37.4022 111.613 35.3706 109.32 34.8666C107.027 34.3626 104.692 35.5219 103.708 37.6533L108.247 39.75ZM103.397 50.25V55.25C105.347 55.25 107.118 54.1167 107.936 52.3467L103.397 50.25ZM97.4469 50.25L92.9077 52.3467C93.7253 54.1167 95.4972 55.25 97.4469 55.25V50.25ZM92.5969 39.75L97.136 37.6533C96.1515 35.5219 93.8166 34.3626 91.5235 34.8666C89.2304 35.3706 87.5969 37.4022 87.5969 39.75H92.5969ZM92.5969 55V60C95.3583 60 97.5969 57.7614 97.5969 55H92.5969ZM88.8969 55V28.5H78.8969V55H88.8969ZM83.8969 33.5H95.6469V23.5H83.8969V33.5ZM91.0512 30.4696L96.0012 42.0196L105.193 38.0804L100.243 26.5304L91.0512 30.4696ZM105.2 42.0027L110.1 30.4527L100.894 26.5472L95.994 38.0972L105.2 42.0027ZM105.497 33.5H116.947V23.5H105.497V33.5ZM111.947 28.5V55H121.947V28.5H111.947ZM116.947 50H108.247V60H116.947V50ZM113.247 55V39.75H103.247V55H113.247ZM103.708 37.6533L98.8577 48.1533L107.936 52.3467L112.786 41.8467L103.708 37.6533ZM103.397 45.25H97.4469V55.25H103.397V45.25ZM101.986 48.1533L97.136 37.6533L88.0577 41.8467L92.9077 52.3467L101.986 48.1533ZM87.5969 39.75V55H97.5969V39.75H87.5969ZM92.5969 50H83.8969V60H92.5969V50ZM134.103 65H129.103C129.103 67.7614 131.341 70 134.103 70V65ZM134.103 55.7H139.103C139.103 52.9386 136.864 50.7 134.103 50.7V55.7ZM123.853 52.3L120.418 55.9337C120.427 55.942 120.436 55.9503 120.445 55.9586L123.853 52.3ZM123.853 31.25L120.418 27.6163L120.418 27.6163L123.853 31.25ZM134.103 27.8V32.8C136.864 32.8 139.103 30.5614 139.103 27.8H134.103ZM134.103 20V15C131.341 15 129.103 17.2386 129.103 20H134.103ZM143.503 20H148.503C148.503 17.2386 146.264 15 143.503 15V20ZM143.503 27.8H138.503C138.503 30.5614 140.741 32.8 143.503 32.8V27.8ZM153.753 52.3L157.136 55.9816L157.136 55.9816L153.753 52.3ZM143.503 55.7V50.7C140.741 50.7 138.503 52.9386 138.503 55.7H143.503ZM143.503 65V70C146.264 70 148.503 67.7614 148.503 65H143.503ZM143.103 35.45V30.45C140.341 30.45 138.103 32.6886 138.103 35.45H143.103ZM143.103 48.05H138.103C138.103 50.8114 140.341 53.05 143.103 53.05V48.05ZM146.703 46.5L150.718 49.4792L150.718 49.4792L146.703 46.5ZM130.903 46.55L126.949 49.6109C126.965 49.6319 126.982 49.6527 126.998 49.6735L130.903 46.55ZM134.553 48.05V53.05C137.314 53.05 139.553 50.8114 139.553 48.05H134.553ZM134.553 35.45H139.553C139.553 32.6886 137.314 30.45 134.553 30.45V35.45ZM130.853 36.95L134.77 40.057C134.787 40.0355 134.804 40.0139 134.821 39.9922L130.853 36.95ZM139.103 65V55.7H129.103V65H139.103ZM134.103 50.7C130.549 50.7 128.502 49.7976 127.261 48.6414L120.445 55.9586C124.07 59.3357 128.857 60.7 134.103 60.7V50.7ZM127.287 48.6663C126.155 47.5957 125.203 45.7203 125.203 42.15H115.203C115.203 47.513 116.684 52.4043 120.418 55.9337L127.287 48.6663ZM125.203 42.15V41.15H115.203V42.15H125.203ZM125.203 41.15C125.203 37.8122 126.118 35.9889 127.287 34.8837L120.418 27.6163C116.721 31.1111 115.203 35.8878 115.203 41.15H125.203ZM127.287 34.8837C128.53 33.7088 130.567 32.8 134.103 32.8V22.8C128.838 22.8 124.042 24.1912 120.418 27.6163L127.287 34.8837ZM139.103 27.8V20H129.103V27.8H139.103ZM134.103 25H143.503V15H134.103V25ZM138.503 20V27.8H148.503V20H138.503ZM143.503 32.8C146.989 32.8 149.05 33.7011 150.343 34.9069L157.163 27.5931C153.522 24.1989 148.75 22.8 143.503 22.8V32.8ZM150.343 34.9069C151.541 36.024 152.453 37.829 152.453 41.1H162.453C162.453 35.8377 160.898 31.076 157.163 27.5931L150.343 34.9069ZM152.453 41.1V42.15H162.453V41.1H152.453ZM152.453 42.15C152.453 45.7523 151.487 47.5917 150.37 48.6184L157.136 55.9816C160.952 52.4749 162.453 47.5477 162.453 42.15H152.453ZM150.37 48.6184C149.078 49.8053 147.007 50.7 143.503 50.7V60.7C148.731 60.7 153.494 59.3281 157.136 55.9816L150.37 48.6184ZM138.503 55.7V65H148.503V55.7H138.503ZM143.503 60H134.103V70H143.503V60ZM152.853 42.15V41.15H142.853V42.15H152.853ZM152.853 41.15C152.853 38.7071 152.367 35.996 150.62 33.793L142.785 40.007C142.674 39.867 142.692 39.8188 142.739 39.9935C142.789 40.179 142.853 40.5444 142.853 41.15H152.853ZM150.62 33.793C148.617 31.2678 145.73 30.45 143.103 30.45V40.45C143.441 40.45 143.487 40.5017 143.36 40.4504C143.292 40.4231 143.192 40.3731 143.079 40.29C142.966 40.2062 142.866 40.1083 142.785 40.007L150.62 33.793ZM138.103 35.45V48.05H148.103V35.45H138.103ZM143.103 53.05C145.848 53.05 148.759 52.12 150.718 49.4792L142.687 43.5208C142.752 43.4338 142.84 43.3387 142.952 43.2512C143.062 43.1639 143.168 43.1056 143.25 43.0701C143.41 43.0013 143.404 43.05 143.103 43.05V53.05ZM150.718 49.4792C152.355 47.2735 152.853 44.6246 152.853 42.15H142.853C142.853 43.4088 142.584 43.6598 142.687 43.5208L150.718 49.4792ZM124.703 41.15V42.15H134.703V41.15H124.703ZM124.703 42.15C124.703 44.6723 125.224 47.3823 126.949 49.6109L134.856 43.4891C134.982 43.6511 134.703 43.4277 134.703 42.15H124.703ZM126.998 49.6735C128.999 52.1747 131.856 53.05 134.553 53.05V43.05C134.236 43.05 134.195 43.0005 134.316 43.0503C134.379 43.0762 134.468 43.1219 134.565 43.1943C134.663 43.2672 134.745 43.3486 134.807 43.4265L126.998 49.6735ZM139.553 48.05V35.45H129.553V48.05H139.553ZM134.553 30.45C131.882 30.45 128.904 31.2742 126.885 33.9078L134.821 39.9922C134.737 40.1011 134.633 40.2054 134.515 40.2937C134.399 40.3811 134.297 40.4321 134.231 40.4587C134.111 40.5075 134.176 40.45 134.553 40.45V30.45ZM126.935 33.843C125.199 36.0327 124.703 38.7151 124.703 41.15H134.703C134.703 40.5682 134.765 40.2197 134.813 40.0454C134.857 39.8827 134.873 39.9271 134.77 40.057L126.935 33.843ZM166.605 54.25L164.483 58.7773C164.502 58.7864 164.521 58.7954 164.541 58.8043L166.605 54.25ZM161.555 33.75L165.77 36.4391C165.777 36.4282 165.784 36.4173 165.791 36.4064L161.555 33.75ZM166.605 29.3L168.727 33.8273L168.727 33.8273L166.605 29.3ZM180.755 29.3L178.605 33.8143C178.614 33.8187 178.623 33.823 178.633 33.8273L180.755 29.3ZM185.805 33.75L181.569 36.4064C181.576 36.4173 181.582 36.4282 181.589 36.4391L185.805 33.75ZM185.805 49.6L190.08 52.1931C190.086 52.1828 190.092 52.1726 190.098 52.1623L185.805 49.6ZM180.755 54.2L182.904 58.7143C182.914 58.7095 182.924 58.7047 182.934 58.6999L180.755 54.2ZM176.055 47.4L178.78 51.5922C178.828 51.561 178.875 51.529 178.922 51.4962L176.055 47.4ZM177.555 45.35L172.924 43.4635C172.904 43.5132 172.885 43.5631 172.866 43.6134L177.555 45.35ZM177.555 38L172.912 39.857C172.933 39.9096 172.955 39.9618 172.978 40.0137L177.555 38ZM176.055 36.1L178.78 31.9078L178.78 31.9078L176.055 36.1ZM171.255 36.1L168.53 31.9078C168.497 31.9293 168.464 31.9512 168.431 31.9735L171.255 36.1ZM169.755 38L165.178 35.9863C165.155 36.0382 165.133 36.0904 165.112 36.143L169.755 38ZM169.755 45.35L165.066 47.0866C165.085 47.1369 165.104 47.1868 165.124 47.2365L169.755 45.35ZM171.255 47.4L168.289 51.4253C168.367 51.4833 168.448 51.5389 168.53 51.5922L171.255 47.4ZM173.705 50.7C171.738 50.7 170.085 50.3377 168.668 49.6957L164.541 58.8043C167.391 60.0956 170.472 60.7 173.705 60.7V50.7ZM168.727 49.7227C167.495 49.1453 166.557 48.3058 165.83 47.1069L157.28 52.2931C159.019 55.1609 161.448 57.3547 164.483 58.7773L168.727 49.7227ZM165.83 47.1069C165.194 46.059 164.705 44.4572 164.705 42H154.705C154.705 45.7428 155.449 49.2744 157.28 52.2931L165.83 47.1069ZM164.705 42V41H154.705V42H164.705ZM164.705 41C164.705 38.8024 165.169 37.3813 165.77 36.4391L157.339 31.0609C155.474 33.9854 154.705 37.3976 154.705 41H164.705ZM165.791 36.4064C166.506 35.2663 167.449 34.4261 168.727 33.8273L164.483 24.7727C161.493 26.1739 159.07 28.3004 157.319 31.0936L165.791 36.4064ZM168.727 33.8273C170.13 33.1696 171.761 32.8 173.705 32.8V22.8C170.448 22.8 167.346 23.4304 164.483 24.7727L168.727 33.8273ZM173.705 32.8C175.649 32.8 177.252 33.17 178.605 33.8143L182.904 24.7857C180.057 23.43 176.96 22.8 173.705 22.8V32.8ZM178.633 33.8273C179.91 34.4261 180.854 35.2663 181.569 36.4064L190.041 31.0936C188.289 28.3004 185.866 26.1739 182.877 24.7727L178.633 33.8273ZM181.589 36.4391C182.19 37.3813 182.655 38.8024 182.655 41H192.655C192.655 37.3976 191.886 33.9854 190.02 31.0609L181.589 36.4391ZM182.655 41V42H192.655V41H182.655ZM182.655 42C182.655 44.3184 182.181 45.9155 181.511 47.0377L190.098 52.1623C191.895 49.1512 192.655 45.6816 192.655 42H182.655ZM181.53 47.0069C180.795 48.2188 179.838 49.0885 178.575 49.7001L182.934 58.6999C185.938 57.2448 188.348 55.0479 190.08 52.1931L181.53 47.0069ZM178.605 49.6857C177.252 50.33 175.649 50.7 173.705 50.7V60.7C176.96 60.7 180.057 60.07 182.904 58.7143L178.605 49.6857ZM173.705 53.05C175.441 53.05 177.198 52.6201 178.78 51.5922L173.33 43.2078C173.435 43.1393 173.544 43.0935 173.634 43.0684C173.72 43.0446 173.752 43.05 173.705 43.05V53.05ZM178.922 51.4962C180.563 50.3478 181.622 48.7648 182.243 47.0866L172.866 43.6134C172.839 43.6866 172.838 43.6623 172.895 43.5849C172.955 43.502 173.053 43.3977 173.187 43.3038L178.922 51.4962ZM182.185 47.2365C182.868 45.5594 183.105 43.7552 183.105 42H173.105C173.105 42.9115 172.974 43.3406 172.924 43.4635L182.185 47.2365ZM183.105 42V41H173.105V42H183.105ZM183.105 41C183.105 39.3276 182.844 37.606 182.131 35.9863L172.978 40.0137C172.999 40.0607 173.105 40.3391 173.105 41H183.105ZM182.197 36.143C181.532 34.4804 180.42 32.974 178.78 31.9078L173.33 40.2922C173.199 40.2076 173.088 40.1027 173.005 39.9982C172.926 39.8981 172.904 39.8369 172.912 39.857L182.197 36.143ZM178.78 31.9078C177.198 30.8799 175.441 30.45 173.705 30.45V40.45C173.752 40.45 173.72 40.4554 173.634 40.4316C173.544 40.4065 173.435 40.3607 173.33 40.2922L178.78 31.9078ZM173.705 30.45C171.981 30.45 170.167 30.8433 168.53 31.9078L173.98 40.2922C173.842 40.3817 173.721 40.4264 173.649 40.4453C173.584 40.4626 173.593 40.45 173.705 40.45V30.45ZM168.431 31.9735C166.895 33.0249 165.85 34.4599 165.178 35.9863L174.331 40.0137C174.365 39.936 174.373 39.9431 174.329 39.9982C174.282 40.0575 174.199 40.1436 174.078 40.2265L168.431 31.9735ZM165.112 36.143C164.484 37.7149 164.255 39.3788 164.255 41H174.255C174.255 40.2879 174.359 39.9518 174.397 39.857L165.112 36.143ZM164.255 41V42H174.255V41H164.255ZM164.255 42C164.255 43.7123 164.464 45.4605 165.066 47.0866L174.443 43.6134C174.379 43.4395 174.255 42.9544 174.255 42H164.255ZM165.124 47.2365C165.757 48.789 166.758 50.2972 168.289 51.4253L174.221 43.3747C174.343 43.4647 174.413 43.548 174.44 43.5849C174.463 43.6173 174.437 43.5896 174.385 43.4635L165.124 47.2365ZM168.53 51.5922C170.167 52.6567 171.981 53.05 173.705 53.05V43.05C173.593 43.05 173.584 43.0374 173.649 43.0547C173.721 43.0736 173.842 43.1183 173.98 43.2078L168.53 51.5922ZM190.928 65H185.928C185.928 67.7614 188.167 70 190.928 70V65ZM190.928 28.5V23.5C188.167 23.5 185.928 25.7386 185.928 28.5H190.928ZM199.628 28.5H204.628C204.628 25.7386 202.39 23.5 199.628 23.5V28.5ZM199.628 31.8H194.628C194.628 34.0761 196.165 36.0649 198.368 36.6386C200.57 37.2122 202.883 36.226 203.993 34.2391L199.628 31.8ZM202.478 28.95L199.938 24.6432C199.922 24.6529 199.905 24.6626 199.889 24.6725L202.478 28.95ZM215.778 31.15L211.97 34.3899C211.979 34.4008 211.988 34.4117 211.998 34.4225L215.778 31.15ZM217.278 49.75L221.809 51.8644C221.813 51.8549 221.818 51.8454 221.822 51.8358L217.278 49.75ZM213.378 54.25L215.925 58.5529C215.933 58.5478 215.942 58.5426 215.951 58.5375L213.378 54.25ZM203.528 54.75L201.338 59.2449L201.338 59.2449L203.528 54.75ZM200.328 51.95L204.471 49.1507C203.241 47.3298 200.966 46.5257 198.864 47.1691C196.763 47.8124 195.328 49.7524 195.328 51.95H200.328ZM200.328 65V70C203.09 70 205.328 67.7614 205.328 65H200.328ZM207.828 46.65L211.558 49.9801C211.577 49.9585 211.596 49.9367 211.615 49.9147L207.828 46.65ZM207.878 36.8L204.141 40.1218L204.141 40.1218L207.878 36.8ZM200.928 37.7L205.361 40.0128L205.361 40.0128L200.928 37.7ZM200.928 45.7L196.421 47.8637C196.456 47.9371 196.493 48.0097 196.532 48.0814L200.928 45.7ZM202.628 47.5L200.147 51.8412C200.2 51.8715 200.254 51.9008 200.308 51.9292L202.628 47.5ZM195.928 65V28.5H185.928V65H195.928ZM190.928 33.5H199.628V23.5H190.928V33.5ZM194.628 28.5V31.8H204.628V28.5H194.628ZM203.993 34.2391C204.147 33.963 204.436 33.6095 205.067 33.2275L199.889 24.6725C197.987 25.8238 196.376 27.3703 195.263 29.3609L203.993 34.2391ZM205.018 33.2568C205.265 33.1112 206.039 32.8 207.778 32.8V22.8C205.051 22.8 202.291 23.2555 199.938 24.6432L205.018 33.2568ZM207.778 32.8C210.023 32.8 211.186 33.4686 211.97 34.3899L219.586 27.9101C216.57 24.3647 212.4 22.8 207.778 22.8V32.8ZM211.998 34.4225C212.833 35.3867 213.678 37.3361 213.678 41.15H223.678C223.678 36.0972 222.59 31.38 219.558 27.8775L211.998 34.4225ZM213.678 41.15V42.15H223.678V41.15H213.678ZM213.678 42.15C213.678 44.7055 213.28 46.4743 212.734 47.6642L221.822 51.8358C223.143 48.959 223.678 45.6612 223.678 42.15H213.678ZM212.747 47.6356C212.176 48.8587 211.505 49.5429 210.806 49.9625L215.951 58.5375C218.584 56.9571 220.513 54.6413 221.809 51.8644L212.747 47.6356ZM210.832 49.9471C210.049 50.41 209.08 50.7 207.778 50.7V60.7C210.676 60.7 213.44 60.0234 215.925 58.5529L210.832 49.9471ZM207.778 50.7C206.957 50.7 206.295 50.5361 205.718 50.2551L201.338 59.2449C203.361 60.2306 205.533 60.7 207.778 60.7V50.7ZM205.718 50.2551C205.23 50.0175 204.828 49.6796 204.471 49.1507L196.185 54.7493C197.494 56.6871 199.226 58.2159 201.338 59.2449L205.718 50.2551ZM195.328 51.95V65H205.328V51.95H195.328ZM200.328 60H190.928V70H200.328V60ZM204.878 53.05C207.593 53.05 209.886 51.8523 211.558 49.9801L204.098 43.3199C204.06 43.3629 204.128 43.2751 204.322 43.1829C204.528 43.0851 204.735 43.05 204.878 43.05V53.05ZM211.615 49.9147C213.579 47.6363 214.078 44.7108 214.078 42.15H204.078C204.078 42.8442 204.005 43.257 203.948 43.4618C203.894 43.6546 203.882 43.5693 204.041 43.3853L211.615 49.9147ZM214.078 42.15V41.15H204.078V42.15H214.078ZM214.078 41.15C214.078 38.6791 213.619 35.7325 211.615 33.4782L204.141 40.1218C203.922 39.8749 203.912 39.7258 203.958 39.8921C204.007 40.0686 204.078 40.4613 204.078 41.15H214.078ZM211.615 33.4782C209.87 31.515 207.512 30.45 204.878 30.45V40.45C204.838 40.45 204.68 40.4388 204.476 40.3471C204.273 40.2556 204.163 40.1464 204.141 40.1218L211.615 33.4782ZM204.878 30.45C203.282 30.45 201.713 30.8087 200.258 31.5708L204.898 40.4292C204.892 40.4324 204.883 40.4367 204.871 40.441C204.86 40.4454 204.849 40.4484 204.841 40.4504C204.833 40.4523 204.83 40.4524 204.835 40.4519C204.839 40.4513 204.853 40.45 204.878 40.45V30.45ZM200.258 31.5708C198.569 32.4556 197.32 33.8054 196.495 35.3872L205.361 40.0128C205.358 40.0177 205.321 40.0875 205.229 40.1824C205.134 40.2802 205.018 40.3664 204.898 40.4292L200.258 31.5708ZM196.495 35.3872C195.616 37.073 195.328 38.8965 195.328 40.6H205.328C205.328 39.9702 205.441 39.8603 205.361 40.0128L196.495 35.3872ZM195.328 40.6V42.65H205.328V40.6H195.328ZM195.328 42.65C195.328 44.3841 195.615 46.185 196.421 47.8637L205.436 43.5363C205.442 43.5484 205.328 43.3159 205.328 42.65H195.328ZM196.532 48.0814C197.35 49.5924 198.538 50.9218 200.147 51.8412L205.109 43.1588C205.196 43.2088 205.267 43.2676 205.313 43.3169C205.357 43.3633 205.355 43.375 205.325 43.3186L196.532 48.0814ZM200.308 51.9292C201.733 52.6756 203.28 53.05 204.878 53.05V43.05C204.869 43.05 204.869 43.0495 204.875 43.0502C204.881 43.051 204.891 43.0525 204.903 43.0555C204.915 43.0585 204.926 43.0621 204.936 43.0656C204.945 43.0692 204.949 43.0715 204.948 43.0708L200.308 51.9292ZM227.896 55H222.896C222.896 57.7614 225.134 60 227.896 60V55ZM227.896 36.05H232.896C232.896 33.2886 230.657 31.05 227.896 31.05V36.05ZM220.346 36.05H215.346C215.346 38.8114 217.584 41.05 220.346 41.05V36.05ZM220.346 28.5V23.5C217.584 23.5 215.346 25.7386 215.346 28.5H220.346ZM244.846 28.5H249.846C249.846 25.7386 247.607 23.5 244.846 23.5V28.5ZM244.846 36.05V41.05C247.607 41.05 249.846 38.8114 249.846 36.05H244.846ZM237.296 36.05V31.05C234.534 31.05 232.296 33.2886 232.296 36.05H237.296ZM237.296 55V60C240.057 60 242.296 57.7614 242.296 55H237.296ZM232.896 55V36.05H222.896V55H232.896ZM227.896 31.05H220.346V41.05H227.896V31.05ZM225.346 36.05V28.5H215.346V36.05H225.346ZM220.346 33.5H244.846V23.5H220.346V33.5ZM239.846 28.5V36.05H249.846V28.5H239.846ZM244.846 31.05H237.296V41.05H244.846V31.05ZM232.296 36.05V55H242.296V36.05H232.296ZM237.296 50H227.896V60H237.296V50ZM247.959 55H242.959C242.959 57.7614 245.198 60 247.959 60V55ZM247.959 28.5V23.5C245.198 23.5 242.959 25.7386 242.959 28.5H247.959ZM257.359 28.5H262.359C262.359 25.7386 260.121 23.5 257.359 23.5V28.5ZM257.359 37.75H252.359C252.359 40.5114 254.598 42.75 257.359 42.75V37.75ZM265.109 37.75V42.75C267.871 42.75 270.109 40.5114 270.109 37.75H265.109ZM265.109 28.5V23.5C262.348 23.5 260.109 25.7386 260.109 28.5H265.109ZM274.509 28.5H279.509C279.509 25.7386 277.271 23.5 274.509 23.5V28.5ZM274.509 55V60C277.271 60 279.509 57.7614 279.509 55H274.509ZM265.109 55H260.109C260.109 57.7614 262.348 60 265.109 60V55ZM265.109 45.25H270.109C270.109 42.4886 267.871 40.25 265.109 40.25V45.25ZM257.359 45.25V40.25C254.598 40.25 252.359 42.4886 252.359 45.25H257.359ZM257.359 55V60C260.121 60 262.359 57.7614 262.359 55H257.359ZM252.959 55V28.5H242.959V55H252.959ZM247.959 33.5H257.359V23.5H247.959V33.5ZM252.359 28.5V37.75H262.359V28.5H252.359ZM257.359 42.75H265.109V32.75H257.359V42.75ZM270.109 37.75V28.5H260.109V37.75H270.109ZM265.109 33.5H274.509V23.5H265.109V33.5ZM269.509 28.5V55H279.509V28.5H269.509ZM274.509 50H265.109V60H274.509V50ZM270.109 55V45.25H260.109V55H270.109ZM265.109 40.25H257.359V50.25H265.109V40.25ZM252.359 45.25V55H262.359V45.25H252.359ZM257.359 50H247.959V60H257.359V50ZM284.671 54.25L282.549 58.7773C282.568 58.7864 282.588 58.7954 282.607 58.8043L284.671 54.25ZM279.621 33.75L283.836 36.4391C283.843 36.4282 283.85 36.4173 283.857 36.4064L279.621 33.75ZM284.671 29.3L286.793 33.8273L286.793 33.8273L284.671 29.3ZM298.821 29.3L296.671 33.8143C296.681 33.8187 296.69 33.823 296.699 33.8273L298.821 29.3ZM303.871 33.75L299.635 36.4064C299.642 36.4173 299.649 36.4282 299.656 36.4391L303.871 33.75ZM303.871 49.6L308.146 52.1931C308.152 52.1828 308.159 52.1726 308.165 52.1623L303.871 49.6ZM298.821 54.2L300.971 58.7143C300.981 58.7095 300.991 58.7047 301.001 58.6999L298.821 54.2ZM294.121 47.4L296.846 51.5922C296.894 51.561 296.942 51.529 296.988 51.4962L294.121 47.4ZM295.621 45.35L290.991 43.4635C290.97 43.5132 290.951 43.5631 290.932 43.6134L295.621 45.35ZM295.621 38L290.979 39.857C291 39.9096 291.022 39.9618 291.045 40.0137L295.621 38ZM294.121 36.1L296.846 31.9078L296.846 31.9078L294.121 36.1ZM289.321 36.1L286.596 31.9078C286.563 31.9293 286.53 31.9512 286.498 31.9735L289.321 36.1ZM287.821 38L283.245 35.9863C283.222 36.0382 283.2 36.0904 283.179 36.143L287.821 38ZM287.821 45.35L283.132 47.0866C283.151 47.1369 283.17 47.1868 283.191 47.2365L287.821 45.35ZM289.321 47.4L286.355 51.4253C286.434 51.4833 286.514 51.5389 286.596 51.5922L289.321 47.4ZM291.771 50.7C289.804 50.7 288.152 50.3377 286.735 49.6957L282.607 58.8043C285.457 60.0956 288.538 60.7 291.771 60.7V50.7ZM286.793 49.7227C285.561 49.1453 284.623 48.3058 283.896 47.1069L275.346 52.2931C277.086 55.1609 279.514 57.3547 282.549 58.7773L286.793 49.7227ZM283.896 47.1069C283.26 46.059 282.771 44.4572 282.771 42H272.771C272.771 45.7428 273.515 49.2744 275.346 52.2931L283.896 47.1069ZM282.771 42V41H272.771V42H282.771ZM282.771 41C282.771 38.8024 283.235 37.3813 283.836 36.4391L275.406 31.0609C273.54 33.9854 272.771 37.3976 272.771 41H282.771ZM283.857 36.4064C284.572 35.2663 285.516 34.4261 286.793 33.8273L282.549 24.7727C279.56 26.1739 277.137 28.3004 275.385 31.0936L283.857 36.4064ZM286.793 33.8273C288.196 33.1696 289.828 32.8 291.771 32.8V22.8C288.514 22.8 285.413 23.4304 282.549 24.7727L286.793 33.8273ZM291.771 32.8C293.716 32.8 295.318 33.17 296.671 33.8143L300.971 24.7857C298.124 23.43 295.027 22.8 291.771 22.8V32.8ZM296.699 33.8273C297.976 34.4261 298.92 35.2663 299.635 36.4064L308.107 31.0936C306.355 28.3004 303.932 26.1739 300.943 24.7727L296.699 33.8273ZM299.656 36.4391C300.257 37.3813 300.721 38.8024 300.721 41H310.721C310.721 37.3976 309.952 33.9854 308.086 31.0609L299.656 36.4391ZM300.721 41V42H310.721V41H300.721ZM300.721 42C300.721 44.3184 300.247 45.9155 299.578 47.0377L308.165 52.1623C309.962 49.1512 310.721 45.6816 310.721 42H300.721ZM299.596 47.0069C298.861 48.2188 297.904 49.0885 296.641 49.7001L301.001 58.6999C304.005 57.2448 306.415 55.0479 308.146 52.1931L299.596 47.0069ZM296.671 49.6857C295.318 50.33 293.716 50.7 291.771 50.7V60.7C295.027 60.7 298.124 60.07 300.971 58.7143L296.671 49.6857ZM291.771 53.05C293.507 53.05 295.265 52.6201 296.846 51.5922L291.396 43.2078C291.502 43.1393 291.61 43.0935 291.701 43.0684C291.787 43.0446 291.818 43.05 291.771 43.05V53.05ZM296.988 51.4962C298.629 50.3478 299.688 48.7648 300.31 47.0866L290.932 43.6134C290.905 43.6866 290.904 43.6623 290.961 43.5849C291.022 43.502 291.12 43.3977 291.254 43.3038L296.988 51.4962ZM300.252 47.2365C300.935 45.5594 301.171 43.7552 301.171 42H291.171C291.171 42.9115 291.041 43.3406 290.991 43.4635L300.252 47.2365ZM301.171 42V41H291.171V42H301.171ZM301.171 41C301.171 39.3276 300.91 37.606 300.198 35.9863L291.045 40.0137C291.065 40.0607 291.171 40.3391 291.171 41H301.171ZM300.263 36.143C299.598 34.4804 298.486 32.974 296.846 31.9078L291.396 40.2922C291.266 40.2076 291.154 40.1027 291.072 39.9982C290.993 39.8981 290.971 39.8369 290.979 39.857L300.263 36.143ZM296.846 31.9078C295.265 30.8799 293.507 30.45 291.771 30.45V40.45C291.818 40.45 291.787 40.4554 291.701 40.4316C291.61 40.4065 291.502 40.3607 291.396 40.2922L296.846 31.9078ZM291.771 30.45C290.047 30.45 288.234 30.8433 286.596 31.9078L292.046 40.2922C291.908 40.3817 291.787 40.4264 291.716 40.4453C291.651 40.4626 291.66 40.45 291.771 40.45V30.45ZM286.498 31.9735C284.961 33.0249 283.916 34.4599 283.245 35.9863L292.398 40.0137C292.432 39.936 292.439 39.9431 292.396 39.9982C292.349 40.0575 292.266 40.1436 292.145 40.2265L286.498 31.9735ZM283.179 36.143C282.55 37.7149 282.321 39.3788 282.321 41H292.321C292.321 40.2879 292.426 39.9518 292.463 39.857L283.179 36.143ZM282.321 41V42H292.321V41H282.321ZM282.321 42C282.321 43.7123 282.53 45.4605 283.132 47.0866L292.51 43.6134C292.445 43.4395 292.321 42.9544 292.321 42H282.321ZM283.191 47.2365C283.823 48.789 284.824 50.2972 286.355 51.4253L292.287 43.3747C292.409 43.4647 292.479 43.548 292.506 43.5849C292.53 43.6173 292.503 43.5896 292.452 43.4635L283.191 47.2365ZM286.596 51.5922C288.234 52.6567 290.047 53.05 291.771 53.05V43.05C291.66 43.05 291.651 43.0374 291.716 43.0547C291.787 43.0736 291.908 43.1183 292.046 43.2078L286.596 51.5922Z" fill="white" mask="url(#path-1-outside-1_25_4)"/>
<line x1="5.99292" y1="74.5" x2="323.007" y2="74.5" stroke="#0EA5E9" stroke-width="2"/>
<path d="M5.00006 75.5L4.99998 4.00005" stroke="#0EA5E9" stroke-width="2"/>
<path d="M322 75.5L322 4.00005" stroke="#0EA5E9" stroke-width="2"/>
<line x1="6" y1="5" x2="323.014" y2="5" stroke="#0EA5E9" stroke-width="2"/>
<rect x="0.5" y="69.5" width="9" height="9" fill="white" stroke="#0EA5E9"/>
<rect x="0.5" y="0.5" width="9" height="9" fill="white" stroke="#0EA5E9"/>
<rect x="317.5" y="69.5" width="9" height="9" fill="white" stroke="#0EA5E9"/>
<rect x="317.5" y="0.5" width="9" height="9" fill="white" stroke="#0EA5E9"/>
</svg>
